SplineFontDB: 3.0
FontName: SreeKrushnadevaraya
FullName: Sree Krushnadevaraya
FamilyName: Sree Krushnadevaraya
Weight: Book
Copyright: Copyright (c) 2012 Andhrapradesh Society for Knowledge Networks (fonts.siliconandhra.org)
Version: 1.0.3
ItalicAngle: 0
UnderlinePosition: -532
UnderlineWidth: 20
Ascent: 576
Descent: 144
InvalidEm: 0
sfntRevision: 0x00010000
LayerCount: 2
Layer: 0 0 "Back" 1
Layer: 1 0 "Fore" 0
XUID: [1021 184 -1251295923 604160]
FSType: 0
OS2Version: 3
OS2_WeightWidthSlopeOnly: 0
OS2_UseTypoMetrics: 1
CreationTime: 1341100800
ModificationTime: 1418764604
PfmFamily: 17
TTFWeight: 400
TTFWidth: 5
LineGap: 0
VLineGap: 0
Panose: 2 0 6 0 0 0 0 0 0 0
OS2TypoAscent: 1105
OS2TypoAOffset: 0
OS2TypoDescent: -378
OS2TypoDOffset: 0
OS2TypoLinegap: 0
OS2WinAscent: 1105
OS2WinAOffset: 0
OS2WinDescent: 378
OS2WinDOffset: 0
HheadAscent: 1105
HheadAOffset: 0
HheadDescent: -378
HheadDOffset: 0
OS2SubXSize: 717
OS2SubYSize: 666
OS2SubXOff: 0
OS2SubYOff: 205
OS2SupXSize: 717
OS2SupYSize: 666
OS2SupXOff: 0
OS2SupYOff: 512
OS2StrikeYSize: 50
OS2StrikeYPos: 250
OS2CapHeight: 0
OS2XHeight: 0
OS2Vendor: 'GPK '
OS2CodePages: 00000001.00000000
OS2UnicodeRanges: 80200003.00000000.00000000.00000000
Lookup: 4 0 0 "'akhn' Akhand in Telugu lookup 0" { "'akhn' Akhand in Telugu lookup 0 subtable"  } ['akhn' ('telu' <'dflt' > ) ]
Lookup: 4 0 0 "'blwf' Below Base Forms in Telugu lookup 1" { "'blwf' Below Base Forms in Telugu lookup 1 subtable"  } ['blwf' ('telu' <'dflt' > ) ]
Lookup: 4 0 0 "'psts' Post Base Substitutions in Telugu lookup 2" { "'psts' Post Base Substitutions in Telugu lookup 2 subtable"  } ['psts' ('telu' <'dflt' > ) ]
Lookup: 4 0 0 "'blwf' Below Base Forms in Telugu lookup 3" { "'blwf' Below Base Forms in Telugu lookup 3 subtable"  } ['blwf' ('telu' <'dflt' > ) ]
Lookup: 4 0 0 "'abvs' Above Base Substitutions in Telugu lookup 4" { "'abvs' Above Base Substitutions in Telugu lookup 4 subtable"  } ['abvs' ('telu' <'dflt' > ) ]

StartChar: U0C15_U0C4D_U0C37_U0C4D_U0C30_U
Encoding: 519 -1 0
Width: 880
GlyphClass: 2
Flags: HW
LayerCount: 2
Back
Fore
SplineSet
110 -348 m 1
 110 422 l 1
 770 422 l 1
 770 -348 l 1
 110 -348 l 1
165 -293 m 1
 715 -293 l 1
 715 367 l 1
 165 367 l 1
 165 -293 l 1
EndSplineSet
EndChar

StartChar: U0950
Encoding: 353 2384 4
Width: 624
GlyphClass: 2
Flags: HW
LayerCount: 2
Back
Fore
SplineSet
373 109 m 0
 373 40.6098165891 323.555384127 -3 254 -3 c 0
 121.643858301 -3 41.1838585028 139.030469667 30 271 c 1
 55 279 l 1
 71.4829824059 172.890800762 129.39679554 52 237 52 c 0
 282.49070097 52 319 91.2693494317 319 137 c 0
 319 181 301.666666667 220.666666667 267 256 c 1
 249 230.666666667 226.333333333 211.666666667 199 199 c 1
 171 265 l 1
 229.666666667 282.333333333 259 309.666666667 259 347 c 0
 259 377.333135862 239.93342264 389 208 389 c 0
 182.666666667 389 155 381 125 365 c 1
 98 430 l 1
 123.333333333 442.666666667 149 449 175 449 c 0
 244.180635165 449 291 398.05042756 291 328 c 0
 291 312.666666667 288.333333333 299 283 287 c 1
 291 279 l 1
 323.666666667 310.333333333 355.333333333 326 386 326 c 0
 388.666666667 326 392.333333333 325.666666667 397 325 c 1
 407.666666667 385.666666667 438.666666667 416 490 416 c 0
 568.987061762 416 590 342.763482527 590 254 c 0
 590 163.061194144 557.579972141 76 475 76 c 0
 417.779488885 76 406 115.258661376 406 179 c 2
 406 207 l 2
 406 239.666666667 397.666666667 256 381 256 c 0
 366.333333333 256 348 248.666666667 326 234 c 1
 357.333333333 191.333333333 373 149.666666667 373 109 c 0
558 250 m 0
 558 303.768274711 533.003686451 357 483 357 c 0
 453 357 431.666666667 343.666666667 419 317 c 1
 431.666666667 310.333333333 438 294 438 268 c 2
 438 201 l 2
 438 157 451.333333333 135 478 135 c 0
 530.154841588 135 558 193.595588728 558 250 c 0
214 507 m 1
 237 522 l 1
 260.333333333 491.333333333 287.666666667 476 319 476 c 0
 349 476 375.333333333 491.333333333 398 522 c 1
 452 477 l 1
 417.333333333 439.666666667 382.666666667 421 348 421 c 0
 296 421 251.333333333 449.666666667 214 507 c 1
327 583 m 1
 369 540 l 1
 327 499 l 1
 285 543 l 1
 327 583 l 1
EndSplineSet
Ligature2: "'blws' Below Base Substitutions in Telugu lookup 8 subtable" U0C15_U0C4D_U0C37_U0C46 U0C30_U0C4D
Ligature2: "'blws' Below Base Substitutions in Telugu lookup 7 subtable" U0C15_U0C4D_U0C37_U0C46 U0C30_U0C4D
EndChar

StartChar: U0951
Encoding: 354 2385 5
Width: 0
GlyphClass: 2
Flags: HW
LayerCount: 2
Back
Fore
SplineSet
-161 754 m 1
 -214 754 l 1
 -214 1105 l 1
 -161 1105 l 1
 -161 754 l 1
EndSplineSet
Ligature2: "'blws' Below Base Substitutions in Telugu lookup 11 subtable" U0C24_U0C4D U0C56
EndChar

StartChar: U0952
Encoding: 355 2386 6
Width: 0
GlyphClass: 2
Flags: HW
LayerCount: 2
Back
Fore
SplineSet
-42 -341 m 1
 -528 -341 l 1
 -528 -292 l 1
 -42 -292 l 1
 -42 -341 l 1
EndSplineSet
EndChar

StartChar: U0964
Encoding: 356 2404 7
Width: 89
GlyphClass: 2
Flags: HW
LayerCount: 2
Back
Fore
SplineSet
64 -11 m 1
 15 -11 l 1
 15 317 l 1
 64 317 l 1
 64 -11 l 1
EndSplineSet
EndChar

StartChar: U0965
Encoding: 357 2405 8
Width: 202
GlyphClass: 2
Flags: HW
LayerCount: 2
Back
Fore
SplineSet
64 -11 m 1
 15 -11 l 1
 15 317 l 1
 64 317 l 1
 64 -11 l 1
177 -13 m 1
 130 -13 l 1
 130 314 l 1
 177 314 l 1
 177 -13 l 1
EndSplineSet
EndChar

StartChar: U0C01
Encoding: 358 3073 9
Width: 273
GlyphClass: 2
Flags: HW
LayerCount: 2
Back
Fore
SplineSet
221 288 m 0
 221 266.406143341 213.104593168 266 191 266 c 0
 113.169538203 266 76 229.575409347 76 152 c 0
 76 88.1563180304 113.662456056 40 175 40 c 0
 193.414865737 40 212 37.603186724 212 22 c 0
 212 4.37739980337 198.194035946 -2 179 -2 c 0
 82.7236398227 -2 15 65.1850210793 15 162 c 0
 15 252.501836049 80.1044266463 309 171 309 c 0
 198.511428115 309 221 306.837464928 221 288 c 0
EndSplineSet
EndChar

StartChar: U0C02
Encoding: 359 3074 10
Width: 365
GlyphClass: 2
Flags: HW
LayerCount: 2
Back
Fore
SplineSet
288 182 m 0
 288 236.220152523 237.710043121 274 182 274 c 0
 122.851325398 274 75 239.51685763 75 182 c 0
 75 116.765925878 116.775071423 78 182 78 c 0
 239.70108341 78 288 124.113349285 288 182 c 0
340 151 m 0
 340 62.8971184498 271.328192222 -2 182 -2 c 0
 88.1068848385 -2 15 59.5787998694 15 151 c 0
 15 247.32009315 84.0054617215 310 182 310 c 0
 274.582672624 310 340 243.424752098 340 151 c 0
EndSplineSet
EndChar

StartChar: U0C03
Encoding: 360 3075 11
Width: 188
GlyphClass: 2
Flags: HW
LayerCount: 2
Back
Fore
SplineSet
15 253 m 0
 15 293.459848925 48.1179234621 328 89 328 c 0
 129.424493688 328 163 294.531533976 163 253 c 256
 163 211.578106131 128.894577406 179 89 179 c 0
 48.6392109533 179 15 212.647044512 15 253 c 0
50 265 m 0
 50 243.985000205 67.7395553751 229 89 229 c 0
 111.854433231 229 130 242.985997679 130 265 c 0
 130 287.675959688 112.420654149 302 89 302 c 0
 66.0912565946 302 50 288.636156869 50 265 c 0
15 71 m 0
 15 111.459848925 48.1179234621 146 89 146 c 0
 129.424493688 146 163 112.531533976 163 71 c 256
 163 29.5781061308 128.894577406 -3 89 -3 c 0
 48.6392109533 -3 15 30.6470445126 15 71 c 0
50 83 m 0
 50 62.3994704339 69.4075380477 46 89 46 c 0
 110.22056153 46 130 60.7846835994 130 83 c 0
 130 105.675959688 112.420654149 120 89 120 c 0
 66.0912565946 120 50 106.636156869 50 83 c 0
EndSplineSet
EndChar

StartChar: U0C05
Encoding: 361 3077 12
Width: 424
GlyphClass: 2
Flags: HW
LayerCount: 2
Back
Fore
SplineSet
82 259 m 0
 82 239.668774206 98.8305160913 227 119 227 c 256
 140.07562664 227 158 238.12838724 158 259 c 0
 158 279.139951817 140.071167184 291 119 291 c 256
 99.9672354227 291 82 277.407302802 82 259 c 0
399 180 m 0
 399 63.2764888832 325.396495209 0 207 0 c 0
 94.1377267333 0 15 62.1039023424 15 173 c 0
 15 252.100911876 58.9371734553 322 133 322 c 0
 173.148137921 322 205 297.782571889 205 260 c 256
 205 220.242605591 166.002185881 194 124 194 c 0
 89.8808319295 194 66.544101842 210.367694474 58 236 c 1
 52.6666666667 220.666666667 50 204.666666667 50 188 c 0
 50 104.353610135 118.31317082 80 210 80 c 0
 303.267963542 80 365 110.092627317 365 195 c 0
 365 235.664757441 338.826193832 280 301 280 c 256
 269.00618387 280 246 258.651768007 246 227 c 0
 246 186.397244516 301 193.886612151 301 164 c 0
 301 148.725521703 286.84313587 140 271 140 c 2
 140 140 l 2
 125.621999657 140 119 144.067160178 119 157 c 0
 119 170.6626411 126.366052048 176 140 176 c 2
 244 176 l 1
 227.876428827 184.68192294 217 209.759366575 217 236 c 0
 217 287.264323081 247.104173713 322 297 322 c 0
 363.632332873 322 399 252.743801439 399 180 c 0
EndSplineSet
EndChar

StartChar: U0C06
Encoding: 362 3078 13
Width: 410
GlyphClass: 2
Flags: HW
LayerCount: 2
Back
Fore
SplineSet
349 238 m 0
 349 265.10289552 328.651838038 281 302 281 c 0
 280.361004871 281 260 267.828700266 260 247 c 0
 260 216.247017168 292.345525704 199 325 199 c 0
 340.512068765 199 349 221.592897099 349 238 c 0
15 181 m 0
 15 257.669099189 60.1848272745 322 133 322 c 0
 173.148137921 322 205 297.782571889 205 260 c 256
 205 219.305914285 166.149039632 194 124 194 c 0
 89.8808319295 194 66.544101842 210.367694474 58 236 c 1
 52 224 49 207 49 185 c 0
 49 109.104266806 121.778955146 80 205 80 c 0
 264.179561729 80 337 94.955983302 337 146 c 0
 337 152 336 158 334 164 c 1
 323.753764746 150.338352995 294.344899981 140 270 140 c 2
 128 140 l 1
 122 143.333333333 119 151.333333333 119 158 c 0
 119 165.333333333 122 173.333333333 128 176 c 1
 281 176 l 1
 245.166061637 190.599011925 220 212.08310826 220 259 c 0
 220 300.945361566 254.021594951 329 296 329 c 0
 344.591775838 329 385 298.383163261 385 250 c 0
 385 222.099084414 376.079980606 198.079980606 361 183 c 1
 373 166.333333333 379 147.666666667 379 127 c 0
 379 42.0126866424 299.615604837 1 208 1 c 0
 95.1961719583 1 15 69.5532581528 15 181 c 0
82 259 m 0
 82 239.668774206 98.8305160913 227 119 227 c 256
 140.07562664 227 158 238.12838724 158 259 c 0
 158 279.139951817 140.071167184 291 119 291 c 256
 99.9672354227 291 82 277.407302802 82 259 c 0
EndSplineSet
EndChar

StartChar: U0C07
Encoding: 363 3079 14
Width: 410
GlyphClass: 2
Flags: HW
LayerCount: 2
Back
Fore
SplineSet
136 285 m 0
 106.512148771 283.946862456 84 272.309832009 84 244 c 0
 84 211.728151844 77.0263304394 197 46 197 c 0
 25.846219715 197 15 215.994792251 15 238 c 0
 15 291.165289791 63.3378694738 323 118 323 c 0
 156.20399695 323 190.128521043 306.742957911 203 281 c 1
 209.025948225 308.116767009 240.018647968 322 274 322 c 0
 341.725843003 322 385 257.375104281 385 187 c 0
 385 153.666666667 374 122.666666667 352 94 c 1
 374 62 385 31 385 1 c 0
 385 -36.0631941663 375.683070026 -65 342 -65 c 0
 314.401026761 -65 304 -49.7322254349 304 -23 c 0
 304 -7.52331043867 317 22.0999513552 317 37 c 0
 317 43 316 50 314 58 c 1
 280.205593236 24.2055932357 226.323517616 -1 163 -1 c 0
 92.5265168715 -1 27 29.1491558404 27 95 c 0
 27 154.195038065 102.757712334 185 168 185 c 0
 232.192562627 185 293.261530355 159.488896694 327 127 c 1
 337.666666667 149 343 172 343 196 c 0
 343 241.637495582 312.448460183 284 268 284 c 0
 244.006117666 284 221 271.89778299 221 250 c 0
 221 231.511778236 217.108401901 227 198 227 c 0
 184.146892916 227 181 233.423254641 181 248 c 0
 181 266.034581596 155.127070251 285 136 285 c 0
295 100 m 1
 279.701573255 130.596853493 230.708888522 148 182 148 c 0
 147.165663581 148 117 134.563951067 117 103 c 0
 117 74.0835025188 153.312362085 64 187 64 c 0
 232.369000811 64 270.726162943 77.8369313827 295 100 c 1
EndSplineSet
EndChar

StartChar: U0C08
Encoding: 364 3080 15
Width: 679
GlyphClass: 2
Flags: HW
LayerCount: 2
Back
Fore
SplineSet
140 389 m 0
 170.118444295 389 190.418892606 308 219 308 c 0
 245.484866235 308 286.454780681 370.833764582 322 436 c 0
 332.038254262 456.076508523 341.946883085 469 367 469 c 0
 389.93683514 469 408 452.420827308 408 429 c 0
 408 389.436843345 311.307662239 326.647751122 286 308 c 1
 347.871326089 295.894740548 390.125843426 257.37233996 408 201 c 1
 556 201 l 1
 579.015132901 204.835855484 599 227.595083988 599 255 c 0
 599 280.238095463 579.054637277 298 554 298 c 0
 533.33476421 298 512 288.245286102 512 269 c 2
 512 251 l 2
 512 229.954282189 502.963346564 222 483 222 c 0
 465.35647276 222 454 238.598139521 454 257 c 0
 454 304.371549873 496.526349438 326 547 326 c 0
 595.954024731 326 631 300.448645102 631 254 c 0
 631 223.181223897 617.674255423 199.482486748 596 190 c 1
 628.719549427 177.589136425 654 146.483572007 654 104 c 0
 654 46.0722929106 614.44261767 5 557 5 c 0
 500.084068447 5 458 41.2394118412 458 97 c 0
 458 125.49177222 473.683079598 155.551924748 492 167 c 1
 415 167 l 1
 415 151 l 2
 415 61.9877920013 342.465470762 -2 251 -2 c 0
 153.980981715 -2 77 57.2304149507 77 151 c 2
 77 167 l 1
 32 167 l 2
 20.9646438258 167 15 172.992800856 15 184 c 256
 15 195.300530631 19.9738559782 201 32 201 c 2
 84 201 l 1
 96.3672971008 239.476035425 123.70910615 272.614942141 159 289 c 1
 131.699330551 299.500257481 101 317.135434948 101 349 c 0
 101 373.180876765 116.0435121 389 140 389 c 0
135 167 m 1
 141.121915218 105.780847829 183.575128705 74 251 74 c 0
 309.812067409 74 356.492230945 114.535424161 365 167 c 1
 135 167 l 1
365 201 m 1
 354.482191397 245.700686568 305.91505451 280 251 280 c 0
 192.147222848 280 144.477669236 250.453070543 136 201 c 1
 365 201 l 1
611 121 m 0
 611 147.378089328 583.758082746 161 556 161 c 256
 528.701902548 161 502 144.609393464 502 118 c 0
 502 87.3242440753 524.317897458 72 555 72 c 0
 589.387984235 72 611 88.2461107086 611 121 c 0
EndSplineSet
EndChar

StartChar: U0C09
Encoding: 365 3081 16
Width: 473
GlyphClass: 2
Flags: HW
LayerCount: 2
Back
Fore
SplineSet
286 379 m 0
 286 359.035200501 260.227593833 333.296578423 255 315 c 1
 249 315 l 1
 240.786469973 331.427060055 218 360.353572987 218 379 c 0
 218 398.352919764 231.853181044 418 251 418 c 0
 271.894449078 418 286 399.454397509 286 379 c 0
193 81 m 0
 221.046293034 81 254 100.04318004 254 125 c 0
 254 134.547907894 256.30647476 143 265 143 c 256
 274.230408641 143 276 134.953848788 276 125 c 0
 276 95.6173449631 309.784369304 81 341 81 c 0
 385.979453203 81 420 93.4128566108 420 134 c 0
 420 137.333333333 419.333333333 143 418 151 c 1
 414.357510724 125.502575066 391.594087195 109 362 109 c 0
 331.149212724 109 302 128.945692814 302 159 c 0
 302 192.267727927 333.594722307 209 370 209 c 0
 418.324342463 209 448 166.312165897 448 118 c 0
 448 47.8379101737 407.799997283 0 339 0 c 0
 300.157352183 0 276.526292752 19.7177515173 263 48 c 1
 246.591143095 17.5264086038 220.337905978 -1 176 -1 c 0
 112.934594897 -1 70 63.5342363604 70 127 c 0
 70 133.666666667 70.3333333333 144 71 158 c 2
 71 164 l 1
 20 164 l 1
 16.6666666667 166 15 172.333333333 15 179 c 0
 15 187.666666667 16.6666666667 195.666666667 20 199 c 1
 85 199 l 1
 109.013087459 260.747939181 169.232419149 308 251 308 c 0
 300.096344153 308 391 288.465796291 391 247 c 0
 391 232.307281 379.973890141 226 364 226 c 0
 352.666666667 226 342 232.333333333 332 245 c 0
 312 268.333333333 283.666666667 280 247 280 c 0
 188.577067091 280 133.339779744 244.65718505 121 199 c 1
 258 199 l 2
 277.567494903 199 283 196.659670944 283 179 c 0
 283 173.666666667 281.333333333 166.666666667 278 164 c 1
 113 164 l 1
 113 111.145989637 139.776610617 81 193 81 c 0
400 162 m 0
 400 174.076785795 386.083516427 184 373 184 c 0
 359.197995947 184 346 174.811368897 346 162 c 256
 346 148.88977067 358.045775456 139 370 139 c 0
 386.532173142 139 400 147.08571174 400 162 c 0
EndSplineSet
EndChar

StartChar: U0C0A
Encoding: 366 3082 17
Width: 679
GlyphClass: 2
Flags: HW
LayerCount: 2
Back
Fore
SplineSet
391 157 m 0
 411.474242046 157 427 125.660775459 427 104 c 0
 427 45.2318544056 390.138078765 1 331 1 c 0
 295.232672845 1 270.689557117 16.3220460859 259 41 c 1
 249.164311161 18.8697001116 216.018170147 1 185 1 c 0
 115.664037041 1 73 66.8045822207 73 139 c 0
 73 149.666666667 73.3333333333 158 74 164 c 1
 32 164 l 2
 21.5001777056 164 15 169.837843397 15 180 c 0
 15 191.300530631 19.9738559782 197 32 197 c 2
 82 197 l 1
 105.903568503 263.398801397 163.774449919 308 251 308 c 0
 308.178452476 308 394 285.904111211 394 236 c 0
 394 224.130261663 379.483675596 213 367 213 c 0
 332.953098618 213 322.727740131 260.852097451 293 272 c 0
 279 277.333333333 261.333333333 280 240 280 c 0
 179.739847519 280 135.211400473 242.528501183 117 197 c 1
 556 197 l 1
 579.015132901 200.835855484 599 223.595083988 599 251 c 0
 599 276.238095463 579.054637277 294 554 294 c 0
 532.734833403 294 512 285.490484627 512 266 c 2
 512 248 l 2
 512 226.101211793 503.495762527 218 483 218 c 0
 466.472595548 218 454 234.779513156 454 253 c 0
 454 300.793679046 495.278430793 322 547 322 c 0
 595.954024731 322 631 297.153706829 631 250 c 0
 631 218.720403792 617.140353443 196.891448811 596 185 c 1
 629.056882574 174.740967477 654 141.622570047 654 100 c 0
 654 43.075498439 613.384441363 1 557 1 c 0
 500.084068447 1 458 37.8820219496 458 93 c 0
 458 122.11316308 473.817054776 152.635659235 492 164 c 1
 109 164 l 1
 109 157 l 2
 109 111.256891725 143.614348806 81 190 81 c 0
 218.046293034 81 251 100.04318004 251 125 c 0
 251 135.230814854 253.326732452 143 263 143 c 0
 271.133793075 143 274 133.671622599 274 125 c 0
 274 95.1692903137 307.457867531 81 338 81 c 0
 362.326779728 81 387 94.3822205255 387 118 c 0
 387 129.941818297 379 135.464724333 379 145 c 0
 379 152.274478297 383 157 391 157 c 0
611 118 m 0
 611 144.627113593 584.379099509 157 556 157 c 256
 528.123877309 157 502 141.109277971 502 115 c 0
 502 84.1043265134 523.740160772 68 555 68 c 0
 589.938680517 68 611 85.0729286075 611 118 c 0
256 375 m 0
 256 355.822883868 229.669655558 329.678622237 225 311 c 1
 219 311 l 1
 210.906648615 327.186702769 188 357.507241776 188 375 c 0
 188 394.996288517 201.853181044 414 221 414 c 0
 241.894449078 414 256 396.075935991 256 375 c 0
341 375 m 0
 341 355.822883868 314.669655558 329.678622237 310 311 c 1
 304 311 l 1
 295.781299203 327.437401594 272 357.713630394 272 375 c 0
 272 393.793662777 286.987269647 414 305 414 c 0
 325.629269799 414 341 395.430279673 341 375 c 0
EndSplineSet
EndChar

StartChar: U0C0B
Encoding: 367 3083 18
Width: 807
GlyphClass: 2
Flags: HW
LayerCount: 2
Back
Fore
SplineSet
286 76 m 0
 334.109275736 76 367 125.145342353 367 174 c 0
 367 220.494491033 328.963657686 262 283 262 c 0
 256.200218654 262 244 262.420138144 244 286 c 0
 244 303.589199818 260.558605356 310 279 310 c 0
 351.554739309 310 401 234.944037764 401 160 c 0
 401 150 400 136 398 118 c 1
 410.453898353 94.3375931292 441.571881477 76 476 76 c 0
 525.03075197 76 557 123.899477777 557 174 c 0
 557 221.035316088 520.127886472 262 474 262 c 0
 447.415771815 262 434 263.624542581 434 286 c 0
 434 303.118864586 451.697624441 310 470 310 c 0
 542.920286836 310 592 236.114222115 592 160 c 0
 592 144.666666667 591 130.666666667 589 118 c 1
 601.516771654 94.2181338574 631.81483137 76 667 76 c 0
 715.109275736 76 748 125.145342353 748 174 c 0
 748 220.494491033 709.963657686 262 664 262 c 0
 637.282449101 262 625 263.201424935 625 286 c 0
 625 303.961719171 641.807320463 310 661 310 c 0
 733.028299794 310 782 235.505203658 782 160 c 0
 782 70.0007182811 744.783784853 -2 659 -2 c 0
 617.091301422 -2 583.047388837 22.5876852711 566 51 c 1
 548.799197339 20.2842809622 512.657428449 -2 468 -2 c 0
 427.822210193 -2 394.645094985 22.3678480241 378 49 c 1
 362.285664514 21.1977141417 329.171955562 0 288 0 c 0
 250.843537074 0 223.242326125 20.7191955775 210 46 c 1
 192.283122567 16.8937013586 162.242851167 0 117 0 c 0
 64.8146378676 0 15 40.0399218691 15 92 c 0
 15 153.142105086 53.9454760918 174.755084016 112 185 c 0
 144.074065123 190.011572675 174 199.233028212 174 230 c 0
 174 259.915092631 156.307206393 277 125 277 c 0
 106.481956553 277 82 266.456547533 82 250 c 0
 82 245.630914311 91 226.490032609 91 224 c 0
 91 205.506892411 75.3780501245 200 55 200 c 0
 34.0312204119 200 17 219.06983344 17 241 c 0
 17 285.702165334 63.7259185138 315 110 315 c 0
 158.856677967 315 206 283.042268707 206 236 c 0
 206 138.449280032 64 183.467854942 64 112 c 0
 64 80.8796925227 98.404941288 76 137 76 c 0
 169.549990086 76 202 102.223963826 202 135 c 0
 202 144.636089885 204.204955608 151 214 151 c 0
 221.912424053 151 225 138.116584251 225 131 c 0
 225 95.8086280262 249.587356036 76 286 76 c 0
EndSplineSet
EndChar

StartChar: U0C0C
Encoding: 368 3084 19
Width: 582
GlyphClass: 2
Flags: HW
LayerCount: 2
Back
Fore
SplineSet
295 337 m 0
 349.640707483 337 397 298.161645819 397 245 c 0
 397 202.14292804 386.538719071 171.026245012 356 145 c 0
 298.949745917 96.3796277017 266 62.6666666667 266 34 c 0
 266 6.61394445814 306.486832548 -34 367 -34 c 2
 383 -34 l 2
 463.808096021 -34 524 35.6042006121 524 134 c 0
 524 192 503.666666667 231.666666667 463 253 c 0
 446.333333333 263 438 274.333333333 438 287 c 0
 438 301.666666667 445 310.333333333 459 313 c 1
 459 313 l 1
 511.820446883 313 557 222.859030967 557 122 c 0
 557 -6.04624130184 502.409254787 -100 378 -100 c 0
 319.594812693 -100 221 -49.2125100215 221 28 c 2
 221 35 l 2
 221 67 253.080187278 102.746517162 308 152 c 0
 337.080187278 178.079850495 347 205.333333333 347 224 c 0
 347 256.229229212 312.792556586 260 275 260 c 0
 243.463624828 260 210 232.579203403 210 202 c 0
 210 191.020668526 206.745985889 185 197 185 c 0
 189.277781325 185 187 195.400412103 187 206 c 0
 187 241.101094356 165.113798595 257 127 257 c 0
 93.8156810252 257 66 230.022507398 66 197 c 0
 66 175.961101238 82 159.034251509 82 145 c 0
 82 141.026052332 76.3072234744 138 71 138 c 2
 67 138 l 1
 34.1355523528 148.954815888 15 183.646168431 15 228 c 0
 15 286.004653181 59.177068666 333 117 333 c 0
 157.692901149 333 187.829782318 316.765966732 202 290 c 1
 220.145966535 320.243277557 248.264282966 337 295 337 c 0
EndSplineSet
EndChar

StartChar: U0C0E
Encoding: 369 3086 20
Width: 453
GlyphClass: 2
Flags: HW
LayerCount: 2
Back
Fore
SplineSet
428 191 m 0
 428 82.5428236399 392.142088755 0 292 0 c 0
 257.932648134 0 226.032819332 25.3441081783 220 54 c 1
 207.88683719 25.2312383233 167.886539401 -1 128 -1 c 0
 65.775978643 -1 15 53.3283947864 15 116 c 0
 15 190.043055899 62.5548650577 239 138 239 c 0
 196.33441474 239 227.80982087 199.652042729 242 151 c 0
 257.333333333 105.666666667 281 83 313 83 c 0
 362.927342636 83 388 142.130519167 388 197 c 0
 388 281.859418168 327.936820707 383 248 383 c 0
 238.81302818 383 208.707419515 376 200 376 c 0
 180.95781008 376 167 384.554495757 167 403 c 0
 167 430.878399592 194.504467667 443 224 443 c 0
 339.845135071 443 428 311.88122457 428 191 c 0
200 146 m 0
 200 180.07623153 166.173652168 205 131 205 c 256
 95.5453466472 205 64 180.393876706 64 146 c 0
 64 106.090545212 93.3038185357 76 133 76 c 0
 176.768676912 76 200 103.06229303 200 146 c 0
EndSplineSet
EndChar

StartChar: U0C0F
Encoding: 370 3087 21
Width: 453
GlyphClass: 2
Flags: HW
LayerCount: 2
Back
Fore
SplineSet
156 524 m 0
 186.878929871 524 223 503.344796288 223 476 c 0
 223 474.666666667 222.333333333 472.666666667 221 470 c 1
 221 469 l 1
 208.333333333 475 195.333333333 478 182 478 c 0
 136.522848596 478 93 440.188592898 93 394 c 0
 93 372.780191232 98.1438861085 362.856113892 109 352 c 0
 109.666666667 352 110 351.333333333 110 350 c 2
 110 347 l 2
 110 342.507567227 110.876112324 341 105 341 c 0
 70.9739536965 341 48 381.513395188 48 419 c 0
 48 477.229359009 98.586115532 524 156 524 c 0
428 191 m 0
 428 82.5428236399 392.142088755 0 292 0 c 0
 257.932648134 0 226.032819332 25.3441081783 220 54 c 1
 207.88683719 25.2312383233 167.886539401 -1 128 -1 c 0
 65.775978643 -1 15 53.3283947864 15 116 c 0
 15 190.043055899 62.5548650577 239 138 239 c 0
 196.33441474 239 227.80982087 199.652042729 242 151 c 0
 257.333333333 105.666666667 281 83 313 83 c 0
 362.927342636 83 388 142.130519167 388 197 c 0
 388 281.859418168 327.936820707 383 248 383 c 0
 238.81302818 383 208.707419515 376 200 376 c 0
 180.95781008 376 167 384.554495757 167 403 c 0
 167 430.878399592 194.504467667 443 224 443 c 0
 339.845135071 443 428 311.88122457 428 191 c 0
200 146 m 0
 200 180.07623153 166.173652168 205 131 205 c 256
 95.5453466472 205 64 180.393876706 64 146 c 0
 64 106.090545212 93.3038185357 76 133 76 c 0
 176.768676912 76 200 103.06229303 200 146 c 0
EndSplineSet
EndChar

StartChar: U0C10
Encoding: 371 3088 22
Width: 427
GlyphClass: 2
Flags: HW
LayerCount: 2
Back
Fore
SplineSet
364 183 m 0
 364 243.361713337 329.637922119 302 272 302 c 0
 248.752394014 302 225 289.89778299 225 268 c 0
 225 249.366104668 220.624637811 245 203 245 c 0
 191.127672851 245 184 257.198030973 184 268 c 0
 184 289.177823453 162.373570981 303 140 303 c 0
 72.2310164671 303 107.563367466 216 50 216 c 0
 29.7994892021 216 20 234.724743856 20 257 c 0
 20 308.837343616 67.9246759695 341 122 341 c 0
 160.20399695 341 194.128521043 324.742957911 207 299 c 1
 214.303626595 325.293055745 244.106868451 340 278 340 c 0
 356.102901117 340 402 263.814256681 402 182 c 0
 402 78.6307085075 374.36941566 -1 279 -1 c 0
 240.18539351 -1 206.001369379 17.1950702342 198 46 c 1
 186.845033136 17.3157994934 151.504805848 -1 112 -1 c 0
 58.3967382189 -1 15 45.9525435396 15 100 c 0
 15 164.510897835 58.0248315635 206 121 206 c 0
 177.515387555 206 203.889879194 179.106301056 214 130 c 0
 219.304826799 99.4972459085 238.090660703 80 272 80 c 0
 333.973989918 80 364 119.72949305 364 183 c 0
175 127 m 0
 175 156.246370576 145.649839477 176 115 176 c 0
 83.6923393987 176 58 155.111778426 58 125 c 0
 58 93.5293364907 83.4312763413 74 116 74 c 0
 151.392153218 74 175 92.7686589062 175 127 c 0
EndSplineSet
EndChar

StartChar: U0C12
Encoding: 372 3090 23
Width: 422
GlyphClass: 2
Flags: HW
LayerCount: 2
Back
Fore
SplineSet
397 109 m 0
 397 50.9953468193 352.111879248 4 295 4 c 0
 255.135740836 4 224.00517563 19.5457793648 210 46 c 1
 192.144629185 16.2410486425 161.961228295 0 117 0 c 0
 61.1110304715 0 15 38.587213108 15 92 c 0
 15 185.700572908 95.7239290652 164.47055389 155 203 c 0
 169.666666667 214.333333333 177 226 177 238 c 0
 177 267.846558519 158.597026773 285 128 285 c 0
 105.638841247 285 85 277.039104681 85 257 c 0
 85 252.300344548 93 237.747972659 93 232 c 0
 93 213.801041897 77.2161097824 208 58 208 c 0
 36.5255790686 208 20 228.001221437 20 250 c 0
 20 294.632315784 64.7558835265 323 113 323 c 0
 169.697683545 323 209 298.643182034 209 245 c 0
 209 205 180 176 122 158 c 0
 83.3333333333 146 64 130.666666667 64 112 c 0
 64 80.8158497291 98.4895529096 76 137 76 c 0
 167.06845244 76 202 104.841904623 202 135 c 0
 202 146.063645844 203.533846216 151 214 151 c 0
 223.151018266 151 225 141.580944399 225 131 c 0
 225 96.5742715058 247.238648848 79 284 79 c 0
 318.007443111 79 346 106.160114239 346 139 c 0
 346 159 341 176 331 190 c 0
 330.333333333 190 330 190.333333333 330 191 c 2
 330 192 l 2
 330 195.540870441 335.44994353 199 340 199 c 2
 344 199 l 2
 346 197.666666667 347.666666667 197 349 197 c 0
 378.291821297 184.184828182 397 150.246831531 397 109 c 0
EndSplineSet
EndChar

StartChar: U0C13
Encoding: 373 3091 24
Width: 422
GlyphClass: 2
Flags: HW
LayerCount: 2
Back
Fore
SplineSet
397 109 m 0
 397 50.9953468193 352.111879248 4 295 4 c 0
 255.135740836 4 224.00517563 19.5457793648 210 46 c 1
 192.144629185 16.2410486425 161.961228295 0 117 0 c 0
 61.1110304715 0 15 38.587213108 15 92 c 0
 15 185.700572908 95.7239290652 164.47055389 155 203 c 0
 169.666666667 214.333333333 177 226 177 238 c 0
 177 267.846558519 158.597026773 285 128 285 c 0
 105.638841247 285 85 277.039104681 85 257 c 0
 85 252.300344548 93 237.747972659 93 232 c 0
 93 213.801041897 77.2161097824 208 58 208 c 0
 36.5255790686 208 20 228.001221437 20 250 c 0
 20 293.566436142 61.354008555 318.123091687 104 322 c 1
 89.6141981778 339.705602243 82 356.264515087 82 387 c 0
 82 430.984109338 117.458446783 454 163 454 c 0
 211.082915218 454 246 428.31234398 246 382 c 0
 246 359.630656929 237.241530627 350.354397048 225 337 c 1
 211 340 l 1
 213 344.666666667 214 351 214 359 c 0
 214 385.87472224 197.118499491 398 170 398 c 0
 140.232221803 398 122 384.541380452 122 355 c 0
 122 339.737942364 130.881482426 328.815872206 140 321 c 1
 179.705916548 314.79595054 209 289.612221189 209 245 c 0
 209 205 180 176 122 158 c 0
 83.3333333333 146 64 130.666666667 64 112 c 0
 64 80.8158497291 98.4895529096 76 137 76 c 0
 167.06845244 76 202 104.841904623 202 135 c 0
 202 146.063645844 203.533846216 151 214 151 c 0
 223.151018266 151 225 141.580944399 225 131 c 0
 225 96.5742715058 247.238648848 79 284 79 c 0
 318.007443111 79 346 106.160114239 346 139 c 0
 346 159 341 176 331 190 c 0
 330.333333333 190 330 190.333333333 330 191 c 2
 330 192 l 2
 330 195.540870441 335.44994353 199 340 199 c 2
 344 199 l 2
 346 197.666666667 347.666666667 197 349 197 c 0
 378.291821297 184.184828182 397 150.246831531 397 109 c 0
EndSplineSet
EndChar

StartChar: U0C14
Encoding: 374 3092 25
Width: 426
GlyphClass: 2
Flags: HW
LayerCount: 2
Back
Fore
SplineSet
365 331 m 1
 365 359.775868357 337.056983903 377 307 377 c 2
 198 377 l 1
 203.458553364 371.541446636 208 356.566782072 208 346 c 0
 208 326.919275332 198.700136908 311.190095836 187 303 c 1
 202.387293857 291.16362011 214 270.505890849 214 245 c 0
 214 205 185 176 127 158 c 0
 88.3333333333 146 69 130.666666667 69 112 c 0
 69 80.1675999348 103.540300784 76 142 76 c 0
 171.295994847 76 206 105.373215898 206 135 c 0
 206 145.379402501 208.887622206 151 219 151 c 0
 226.995229294 151 230 140.280926554 230 131 c 0
 230 95.6016787614 251.99732855 79 289 79 c 0
 322.401555272 79 350 105.481345564 350 139 c 0
 350 159 345 176 335 190 c 0
 334.333333333 190 334 190.333333333 334 191 c 2
 334 192 l 2
 334 195.540870441 340.097590698 199 344 199 c 258
 349 199 l 2
 351 197.666666667 352.333333333 197 353 197 c 0
 383.344441406 184.505230008 401 151.160667985 401 109 c 0
 401 50.9953468193 356.822931334 4 299 4 c 0
 259.360011788 4 227.709257979 20.1047349288 214 46 c 1
 197.512028842 16.0218706208 165.98003224 0 121 0 c 256
 65.8345578507 0 20 38.0275426663 20 92 c 0
 20 186.784837103 100.275094518 164.178811434 160 203 c 0
 174.666666667 214.333333333 182 226 182 238 c 0
 182 268.806318287 163.87683427 285 133 285 c 0
 110.605779266 285 89 276.700404344 89 257 c 0
 89 251.821184299 98 237.503163771 98 232 c 0
 98 213.456940165 81.9796533919 208 62 208 c 0
 41.5237850961 208 24 229.122108246 24 250 c 0
 24 272.286759621 35.4879837869 289.739986489 49 301 c 1
 43.9785013297 301 43 305.382074801 43 310 c 0
 43 314.666666667 43.6666666667 321 45 323 c 1
 151 323 l 2
 163.861472275 323 174 335.875445154 174 350 c 0
 174 361.765529007 166.254884186 377 155 377 c 2
 49 377 l 2
 28.7210845462 377 15 384.71623365 15 403 c 0
 15 424.385437997 26.9999829186 433 49 433 c 2
 286 433 l 2
 356.384686122 433 395 383.963012372 395 312 c 256
 395 253.669906703 369.238784043 208 314 208 c 0
 270.554883397 208 236 238.409884595 236 281 c 0
 236 327.944099053 263.282595264 358 310 358 c 0
 337.607927118 358 350.891124842 346.284614755 365 331 c 1
314 332 m 0
 292.949277858 332 275 318.202627309 275 299 c 0
 275 275.562062496 290.215962382 261 314 261 c 0
 337.388196019 261 351 277.715445162 351 301 c 0
 351 318.169682724 332.269462552 332 314 332 c 0
EndSplineSet
EndChar

StartChar: U0C15
Encoding: 375 3093 26
Width: 369
GlyphClass: 2
Flags: HW
LayerCount: 2
Back
Fore
SplineSet
304 470 m 0
 326.385761207 470 344 453.014603175 344 431 c 0
 344 388.822880638 247.898346791 327.423760094 218 305 c 1
 253.619960531 297.876007894 310 273.373520952 310 242 c 0
 310 224.761888553 294.29728603 213 277 213 c 0
 229.026246404 213 205.305294263 273 152 273 c 0
 119.683340231 273 83 263.408669617 83 236 c 0
 83 196.926718844 133.586149997 193 182 193 c 0
 193.333333333 193 204.666666667 193 216 193 c 0
 276.872287084 193 335 169.652835118 335 114 c 0
 335 46.04450073 249.196509294 0 176 0 c 0
 100.122773438 0 15 16.5031026282 15 81 c 0
 15 101.526585017 34.3242867899 115 55 115 c 0
 68.3333333333 115 81.3333333333 105 94 85 c 0
 116 50.3333333333 146.666666667 33 186 33 c 0
 216.030029854 33 256 54.0109355766 256 82 c 0
 256 116.763623608 208.863156208 133 170 133 c 2
 130 133 l 2
 66.0352514453 133 20 151.764388473 20 212 c 0
 20 251.50155151 46.4591974571 275.729598729 83 294 c 1
 83 295 l 1
 53 311 37 329.333333333 37 350 c 0
 37 375.016350053 52.1816400541 391 76 391 c 0
 107.314817765 391 125.843757549 310 155 310 c 0
 182.162259934 310 223.926588035 372.692627067 258 438 c 0
 269.55744326 459.013533201 276.769359375 470 304 470 c 0
EndSplineSet
Substitution2: "Single Substitution lookup 23 subtable" U0C15_U0C4D_U0C30
Substitution2: "Single Substitution lookup 22 subtable" U0C15.haln
MultipleSubs2: "Multiple Substitution lookup 19 subtable" U0C15_U0C46 U0C56
EndChar

StartChar: U0C16
Encoding: 376 3094 27
Width: 491
GlyphClass: 2
Flags: HW
LayerCount: 2
Back
Fore
SplineSet
353 78 m 0
 407.750285164 78 434 117.845771793 434 175 c 0
 434 226.833461171 393.295104115 271 342 271 c 0
 324.081662864 271 308 281.653812941 308 298 c 0
 308 313.29972216 325.340977217 323 342 323 c 0
 417.753929416 323 466 238.364782964 466 160 c 0
 466 70.6743559959 429.721541316 -1 346 -1 c 0
 306.482162295 -1 276.071278673 21.5971850357 260 48 c 1
 234.994259645 19.2433985913 191.730784576 -2 139 -2 c 0
 78.2539210336 -2 15 35.1251578458 15 92 c 256
 15 150.503332777 75.9763815079 178 140 178 c 0
 192.207881823 178 234.513289275 159.705979776 258 131 c 1
 262.666666667 141 265 153 265 167 c 0
 265 214.755523544 245.719300145 259.426899952 211 271 c 1
 211.666666667 267.666666667 212 263 212 257 c 0
 212 213.828554249 161.081926912 188 115 188 c 0
 71.8369771975 188 29 205.379553166 29 245 c 0
 29 296.61949939 85.4898204381 319 144 319 c 0
 243.817633673 319 301 261.098020056 301 162 c 0
 301 157.333333333 298.333333333 144 293 122 c 1
 293 112 l 1
 301.920734041 92.8841413415 325.231293769 78 353 78 c 0
240 95 m 1
 227.686740722 120.994658476 191.386510256 137 152 137 c 0
 117.919914027 137 84 126.891774359 84 97 c 0
 84 67.9030113168 122.341418326 60 157 60 c 0
 193.787776442 60 219.893725975 74.8937259748 240 95 c 1
175 255 m 0
 175 273.333470289 157.969810414 287 138 287 c 0
 112.976559968 287 95 275.226304379 95 250 c 0
 95 231.397595901 116.829296927 220 137 220 c 0
 156.893153701 220 175 234.621394592 175 255 c 0
298 -56 m 0
 298 -79.2223736325 281.895423913 -94 258 -94 c 0
 233.283644883 -94 217 -80.4481657202 217 -56 c 0
 217 -27.4147383588 239.52997925 -1.47002075095 258 17 c 1
 277.622363967 1.30210882642 298 -26.5128863911 298 -56 c 0
EndSplineSet
Substitution2: "Single Substitution lookup 23 subtable" U0C16_U0C4D_U0C30
Substitution2: "Single Substitution lookup 22 subtable" U0C16.haln
MultipleSubs2: "Multiple Substitution lookup 19 subtable" U0C16_U0C46 U0C56
EndChar

StartChar: U0C17
Encoding: 377 3095 28
Width: 397
GlyphClass: 2
Flags: HW
LayerCount: 2
Back
Fore
SplineSet
327 470 m 0
 349.484300339 470 368 453.535946557 368 431 c 0
 368 390.147664838 270.245110256 325.933832692 241 304 c 1
 312.492606579 287.61627766 372 219.627199751 372 139 c 0
 372 76.061636142 361.716584622 8.16367582522 316 0 c 1
 288 0 l 2
 271.407881267 0 258 26.158443801 258 43 c 0
 258 87.9387631458 307 128.046038174 307 176 c 0
 307 237.447933811 256.055625894 273 193 273 c 0
 130.725535756 273 80 237.00188167 80 176 c 0
 80 128.312160424 130 88.3600278633 130 43 c 0
 130 27.4920875624 115.401942873 0 100 0 c 2
 86 0 l 1
 22.8868893614 -3.9445694149 15 71.2574812138 15 139 c 0
 15 209.150376566 56.2856894591 266.642844728 109 293 c 1
 78.7503107186 293 61 339.740547476 61 350 c 0
 61 375.016350053 75.5686236299 391 100 391 c 0
 131.314817765 391 149.843757549 310 179 310 c 0
 205.095454959 310 247.55406752 371.99596978 281 438 c 0
 291.738131849 459.191215986 300.550462038 470 327 470 c 0
EndSplineSet
Substitution2: "Single Substitution lookup 23 subtable" U0C17_U0C4D_U0C30
Substitution2: "Single Substitution lookup 22 subtable" U0C17.haln
MultipleSubs2: "Multiple Substitution lookup 19 subtable" U0C17_U0C46 U0C56
EndChar

StartChar: U0C18
Encoding: 378 3096 29
Width: 624
GlyphClass: 2
Flags: HW
LayerCount: 2
Back
Fore
SplineSet
200 146 m 0
 200 180.07623153 166.173652168 205 131 205 c 256
 95.5453466472 205 64 180.393876706 64 146 c 0
 64 106.090545212 93.3038185357 76 133 76 c 0
 176.768676912 76 200 103.06229303 200 146 c 0
56 393 m 0
 87.3374910195 393 105.869531102 310 135 310 c 0
 162.773617714 310 202.635555734 376.849206667 238 440 c 0
 249.477483166 461.911558773 256.411858449 473 284 473 c 0
 305.947130155 473 325 456.079953769 325 433 c 0
 325 401.759600518 265.167531339 362.979050353 240 340 c 0
 189.333333333 295.333333333 154.333333333 273 135 273 c 0
 90.9372938216 273 17 311.885390342 17 353 c 0
 17 377.560475952 30.1727422266 393 56 393 c 0
476 -2 m 0
 432.265134225 -2 403.548699729 19.1344209164 393 55 c 1
 380.56662861 17.6998858496 335.278032244 0 292 0 c 0
 257.932648134 0 226.032819332 25.3441081783 220 54 c 1
 207.88683719 25.2312383233 167.886539401 -1 128 -1 c 0
 65.775978643 -1 15 53.3283947864 15 116 c 0
 15 190.043055899 62.5548650577 239 138 239 c 0
 196.33441474 239 227.80982087 199.652042729 242 151 c 0
 257.333333333 105.666666667 281 83 313 83 c 0
 357.253200376 83 376 124.260089153 376 174 c 0
 376 215.967191408 338.717862309 252 295 252 c 0
 276.643528595 252 261 262.256736123 261 280 c 0
 261 299.909616597 271.779831293 310 292 310 c 0
 369.04445552 310 411 227.132193672 411 145 c 0
 411 131.666666667 410.333333333 119.666666667 409 109 c 1
 419.294709098 88.4105818075 448.302217962 76 475 76 c 0
 523.599023338 76 565 123.725358889 565 174 c 0
 565 222.674491133 529.708378135 262 481 262 c 0
 455.592319227 262 442 264.262128623 442 286 c 0
 442 303.655524294 458.489974869 310 478 310 c 0
 544.405611641 310 599 229.336040204 599 160 c 0
 599 70.2077885857 559.262429479 -2 476 -2 c 0
259 -64 m 256
 259 -87.3089687432 242.809655146 -102 219 -102 c 256
 193.972087802 -102 178 -89.3951841827 178 -65 c 256
 178 -35.9131963253 200.515538752 -11.6591037487 219 9 c 1
 236.003623158 -8.00362315843 259 -35.1652334689 259 -64 c 256
EndSplineSet
Substitution2: "Single Substitution lookup 23 subtable" U0C18_U0C4D_U0C30
Substitution2: "Single Substitution lookup 22 subtable" U0C18.haln
MultipleSubs2: "Multiple Substitution lookup 19 subtable" U0C18_U0C46 U0C56
EndChar

StartChar: U0C19
Encoding: 379 3097 30
Width: 422
GlyphClass: 2
Flags: HW
LayerCount: 2
Back
Fore
SplineSet
302 299 m 0
 302 289.937283605 285.094604297 265.126139064 276 253 c 1
 359 253 l 1
 359 217 l 1
 205 217 l 1
 197 191.666666667 169.333333333 172 122 158 c 0
 83.3333333333 146 64 130.666666667 64 112 c 0
 64 80.8158497291 98.4895529096 76 137 76 c 0
 167.06845244 76 202 104.841904623 202 135 c 0
 202 146.063645844 203.533846216 151 214 151 c 0
 223.151018266 151 225 141.580944399 225 131 c 0
 225 96.5742715058 247.238648848 79 284 79 c 0
 318.007443111 79 346 106.160114239 346 139 c 0
 346 159 341 176 331 190 c 0
 330.333333333 190 330 190.333333333 330 191 c 2
 330 192 l 2
 330 195.540870441 335.44994353 199 340 199 c 2
 344 199 l 2
 346 197.666666667 347.666666667 197 349 197 c 0
 378.291821297 184.184828182 397 150.246831531 397 109 c 0
 397 51.1406495584 352.081840294 0 295 0 c 0
 254.102444954 0 225.215935998 18.6113152046 210 46 c 1
 192.144629185 16.2410486425 161.961228295 0 117 0 c 0
 61.1110304715 0 15 38.587213108 15 92 c 0
 15 185.700572908 95.7239290652 164.47055389 155 203 c 0
 169.666666667 214.333333333 177 226 177 238 c 0
 177 267.846558519 158.597026773 285 128 285 c 0
 105.638841247 285 85 277.039104681 85 257 c 0
 85 252.300344548 93 237.747972659 93 232 c 0
 93 213.801041897 77.2161097824 208 58 208 c 0
 36.5255790686 208 20 228.001221437 20 250 c 0
 20 294.632315784 64.7558835265 323 113 323 c 0
 167.039558494 323 203.733155338 301.357572835 208 253 c 1
 267 253 l 1
 259.622908224 267.754183558 241 288.095385666 241 299 c 0
 241 318.909616597 252.472537793 329 272 329 c 0
 286.777778914 329 302 313.8826266 302 299 c 0
EndSplineSet
Substitution2: "Single Substitution lookup 23 subtable" U0C19_U0C4D_U0C30
Substitution2: "Single Substitution lookup 22 subtable" U0C19.haln
MultipleSubs2: "Multiple Substitution lookup 19 subtable" U0C19_U0C46 U0C56
EndChar

StartChar: U0C1A
Encoding: 380 3098 31
Width: 462
GlyphClass: 2
Flags: HW
LayerCount: 2
Back
Fore
SplineSet
395 470 m 0
 418.453117124 470 436 454.569443417 436 431 c 0
 436 390.359838829 344.940789099 332.833591023 316 309 c 1
 393.504723414 302.201340052 437 224.471326848 437 137 c 0
 437 66.2044795777 396.245481971 0 329 0 c 0
 293.741922091 0 265.219920964 18.1701185546 250 41 c 1
 231.072165396 17.0247428346 208.318418477 0 169 0 c 0
 110.739846875 0 65 36.9370195573 65 95 c 0
 65 122.739059641 78.5697364584 148.459716187 93 164 c 1
 43 164 l 2
 24.3333333334 164 15 169.228757247 15 188 c 0
 15 207.607276256 24.4171420752 215 45 215 c 2
 166 215 l 2
 181.309464176 215 194 207.108082752 194 193 c 0
 194 177.053739935 180.676648467 169 163 169 c 0
 130.885326649 169 110 156.057987102 110 125 c 0
 110 93.9398788726 142.941004882 79 176 79 c 0
 207.449783838 79 242 96.8262268046 242 125 c 0
 242 134.547907894 244.30647476 143 253 143 c 256
 262.051721894 143 265 134.401957793 265 125 c 0
 265 97.9340740175 291.905494788 80 320 80 c 0
 369.297476173 80 400 120.75891631 400 171 c 256
 400 230.834085412 351.634533597 273 291 273 c 2
 243 273 l 1
 200.217610141 274.296436057 129 310.029548054 129 350 c 0
 129 375.016350053 143.568623629 391 168 391 c 0
 198.118444295 391 218.418892606 310 247 310 c 0
 273.043932818 310 315.907374785 372.65580167 350 438 c 0
 361.304540729 458.553710416 368.777225142 470 395 470 c 0
EndSplineSet
Substitution2: "Single Substitution lookup 23 subtable" U0C1A_U0C4D_U0C30
Substitution2: "Single Substitution lookup 22 subtable" U0C1A.haln
MultipleSubs2: "Multiple Substitution lookup 19 subtable" U0C1A_U0C46 U0C56
EndChar

StartChar: U0C1B
Encoding: 381 3099 32
Width: 462
GlyphClass: 2
Flags: HW
LayerCount: 2
Back
Fore
SplineSet
290 -64 m 0
 290 -87.3089687432 273.809655146 -102 250 -102 c 0
 225.683775264 -102 209 -89.3951841827 209 -65 c 256
 209 -34.5117504705 231.28549457 -11.9162119515 250 9 c 1
 261.410655075 -16.6739739186 290 -31.6557213692 290 -64 c 0
397 470 m 0
 418.66712474 470 437 453.014603175 437 431 c 0
 437 390.202295379 345.111544315 330.187453705 315 308 c 1
 400.686085586 298.652427027 437 235.47676047 437 137 c 0
 437 66.2044795777 396.245481971 0 329 0 c 0
 293.741922091 0 265.219920964 18.1701185546 250 41 c 1
 231.072165396 17.0247428346 208.318418477 0 169 0 c 0
 110.739846875 0 65 36.9370195573 65 95 c 0
 65 122.739059641 78.5697364584 148.459716187 93 164 c 1
 43 164 l 2
 24.3333333334 164 15 169.228757247 15 188 c 0
 15 207.607276256 24.4171420752 215 45 215 c 2
 166 215 l 2
 181.309464176 215 194 207.108082752 194 193 c 0
 194 177.053739935 180.676648467 169 163 169 c 0
 130.885326649 169 110 156.057987102 110 125 c 0
 110 93.9398788726 142.941004882 79 176 79 c 0
 207.449783838 79 242 96.8262268046 242 125 c 0
 242 134.547907894 244.30647476 143 253 143 c 256
 262.051721894 143 265 134.401957793 265 125 c 0
 265 97.9340740175 291.905494788 80 320 80 c 0
 369.297476173 80 400 120.75891631 400 171 c 256
 400 230.834085412 351.634533597 273 291 273 c 2
 242 273 l 1
 199.932583952 275.629213502 130 310.164444159 130 350 c 0
 130 375.016350053 145.181640054 391 169 391 c 0
 200.314817765 391 218.843757549 310 248 310 c 0
 275.162259934 310 316.926588035 372.692627067 351 438 c 0
 362.55744326 459.013533201 369.769359375 470 397 470 c 0
EndSplineSet
Substitution2: "Single Substitution lookup 23 subtable" U0C1B_U0C4D_U0C30
Substitution2: "Single Substitution lookup 22 subtable" U0C1B.haln
MultipleSubs2: "Multiple Substitution lookup 19 subtable" U0C1B_U0C46 U0C56
EndChar

StartChar: U0C1C
Encoding: 382 3100 33
Width: 414
GlyphClass: 2
Flags: HW
LayerCount: 2
Back
Fore
SplineSet
295 3 m 0
 256.02483887 3 225.05583371 19.0596520566 211 46 c 1
 194.710749336 16.3831806088 159.441075091 0 115 0 c 256
 61.0204375634 0 15 37.5049788745 15 90 c 0
 15 150.479092245 51.9590189713 172.090564214 110 182 c 0
 136.949313328 185.515127826 174 206.971453835 174 234 c 0
 174 263.332084895 155.341388943 280 126 280 c 0
 104.30148071 280 84 271.676304388 84 253 c 0
 84 248.899733208 91 233.042554363 91 227 c 0
 91 209.478423036 77.2374623319 205 57 205 c 0
 37.3874423388 205 20 224.433550428 20 245 c 0
 20 290.470683734 65.4751275209 317 112 317 c 0
 161.859064179 317 193.836167644 293.262507547 205 252 c 0
 213.291611517 221.353473621 239.30941544 206 279 206 c 0
 300.850353556 206 320 219.502972776 320 241 c 0
 320 257.186264114 308.017812375 269 293 269 c 0
 282.660052015 269 268.812989223 266 260 266 c 0
 240.992438254 266 225 274.02840179 225 291 c 0
 225 312.63423617 251.271169286 319 277 319 c 0
 321.17332812 319 365 292.364686987 365 250 c 0
 365 208.685723016 327.075647219 178 284 178 c 0
 246.268039444 178 215.771250622 186.433540942 199 206 c 1
 189 184.666666667 163 167.666666667 121 155 c 0
 82.3333333333 143 63 128 63 110 c 0
 63 81.9092914112 88.5424513443 74 119 74 c 0
 157.373197904 74 198 96.5703459316 198 132 c 0
 198 142.379402501 200.887622206 148 211 148 c 0
 219.128777801 148 221 137.837286994 221 128 c 0
 221 96.8704939755 246.184775331 77 279 77 c 0
 314.181916439 77 346 91.6926680514 346 124 c 0
 346 137.810192472 332 142.640634552 332 153 c 0
 332 158.393772213 336.700605097 161 341 161 c 0
 374.842643695 161 389 129.105585223 389 93 c 0
 389 42.0730884033 345.890806764 3 295 3 c 0
EndSplineSet
Substitution2: "Single Substitution lookup 23 subtable" U0C1C_U0C4D_U0C30
Substitution2: "Single Substitution lookup 22 subtable" U0C1C.haln
MultipleSubs2: "Multiple Substitution lookup 19 subtable" U0C1C_U0C46 U0C56
EndChar

StartChar: U0C1D
Encoding: 383 3101 34
Width: 752
GlyphClass: 2
Flags: HW
LayerCount: 2
Back
Fore
SplineSet
305 183 m 0
 305 239.981762755 249.307523704 273 189 273 c 0
 119.819117256 273 71 238.053883433 71 171 c 0
 71 106.213958925 122.030903842 74 189 74 c 0
 252.269744744 74 305 119.230525367 305 183 c 0
557 -56 m 256
 557 -79.3089687432 540.809655146 -94 517 -94 c 0
 492.388561766 -94 476 -80.3254516404 476 -56 c 0
 476 -27.5587516293 499.098150611 -3.00794931821 517 17 c 1
 535.092001233 2.52639901342 557 -27.5301237889 557 -56 c 256
15 151 m 0
 15 217.879043215 52.6997721477 269.987899746 105 293 c 1
 105 295 l 1
 75 311 58 329.333333333 58 350 c 0
 58 375.016350053 73.1816400541 391 97 391 c 0
 128.314817765 391 146.843757549 310 176 310 c 0
 203.162259934 310 244.926588035 372.692627067 279 438 c 0
 290.55744326 459.013533201 297.769359375 470 325 470 c 0
 347.385761207 470 365 453.014603175 365 431 c 0
 365 388.631517234 268.376448963 326.782336723 238 304 c 1
 304.358800453 286.620314168 353 228.781735865 353 151 c 0
 353 137 351.666666667 123.666666667 349 111 c 1
 362.872897181 87.8785047001 389.460291595 76 423 76 c 0
 471.981321912 76 504 121.277281284 504 174 c 0
 504 223.11797969 468.286837731 273 420 273 c 0
 395.197604696 273 381 270.607201662 381 290 c 256
 381 307.782894816 394.617350172 310 416 310 c 0
 482.571932753 310 538 229.944966939 538 160 c 0
 538 142.666666667 536.666666667 126.666666667 534 112 c 1
 545.921164236 90.5419043738 572.296855089 76 602 76 c 0
 651.413148453 76 692 123.725358889 692 174 c 0
 692 223.768562022 657.742683671 262 608 262 c 0
 583.538958175 262 569 265.063894622 569 286 c 0
 569 302.821913209 586.359822167 310 605 310 c 0
 671.571932753 310 727 229.944966939 727 160 c 0
 727 70.8892671705 685.945162415 -2 603 -2 c 0
 556.397091004 -2 526.818400025 23.4353598814 518 64 c 1
 501.212888474 22.0322211751 460.720261597 0 415 0 c 0
 373.35322711 0 337.42644879 24.6365951072 320 57 c 1
 294.779553039 19.1693295625 240.376413964 0 189 0 c 0
 94.1152546742 0 15 58.6906619111 15 151 c 0
EndSplineSet
Substitution2: "Single Substitution lookup 23 subtable" U0C1D_U0C4D_U0C30
Substitution2: "Single Substitution lookup 22 subtable" U0C1D.haln
MultipleSubs2: "Multiple Substitution lookup 19 subtable" U0C1D_U0C46 U0C56
EndChar

StartChar: U0C1E
Encoding: 384 3102 35
Width: 533
GlyphClass: 2
Flags: HW
LayerCount: 2
Back
Fore
SplineSet
462 280 m 0
 462 269.652124638 448.762073628 247.219317805 438 230 c 1
 508 230 l 1
 508 194 l 1
 383 194 l 1
 384.333333333 191.333333333 385 187.333333333 385 182 c 0
 385 149.333333333 374 118.333333333 352 89 c 1
 374 57.6666666667 385 26.3333333333 385 -5 c 0
 385 -42.0412886423 375.281805343 -70 342 -70 c 0
 315.3736796 -70 304 -54.5204789387 304 -28 c 0
 304 -12.9991946306 317 18.0758038236 317 32 c 0
 317 37.3333333333 316 44.3333333333 314 53 c 1
 279.867198104 21.1427182304 225.938459377 -5 163 -5 c 0
 91.9247644733 -5 27 24.6097853532 27 90 c 0
 27 149.195038065 102.757712334 180 168 180 c 0
 231.642345498 180 293.056938432 154.428760712 327 123 c 1
 337.666666667 144.333333333 343 167 343 191 c 0
 343 237.243413565 311.934956821 280 268 280 c 0
 243.382710857 280 221 267.113509596 221 245 c 0
 221 226.862987967 216.130737189 222 198 222 c 0
 185.06975004 222 181 228.629863344 181 243 c 0
 181 262.09211197 156.326811466 280 136 280 c 0
 106.515949763 280 84 267.489074 84 239 c 0
 84 207.516924948 76.5567687068 193 46 193 c 0
 26.2541342143 193 15 213.164166897 15 234 c 0
 15 286.170837436 64.4420805195 319 118 319 c 0
 155.951016219 319 187.819437138 294.300938103 203 269 c 1
 209.049114991 296.221017455 241.023619093 317 274 317 c 0
 328.454049719 317 365.408791961 277.523952956 377 230 c 1
 427 230 l 1
 415.092350732 247.861473903 403 267.120783022 403 280 c 0
 403 296.164335546 415.860609881 305 433 305 c 256
 450.255176336 305 462 295.921533772 462 280 c 0
295 95 m 1
 280.123817378 126.104745484 229.685058557 144 182 144 c 0
 147.842854013 144 117 129.286568618 117 98 c 0
 117 69.6807584948 154.712255206 59 187 59 c 0
 232.369000811 59 270.726162943 72.8369313827 295 95 c 1
EndSplineSet
Substitution2: "Single Substitution lookup 23 subtable" U0C1E_U0C4D_U0C30
Substitution2: "Single Substitution lookup 22 subtable" U0C1E.haln
MultipleSubs2: "Multiple Substitution lookup 19 subtable" U0C1E_U0C46 U0C56
EndChar

StartChar: U0C1F
Encoding: 385 3103 36
Width: 440
GlyphClass: 2
Flags: HW
LayerCount: 2
Back
Fore
SplineSet
88 257 m 0
 88 239.536617716 106.346882686 226 125 226 c 0
 146.216572412 226 164 237.026144022 164 257 c 0
 164 278.024232193 147.347765388 290 125 290 c 0
 106.306997532 290 88 275.872521916 88 257 c 0
415 162 m 0
 415 71.5061024679 377.980853833 0 295 0 c 0
 261.097401123 0 226.714254538 18.1143418325 214 41 c 1
 194.365683639 16.457104549 173.640942496 -1 134 -1 c 0
 45.0544537874 -1 15 77.3172617879 15 174 c 0
 15 250.371808851 62.88418159 321 136 321 c 0
 175.423234079 321 211 289.062147645 211 250 c 256
 211 208.207296761 174.179736421 178 131 178 c 0
 94.1661881453 178 69.1033504599 202.338557057 64 235 c 1
 56.6666666667 214.333333333 53 197.666666667 53 185 c 0
 53 117.680211842 79.3039596617 81 145 81 c 0
 173.046293034 81 206 100.04318004 206 125 c 0
 206 134.547907894 208.30647476 143 217 143 c 0
 225.133793075 143 228 133.671622599 228 125 c 0
 228 95.6173449631 261.784369304 81 293 81 c 0
 347.18976363 81 379 120.06046175 379 176 c 0
 379 218.657895811 340.944014494 252 297 252 c 0
 279.351718666 252 263 262.256736123 263 280 c 0
 263 300.415227115 274.642125296 310 295 310 c 0
 362.590537686 310 415 233.649612714 415 162 c 0
130 435 m 0
 153.811695466 435 170 420.319236334 170 397 c 0
 170 367.361507269 145.037130827 342.796413534 130 324 c 1
 110.775944184 344.292058917 89 368.055060856 89 398 c 256
 89 422.398466332 105.686150598 435 130 435 c 0
EndSplineSet
Substitution2: "Single Substitution lookup 23 subtable" U0C1F_U0C4D_U0C30
Substitution2: "Single Substitution lookup 22 subtable" U0C1F.haln
MultipleSubs2: "Multiple Substitution lookup 19 subtable" U0C1F_U0C46 U0C56
EndChar

StartChar: U0C20
Encoding: 386 3104 37
Width: 390
GlyphClass: 2
Flags: HW
LayerCount: 2
Back
Fore
SplineSet
221 190 m 0
 221 173.037497613 204.240711421 157 187 157 c 256
 169.958199699 157 155 174.123693845 155 190 c 0
 155 206.771198063 169.417345379 222 187 222 c 256
 204.784830969 222 221 207.843118789 221 190 c 0
302 183 m 0
 302 239.495574334 245.179964406 273 185 273 c 0
 121.007764532 273 69 240.424218761 69 179 c 0
 69 105.949245098 110.397275637 74 185 74 c 0
 249.089571611 74 302 118.742186418 302 183 c 0
325 470 m 0
 347.385761207 470 365 453.014603175 365 431 c 0
 365 388.631517234 268.376448963 326.782336723 238 304 c 1
 304.358800453 286.620314168 353 228.781735865 353 151 c 0
 353 61.0782636614 279.498029794 0 189 0 c 0
 94.1152546742 0 15 58.6906619111 15 151 c 0
 15 217.879043215 52.6997721477 269.987899746 105 293 c 1
 105 295 l 1
 75 311 58 329.333333333 58 350 c 0
 58 375.016350053 73.1816400541 391 97 391 c 0
 128.314817765 391 146.843757549 310 176 310 c 0
 203.162259934 310 244.926588035 372.692627067 279 438 c 0
 290.55744326 459.013533201 297.769359375 470 325 470 c 0
EndSplineSet
Substitution2: "Single Substitution lookup 23 subtable" U0C20_U0C4D_U0C30
Substitution2: "Single Substitution lookup 22 subtable" U0C20.haln
MultipleSubs2: "Multiple Substitution lookup 19 subtable" U0C20_U0C46 U0C56
EndChar

StartChar: U0C21
Encoding: 387 3105 38
Width: 419
GlyphClass: 2
Flags: HW
LayerCount: 2
Back
Fore
SplineSet
346 162 m 0
 346 173.618804464 331.016676589 184 318 184 c 256
 304.978028787 184 292 174.324104104 292 162 c 256
 292 149.917178273 303.561483428 139 316 139 c 0
 331.599834991 139 346 148.022329984 346 162 c 0
337 470 m 0
 360.453117124 470 378 454.569443417 378 431 c 0
 378 390.147664838 280.245110256 325.933832692 251 304 c 1
 287.256972125 295.942895082 336 274.626585097 336 247 c 0
 336 231.41672176 325.890423004 226 309 226 c 1
 314.333333333 226 303.666666667 231.333333333 277 242 c 1
 257.666666667 262.666666667 229.666666667 273 193 273 c 0
 122.935622332 273 56 230.195680074 56 164 c 0
 56 111.191751797 84.8945255915 81 138 81 c 0
 166.103533483 81 200 100.533502877 200 125 c 0
 200 134.547907894 201.765079254 143 211 143 c 0
 219.2353405 143 221 134.226832775 221 125 c 0
 221 96.2726995808 255.622302128 76 286 76 c 0
 329.674261845 76 365 93.0458434461 365 134 c 0
 365 137.333333333 364.666666667 143 364 151 c 1
 360.480109909 126.360769363 336.739034525 109 308 109 c 0
 276.997727195 109 248 127.944549661 248 159 c 0
 248 193.146934519 278.753884867 209 316 209 c 0
 363.60205273 209 394 166.312165897 394 118 c 0
 394 48.4491132882 352.550237138 0 284 0 c 0
 244.554809431 0 222.747457928 19.7340389723 208 48 c 1
 191.226625127 16.8494466625 166.41933111 0 121 0 c 0
 54.6442383825 0 15 63.0508908968 15 131 c 0
 15 207.476242028 56.0147587157 269.561568367 116 294 c 0
 116 294.666666667 115.666666667 295 115 295 c 0
 85.6666666667 311 71 329.333333333 71 350 c 0
 71 375.016350053 85.5686236299 391 110 391 c 0
 140.118444295 391 160.418892606 310 189 310 c 0
 215.043932818 310 257.907374785 372.65580167 292 438 c 0
 302.235893389 458.471786776 311.063194803 470 337 470 c 0
EndSplineSet
Substitution2: "Single Substitution lookup 23 subtable" U0C21_U0C4D_U0C30
Substitution2: "Single Substitution lookup 22 subtable" U0C21.haln
MultipleSubs2: "Multiple Substitution lookup 19 subtable" U0C21_U0C46 U0C56
EndChar

StartChar: U0C22
Encoding: 388 3106 39
Width: 419
GlyphClass: 2
Flags: HW
LayerCount: 2
Back
Fore
SplineSet
346 162 m 0
 346 173.618804464 331.016676589 184 318 184 c 256
 304.978028787 184 292 174.324104104 292 162 c 256
 292 149.917178273 303.561483428 139 316 139 c 0
 331.599834991 139 346 148.022329984 346 162 c 0
248 -64 m 0
 248 -87.3089687432 231.809655146 -102 208 -102 c 0
 183.914333012 -102 167 -88.4540279718 167 -65 c 256
 167 -35.9131963253 189.515538752 -11.6591037487 208 9 c 1
 219.410655075 -16.6739739186 248 -31.6557213692 248 -64 c 0
337 470 m 0
 360.453117124 470 378 454.569443417 378 431 c 0
 378 390.147664838 280.245110256 325.933832692 251 304 c 1
 287.256972125 295.942895082 336 274.626585097 336 247 c 0
 336 231.41672176 325.890423004 226 309 226 c 1
 314.333333333 226 303.666666667 231.333333333 277 242 c 1
 257.666666667 262.666666667 229.666666667 273 193 273 c 0
 122.935622332 273 56 230.195680074 56 164 c 0
 56 111.191751797 84.8945255915 81 138 81 c 0
 166.103533483 81 200 100.533502877 200 125 c 0
 200 134.547907894 201.765079254 143 211 143 c 0
 219.2353405 143 221 134.226832775 221 125 c 0
 221 96.2726995808 255.622302128 76 286 76 c 0
 329.674261845 76 365 93.0458434461 365 134 c 0
 365 137.333333333 364.666666667 143 364 151 c 1
 360.480109909 126.360769363 336.739034525 109 308 109 c 0
 276.997727195 109 248 127.944549661 248 159 c 0
 248 193.146934519 278.753884867 209 316 209 c 0
 363.60205273 209 394 166.312165897 394 118 c 0
 394 48.4491132882 352.550237138 0 284 0 c 0
 244.554809431 0 222.747457928 19.7340389723 208 48 c 1
 191.226625127 16.8494466625 166.41933111 0 121 0 c 0
 54.6442383825 0 15 63.0508908968 15 131 c 0
 15 207.476242028 56.0147587157 269.561568367 116 294 c 0
 116 294.666666667 115.666666667 295 115 295 c 0
 85.6666666667 311 71 329.333333333 71 350 c 0
 71 375.016350053 85.5686236299 391 110 391 c 0
 140.118444295 391 160.418892606 310 189 310 c 0
 215.043932818 310 257.907374785 372.65580167 292 438 c 0
 302.235893389 458.471786776 311.063194803 470 337 470 c 0
EndSplineSet
Substitution2: "Single Substitution lookup 23 subtable" U0C22_U0C4D_U0C30
Substitution2: "Single Substitution lookup 22 subtable" U0C22.haln
MultipleSubs2: "Multiple Substitution lookup 19 subtable" U0C22_U0C46 U0C56
EndChar

StartChar: U0C23
Encoding: 389 3107 40
Width: 446
GlyphClass: 2
Flags: HW
LayerCount: 2
Back
Fore
SplineSet
359 119 m 0
 359 142.36832809 338.217670643 160 316 160 c 0
 288.794954392 160 271 146.436244918 271 120 c 0
 271 93.4375426632 289.771225672 76 317 76 c 0
 342.577944986 76 359 93.3478026209 359 119 c 0
421 153 m 0
 421 71.697228009 390.405373318 0 316 0 c 0
 260.709036172 0 226 37.5422988122 226 94 c 0
 226 148.76511676 259.350476049 190 312 190 c 0
 341.34733279 190 365.386520981 175.15130536 379 157 c 1
 379 220.0873043 339.19833029 273 277 273 c 0
 246.07136064 273 203 246.937901036 203 216 c 2
 203 208 l 2
 203 201.996792853 197.285330934 199 191 199 c 0
 185.278637785 199 182 202.928608752 182 208 c 2
 182 214 l 2
 182 245.379616015 158.273591688 273 128 273 c 0
 99.3844275851 273 77 252.498068828 77 224 c 0
 77 206.455687278 95.9297534541 185 112 185 c 2
 122 185 l 2
 129.511633637 185 134 178.455468402 134 172 c 0
 134 165.053269935 128.555179114 159 122 159 c 2
 112 159 l 2
 81.6344741501 159 59 146.680689138 59 118 c 0
 59 82.9785210257 76.8247369215 67 115 67 c 0
 140.734913082 67 158 83.6232296329 158 109 c 0
 158 117 162.718971792 121 170 121 c 0
 187.476981646 121 191 102.086180836 191 82 c 0
 191 36.094589142 154.714070044 0 109 0 c 0
 55.4486722259 0 15 32.4189985689 15 86 c 0
 15 129.44336745 30.3006742896 159.208614287 61 172 c 1
 40.1305038183 180.115915182 26 200.467195262 26 229 c 0
 26 282.084318803 69.0287632323 310 124 310 c 0
 159.097183559 310 184.762708993 288.457636689 193 261 c 1
 201.941229192 289.313892443 246.300913421 310 284 310 c 0
 366.125097426 310 421 237.673570333 421 153 c 0
EndSplineSet
Substitution2: "Single Substitution lookup 23 subtable" U0C23_U0C4D_U0C30
Substitution2: "Single Substitution lookup 22 subtable" U0C23.haln
MultipleSubs2: "Multiple Substitution lookup 19 subtable" U0C23_U0C46 U0C56
EndChar

StartChar: U0C24
Encoding: 390 3108 41
Width: 434
GlyphClass: 2
Flags: HW
LayerCount: 2
Back
Fore
SplineSet
341 205 m 256
 341 221 328.281079452 229 311 229 c 0
 291.776677218 229 274 219.307189312 274 202 c 0
 274 186.928265087 288.431865524 175 304 175 c 0
 324.438352296 175 341 186.08549613 341 205 c 256
147 197 m 0
 147 216.996853906 130.810468686 225 110 225 c 0
 91.6536653459 225 74 214.03547049 74 197 c 0
 74 179.157155918 93.1261539569 166 112 166 c 0
 130.753303421 166 147 178.793665536 147 197 c 0
367 467 m 0
 388.124914673 467 407 448.843152951 407 427 c 0
 407 409.666666667 394.492255345 389.560987253 367.286127168 369.60982659 c 2
 286 310 l 1
 324.416631834 306.926669454 359.07154707 272.0948431 369 239 c 1
 393.076872465 225.623959741 409 186.378419511 409 148 c 0
 409 38.5007413718 318.260757042 0 200 0 c 0
 100.991599914 0 15 43.8906681662 15 136 c 0
 15 207.150689348 54.5499470841 253 124 253 c 0
 159.627242875 253 193 229.36275485 193 195 c 0
 193 156.350823266 160.339787045 133 119 133 c 0
 86.5357686126 133 61.1202454047 147.759509191 50 170 c 1
 50 157 l 2
 50 88.3243152693 125.04559526 74 206 74 c 0
 291.519938664 74 376 91.9153612875 376 165 c 0
 376 172.333333333 375 180 373 188 c 1
 362.351161335 162.709008168 330.070839386 145 295 145 c 0
 259.395845926 145 227 161.869017794 227 195 c 0
 227 235.522911944 259.487106062 255 302 255 c 0
 311.333333333 255 318 254.333333333 322 253 c 1
 311.420769144 266.224038572 287.397312484 273 262 273 c 2
 211 273 l 1
 167.924697129 275.692206429 100 307.204753215 100 347 c 0
 100 371.4435075 114.562363374 387 139 387 c 0
 170.286739569 387 188.785155096 310 218 310 c 0
 244.779099685 310 283.938154107 367.288677392 321 434 c 0
 332.336408747 454.611652267 340.538066621 467 367 467 c 0
EndSplineSet
Substitution2: "Single Substitution lookup 23 subtable" U0C24_U0C4D_U0C30
Substitution2: "Single Substitution lookup 22 subtable" U0C24.haln
MultipleSubs2: "Multiple Substitution lookup 19 subtable" U0C24_U0C46 U0C56
EndChar

StartChar: U0C25
Encoding: 391 3109 42
Width: 417
GlyphClass: 2
Flags: HW
LayerCount: 2
Back
Fore
SplineSet
233 199 m 0
 233 182.055440376 216.117463743 165 198 165 c 256
 179.633470829 165 163 181.01632119 163 199 c 0
 163 217.816905466 179.107274406 234 198 234 c 256
 217.144216636 234 233 218.869279892 233 199 c 0
203 137 m 0
 213.459698817 137 217 129.999250636 217 120 c 0
 217 92.586766599 246.920364338 77 276 77 c 0
 323.14935159 77 346 108.767698972 346 157 c 0
 346 223.369113392 273.40073455 273 203 273 c 0
 133.339626912 273 61 222.905168788 61 157 c 0
 61 108.758212481 83.1923043154 77 131 77 c 0
 160.087634833 77 190 92.5707667055 190 120 c 0
 190 130.111848071 193.408796224 137 203 137 c 0
244 -64 m 0
 244 -86.7126238494 227.376246344 -102 203 -102 c 0
 178.559956895 -102 163 -89.8703361593 163 -65 c 256
 163 -35.1812467707 184.376111077 -11.8149346793 203 9 c 1
 215.974620498 -14.3543168964 244 -32.6748211371 244 -64 c 0
348 470 m 0
 370.484300339 470 389 453.535946557 389 431 c 0
 389 388.868840062 289.096295042 324.930510509 259 302 c 1
 331.423151833 283.50898251 392 219.865177654 392 137 c 0
 392 61.954166676 348.023728962 0 276 0 c 0
 243.109294519 0 216.510257935 18.1205104639 203 39 c 1
 190.515960184 17.7771323148 163.467646135 0 131 0 c 0
 58.9832459909 0 15 61.9657226624 15 137 c 0
 15 208.394743527 65.6862155752 272.039825384 125 295 c 1
 96.3333333333 311.666666667 82 330 82 350 c 0
 82 375.016350053 96.5686236296 391 121 391 c 0
 151.118444295 391 171.418892606 310 200 310 c 0
 226.095454959 310 268.55406752 371.99596978 302 438 c 0
 312.738131849 459.191215986 321.550462038 470 348 470 c 0
EndSplineSet
Substitution2: "Single Substitution lookup 23 subtable" U0C25_U0C4D_U0C30
Substitution2: "Single Substitution lookup 22 subtable" U0C25.haln
MultipleSubs2: "Multiple Substitution lookup 19 subtable" U0C25_U0C46 U0C56
EndChar

StartChar: U0C26
Encoding: 392 3110 43
Width: 417
GlyphClass: 2
Flags: HW
LayerCount: 2
Back
Fore
SplineSet
203 137 m 0
 213.459698817 137 217 129.999250636 217 120 c 0
 217 92.586766599 246.920364338 77 276 77 c 0
 323.14935159 77 346 108.767698972 346 157 c 0
 346 223.369113392 273.40073455 273 203 273 c 0
 133.339626912 273 61 222.905168788 61 157 c 0
 61 108.758212481 83.1923043154 77 131 77 c 0
 160.087634833 77 190 92.5707667055 190 120 c 0
 190 130.111848071 193.408796224 137 203 137 c 0
348 470 m 0
 370.484300339 470 389 453.535946557 389 431 c 0
 389 388.868840062 289.096295042 324.930510509 259 302 c 1
 331.423151833 283.50898251 392 219.865177654 392 137 c 0
 392 61.954166676 348.023728962 0 276 0 c 0
 243.109294519 0 216.510257935 18.1205104639 203 39 c 1
 190.515960184 17.7771323148 163.467646135 0 131 0 c 0
 58.9832459909 0 15 61.9657226624 15 137 c 0
 15 208.394743527 65.6862155752 272.039825384 125 295 c 1
 96.3333333333 311.666666667 82 330 82 350 c 0
 82 375.016350053 96.5686236296 391 121 391 c 0
 151.118444295 391 171.418892606 310 200 310 c 0
 226.095454959 310 268.55406752 371.99596978 302 438 c 0
 312.738131849 459.191215986 321.550462038 470 348 470 c 0
EndSplineSet
Substitution2: "Single Substitution lookup 23 subtable" U0C26_U0C4D_U0C30
Substitution2: "Single Substitution lookup 22 subtable" U0C26.haln
MultipleSubs2: "Multiple Substitution lookup 19 subtable" U0C26_U0C46 U0C56
EndChar

StartChar: U0C27
Encoding: 393 3111 44
Width: 417
GlyphClass: 2
Flags: HW
LayerCount: 2
Back
Fore
SplineSet
203 137 m 0
 213.459698817 137 217 129.999250636 217 120 c 0
 217 92.586766599 246.920364338 77 276 77 c 0
 323.14935159 77 346 108.767698972 346 157 c 0
 346 223.369113392 273.40073455 273 203 273 c 0
 133.339626912 273 61 222.905168788 61 157 c 0
 61 108.758212481 83.1923043154 77 131 77 c 0
 160.087634833 77 190 92.5707667055 190 120 c 0
 190 130.111848071 193.408796224 137 203 137 c 0
244 -64 m 0
 244 -86.7126238494 227.376246344 -102 203 -102 c 0
 178.559956895 -102 163 -89.8703361593 163 -65 c 256
 163 -35.1812467707 184.376111077 -11.8149346793 203 9 c 1
 215.974620498 -14.3543168964 244 -32.6748211371 244 -64 c 0
348 470 m 0
 370.484300339 470 389 453.535946557 389 431 c 0
 389 388.868840062 289.096295042 324.930510509 259 302 c 1
 331.423151833 283.50898251 392 219.865177654 392 137 c 0
 392 61.954166676 348.023728962 0 276 0 c 0
 243.109294519 0 216.510257935 18.1205104639 203 39 c 1
 190.515960184 17.7771323148 163.467646135 0 131 0 c 0
 58.9832459909 0 15 61.9657226624 15 137 c 0
 15 208.394743527 65.6862155752 272.039825384 125 295 c 1
 96.3333333333 311.666666667 82 330 82 350 c 0
 82 375.016350053 96.5686236296 391 121 391 c 0
 151.118444295 391 171.418892606 310 200 310 c 0
 226.095454959 310 268.55406752 371.99596978 302 438 c 0
 312.738131849 459.191215986 321.550462038 470 348 470 c 0
EndSplineSet
Substitution2: "Single Substitution lookup 23 subtable" U0C27_U0C4D_U0C30
Substitution2: "Single Substitution lookup 22 subtable" U0C27.haln
MultipleSubs2: "Multiple Substitution lookup 19 subtable" U0C27_U0C46 U0C56
EndChar

StartChar: U0C28
Encoding: 394 3112 45
Width: 438
GlyphClass: 2
Flags: HW
LayerCount: 2
Back
Fore
SplineSet
332 431 m 0
 332 392.569600271 235.807136225 328.429906153 209 310 c 1
 274 310 l 2
 360.182373141 310 413 234.536818536 413 146 c 0
 413 62.0889921635 367.936922805 0 286 0 c 0
 232.292802958 0 185 34.9227053875 185 86 c 0
 185 103.730762857 193 131.163220938 193 152 c 256
 193 178.024022062 165.978889165 197 140 197 c 0
 100.950903059 197 80 171.992537804 80 132 c 0
 80 93.5454845918 127 67.8958980877 127 33 c 0
 127 18.9031704885 111.690595543 0 99 0 c 0
 37.6949949747 0 15 38.6449699086 15 104 c 0
 15 180.90078537 63.2551737783 231 140 231 c 0
 193.761607446 231 235.059743928 194.454481279 238 143 c 0
 240.885767842 99.7134823628 254.690892291 77 298 77 c 0
 353.470912246 77 374 117.634545801 374 176 c 0
 374 230.802890109 331.822878927 273 276 273 c 2
 140 273 l 2
 96.5528624381 273 24 311.961347981 24 352 c 0
 24 375.726250794 38.1623655609 391 63 391 c 0
 94.3148177655 391 112.843757549 310 142 310 c 0
 167.757900644 310 212.025413916 373.050827833 245 439 c 0
 256.336408747 459.611652267 264.538066621 472 291 472 c 0
 313.484300339 472 332 454.202630306 332 431 c 0
EndSplineSet
Substitution2: "Single Substitution lookup 23 subtable" U0C28_U0C4D_U0C30
Substitution2: "Single Substitution lookup 22 subtable" U0C28.haln
MultipleSubs2: "Multiple Substitution lookup 19 subtable" U0C28_U0C46 U0C56
EndChar

StartChar: U0C2A
Encoding: 395 3114 46
Width: 436
GlyphClass: 2
Flags: HW
LayerCount: 2
Back
Fore
SplineSet
200 146 m 0
 200 180.07623153 166.173652168 205 131 205 c 256
 95.5453466472 205 64 180.393876706 64 146 c 0
 64 106.090545212 93.3038185357 76 133 76 c 0
 176.768676912 76 200 103.06229303 200 146 c 0
56 393 m 0
 87.3374910195 393 105.869531102 310 135 310 c 0
 162.773617714 310 202.635555734 376.849206667 238 440 c 0
 249.477483166 461.911558773 256.411858449 473 284 473 c 0
 305.947130155 473 325 456.079953769 325 433 c 0
 325 401.759600518 265.167531339 362.979050353 240 340 c 0
 189.333333333 295.333333333 154.333333333 273 135 273 c 0
 90.9372938216 273 17 311.885390342 17 353 c 0
 17 377.560475952 30.1727422266 393 56 393 c 0
292 0 m 0
 257.932648134 0 226.032819332 25.3441081783 220 54 c 1
 207.88683719 25.2312383233 167.886539401 -1 128 -1 c 0
 65.775978643 -1 15 53.3283947864 15 116 c 0
 15 190.043055899 62.5548650577 239 138 239 c 0
 196.33441474 239 227.80982087 199.652042729 242 151 c 0
 257.333333333 105.666666667 281 83 313 83 c 0
 357.253200376 83 376 124.260089153 376 174 c 0
 376 215.967191408 338.717862309 252 295 252 c 0
 276.643528595 252 261 262.256736123 261 280 c 0
 261 299.909616597 271.779831293 310 292 310 c 0
 369.04445552 310 411 227.132193672 411 145 c 0
 411 56.5692501938 375.753587666 0 292 0 c 0
EndSplineSet
Substitution2: "Single Substitution lookup 23 subtable" U0C2A_U0C4D_U0C30
Substitution2: "Single Substitution lookup 22 subtable" U0C2A.haln
MultipleSubs2: "Multiple Substitution lookup 19 subtable" U0C2A_U0C46 U0C56
EndChar

StartChar: U0C2B
Encoding: 396 3115 47
Width: 436
GlyphClass: 2
Flags: HW
LayerCount: 2
Back
Fore
SplineSet
200 146 m 0
 200 180.07623153 166.173652168 205 131 205 c 256
 95.5453466472 205 64 180.393876706 64 146 c 0
 64 106.090545212 93.3038185357 76 133 76 c 0
 176.768676912 76 200 103.06229303 200 146 c 0
56 393 m 0
 87.3374910195 393 105.869531102 310 135 310 c 0
 162.773617714 310 202.635555734 376.849206667 238 440 c 0
 249.477483166 461.911558773 256.411858449 473 284 473 c 0
 305.947130155 473 325 456.079953769 325 433 c 0
 325 401.759600518 265.167531339 362.979050353 240 340 c 0
 189.333333333 295.333333333 154.333333333 273 135 273 c 0
 90.9372938216 273 17 311.885390342 17 353 c 0
 17 377.560475952 30.1727422266 393 56 393 c 0
259 -64 m 256
 259 -87.3089687432 242.809655146 -102 219 -102 c 256
 193.972087802 -102 178 -89.3951841827 178 -65 c 256
 178 -35.9131963253 200.515538752 -11.6591037487 219 9 c 1
 236.003623158 -8.00362315843 259 -35.1652334689 259 -64 c 256
292 0 m 0
 257.932648134 0 226.032819332 25.3441081783 220 54 c 1
 207.88683719 25.2312383233 167.886539401 -1 128 -1 c 0
 65.775978643 -1 15 53.3283947864 15 116 c 0
 15 190.043055899 62.5548650577 239 138 239 c 0
 196.33441474 239 227.80982087 199.652042729 242 151 c 0
 257.333333333 105.666666667 281 83 313 83 c 0
 357.253200376 83 376 124.260089153 376 174 c 0
 376 215.967191408 338.717862309 252 295 252 c 0
 276.643528595 252 261 262.256736123 261 280 c 0
 261 299.909616597 271.779831293 310 292 310 c 0
 369.04445552 310 411 227.132193672 411 145 c 0
 411 56.5692501938 375.753587666 0 292 0 c 0
EndSplineSet
Substitution2: "Single Substitution lookup 23 subtable" U0C2B_U0C4D_U0C30
Substitution2: "Single Substitution lookup 22 subtable" U0C2B.haln
MultipleSubs2: "Multiple Substitution lookup 19 subtable" U0C2B_U0C46 U0C56
EndChar

StartChar: U0C2C
Encoding: 397 3116 48
Width: 426
GlyphClass: 2
Flags: HW
LayerCount: 2
Back
Fore
SplineSet
286 76 m 0
 334.62248894 76 367 122.506653061 367 174 c 0
 367 222.674491133 331.708378135 262 283 262 c 0
 257.592319227 262 244 264.262128623 244 286 c 0
 244 304.108866977 260.171570747 310 279 310 c 0
 345.571932753 310 401 229.944966939 401 160 c 0
 401 73.5350878986 366.888068109 0 288 0 c 0
 247.487888355 0 224.677825916 16.6443481686 210 46 c 1
 192.144629185 16.2410486425 161.961228295 0 117 0 c 0
 61.1110304715 0 15 38.587213108 15 92 c 0
 15 185.085191815 92.1395815958 164.203514649 154 199 c 0
 167.333333333 207 174 217.333333333 174 230 c 0
 174 260.506475788 154.772421992 277 125 277 c 0
 103.893446588 277 82 268.339073325 82 250 c 0
 82 244.505250235 91 228.932569179 91 224 c 0
 91 206.336672131 74.0124917771 200 55 200 c 0
 34.3183610681 200 17 220.913618788 17 241 c 0
 17 286.156848663 62.4089781336 315 110 315 c 0
 163.791778766 315 206 287.007123823 206 236 c 0
 206 196 177.666666667 169 121 155 c 0
 83 145 64 130.666666667 64 112 c 0
 64 80.8158497291 98.4895529096 76 137 76 c 0
 166.889028862 76 202 105.816438764 202 135 c 0
 202 146.063645844 203.533846216 151 214 151 c 0
 223.151018266 151 225 141.580944399 225 131 c 0
 225 94.3945860553 249.587356036 76 286 76 c 0
EndSplineSet
Substitution2: "Single Substitution lookup 23 subtable" U0C2C_U0C4D_U0C30
Substitution2: "Single Substitution lookup 22 subtable" U0C2C.haln
MultipleSubs2: "Multiple Substitution lookup 19 subtable" U0C2C_U0C46 U0C56
EndChar

StartChar: U0C2D
Encoding: 398 3117 49
Width: 464
GlyphClass: 2
Flags: HW
LayerCount: 2
Back
Fore
SplineSet
251 -64 m 0
 251 -87.3089687432 234.809655146 -102 211 -102 c 0
 186.683775264 -102 170 -89.3951841827 170 -65 c 256
 170 -34.7058763646 191.433643977 -11.6533758025 211 9 c 1
 222.410655075 -16.6739739186 251 -31.6557213692 251 -64 c 0
423 470 m 0
 445.484300339 470 464 453.535946557 464 431 c 0
 464 389.711643642 363.703578256 322.934257901 333 302 c 1
 380.546751227 280.207739022 406 220.928768544 406 152 c 0
 406 73.5960403005 362.55896468 0 288 0 c 0
 248.163097444 0 224.058663696 17.8826726094 210 46 c 1
 192.144629185 16.2410486425 161.961228295 0 117 0 c 0
 61.1110304715 0 15 38.587213108 15 92 c 0
 15 143.333333333 47.3333333333 175 112 187 c 0
 153.333333333 193.666666667 174 208 174 230 c 0
 174 261.298162642 156.946791869 273 125 273 c 0
 100.924853363 273 82 269.438467355 82 250 c 0
 82 244.505250235 91 228.932569179 91 224 c 0
 91 206.336672131 74.0124917771 200 55 200 c 0
 34.3183610681 200 17 220.913618788 17 241 c 0
 17 285.949083576 60.9567510306 310 110 310 c 0
 163.182962998 310 206 286.182822563 206 236 c 0
 206 196 177.666666667 169 121 155 c 0
 83 145 64 130.666666667 64 112 c 0
 64 80.8158497291 98.4895529096 76 137 76 c 0
 167.06845244 76 202 104.841904623 202 135 c 0
 202 146.063645844 203.533846216 151 214 151 c 0
 223.151018266 151 225 141.580944399 225 131 c 0
 225 94.3945860553 249.587356036 76 286 76 c 0
 334.62248894 76 367 122.506653061 367 174 c 0
 367 231.959720629 346.889848953 273 293 273 c 2
 274 273 l 2
 230.575096735 273 156 308.99762586 156 350 c 0
 156 374.060130805 171.455000173 391 195 391 c 0
 226.314817765 391 244.843757549 310 274 310 c 0
 301.162259934 310 342.926588035 372.692627067 377 438 c 0
 388.55744326 459.013533201 395.769359375 470 423 470 c 0
EndSplineSet
Substitution2: "Single Substitution lookup 23 subtable" U0C2D_U0C4D_U0C30
Substitution2: "Single Substitution lookup 22 subtable" U0C2D.haln
MultipleSubs2: "Multiple Substitution lookup 19 subtable" U0C2D_U0C46 U0C56
EndChar

StartChar: U0C2E
Encoding: 399 3118 50
Width: 639
GlyphClass: 2
Flags: HW
LayerCount: 2
Back
Fore
SplineSet
200 146 m 0
 200 180.07623153 166.173652168 205 131 205 c 256
 95.5453466472 205 64 180.393876706 64 146 c 0
 64 106.090545212 93.3038185357 76 133 76 c 0
 176.768676912 76 200 103.06229303 200 146 c 0
386 174 m 0
 386 232.523391455 342.838585684 273 284 273 c 2
 155 273 l 2
 111.571115399 273 38 311.516439002 38 352 c 0
 38 376.282180359 52.3475429148 391 78 391 c 0
 107.923000612 391 128.09552934 310 157 310 c 0
 183.965459792 310 225.207306081 374.767334303 260 439 c 0
 271.423309409 459.769653471 278.999941264 472 305 472 c 0
 328.209822042 472 346 454.202630306 346 431 c 0
 346 393.860867504 250.287371798 327.656534693 223 310 c 1
 288 310 l 2
 367.377695797 310 428 241.441184875 428 161 c 0
 428 142.333333333 426.333333333 125 423 109 c 1
 436.581847961 89.9854128514 459.803255763 76 489 76 c 0
 538.158075371 76 580 124.374715974 580 174 c 0
 580 222.674491133 544.708378135 262 496 262 c 0
 470.592319227 262 457 264.262128623 457 286 c 0
 457 304.108866977 473.171570747 310 492 310 c 0
 558.571932753 310 614 229.944966939 614 160 c 0
 614 70.8892671705 572.945162415 -2 490 -2 c 0
 444.840928963 -2 415.887592063 22.4271501551 406 60 c 1
 383.448068418 22.4134473637 351.98983138 0 304 0 c 0
 265.428700923 0 226.675251246 22.2925565836 220 54 c 1
 207.994687105 25.487381872 167.131228166 0 128 0 c 0
 66.2942621266 0 15 53.4178703221 15 116 c 0
 15 190.043055899 62.5548650577 239 138 239 c 0
 196.33441474 239 227.80982087 199.652042729 242 151 c 0
 257.333333333 105.666666667 281 83 313 83 c 0
 363.395277278 83 386 120.943868032 386 174 c 0
EndSplineSet
Substitution2: "Single Substitution lookup 23 subtable" U0C2E_U0C4D_U0C30
Substitution2: "Single Substitution lookup 22 subtable" U0C2E.haln
MultipleSubs2: "Multiple Substitution lookup 19 subtable" U0C2E_U0C46 U0C56
EndChar

StartChar: U0C2F
Encoding: 400 3119 51
Width: 777
GlyphClass: 2
Flags: HW
LayerCount: 2
Back
Fore
SplineSet
305 183 m 0
 305 239.981762755 249.307523704 273 189 273 c 0
 119.819117256 273 71 238.053883433 71 171 c 0
 71 106.213958925 122.030903842 74 189 74 c 0
 252.269744744 74 305 119.230525367 305 183 c 0
531 169 m 0
 531 221.280891319 496.621427643 273 446 273 c 2
 436 273 l 2
 420 273.666666667 410 273.666666667 406 273 c 2
 398 273 l 2
 354.540527065 273 280 309.843922354 280 350 c 0
 280 375.016350053 295.181640054 391 319 391 c 0
 350.314817765 391 368.843757549 310 398 310 c 0
 425.162259934 310 466.926588035 372.692627067 501 438 c 0
 512.55744326 459.013533201 519.769359375 470 547 470 c 0
 569.385761207 470 587 453.014603175 587 431 c 0
 587 388.145248816 494.031877599 330.709377051 464 307 c 1
 525.537827609 295.664084387 566 226.720776561 566 155 c 0
 566 139 564.333333333 123.666666667 561 109 c 1
 574.711279744 89.8042083545 599.016767121 76 628 76 c 0
 676.599023338 76 718 123.725358889 718 174 c 0
 718 222.674491133 682.708378135 262 634 262 c 0
 608.592319227 262 595 264.262128623 595 286 c 0
 595 303.26051925 611.237626587 310 630 310 c 0
 697.289465596 310 752 229.944966939 752 160 c 0
 752 69.6438891441 712.169006247 -2 628 -2 c 0
 581.953387362 -2 553.37302813 22.6332818504 544 62 c 1
 524.251044811 22.502089622 481.198718843 0 432 0 c 0
 382.62495921 0 344.606019734 32.4188516797 331 72 c 1
 305.970813868 29.4503835738 254.209217495 0 189 0 c 0
 94.1152546742 0 15 58.6906619111 15 151 c 0
 15 248.512528684 89.8718017833 310 189 310 c 0
 283.006726829 310 353 245.179631817 353 151 c 2
 353 140 l 1
 358.839531693 97.663395235 391.717106345 76 440 76 c 0
 488.679309358 76 531 119.25325231 531 169 c 0
EndSplineSet
Substitution2: "Single Substitution lookup 23 subtable" U0C2F_U0C4D_U0C30
Substitution2: "Single Substitution lookup 22 subtable" U0C2F.haln
MultipleSubs2: "Multiple Substitution lookup 19 subtable" U0C2F_U0C46 U0C56
EndChar

StartChar: U0C30
Encoding: 401 3120 52
Width: 390
GlyphClass: 2
Flags: HW
LayerCount: 2
Back
Fore
SplineSet
305 183 m 0
 305 239.981762755 249.307523704 273 189 273 c 0
 119.819117256 273 71 238.053883433 71 171 c 0
 71 106.213958925 122.030903842 74 189 74 c 0
 252.269744744 74 305 119.230525367 305 183 c 0
325 470 m 0
 347.385761207 470 365 453.014603175 365 431 c 0
 365 388.631517234 268.376448963 326.782336723 238 304 c 1
 304.358800453 286.620314168 353 228.781735865 353 151 c 0
 353 61.0782636614 279.498029794 0 189 0 c 0
 94.1152546742 0 15 58.6906619111 15 151 c 0
 15 217.879043215 52.6997721477 269.987899746 105 293 c 1
 105 295 l 1
 75 311 58 329.333333333 58 350 c 0
 58 375.016350053 73.1816400541 391 97 391 c 0
 128.314817765 391 146.843757549 310 176 310 c 0
 203.162259934 310 244.926588035 372.692627067 279 438 c 0
 290.55744326 459.013533201 297.769359375 470 325 470 c 0
EndSplineSet
Substitution2: "Single Substitution lookup 23 subtable" U0C30_U0C4D_U0C30
Substitution2: "Single Substitution lookup 22 subtable" U0C30.haln
MultipleSubs2: "Multiple Substitution lookup 19 subtable" U0C30_U0C46 U0C56
EndChar

StartChar: U0C31
Encoding: 402 3121 53
Width: 431
GlyphClass: 2
Flags: HW
LayerCount: 2
Back
Fore
SplineSet
155 239 m 0
 155 253.432195673 139.150342263 270 124 270 c 0
 104.804783313 270 89 257.123238263 89 238 c 0
 89 223.950575534 106.664008582 211 121 211 c 0
 142.097758797 211 155 218.453495557 155 239 c 0
297 264 m 0
 274.048000651 264 251 241.172030297 251 216 c 0
 251 199.861662145 264.320240639 182 281 182 c 0
 299.238628409 182 311 172.058291951 311 154 c 0
 311 137.271724042 296.136484675 125 279 125 c 2
 139 125 l 2
 122.831778062 125 116 130.455336737 116 147 c 256
 116 162.675733939 123.317408636 170 139 170 c 2
 227 170 l 1
 231 168 229.666666667 173.666666667 223 187 c 0
 217 199.666666667 214 212 214 224 c 0
 214 268.721340186 249.576681682 309 296 309 c 0
 363.643572497 309 406 229.949628546 406 159 c 0
 406 71.081491722 366.289899494 0 283 0 c 0
 250.211911132 0 210.58382698 22.2982228708 204 46 c 1
 194.390719337 19.9176667745 164.289619872 0 128 0 c 0
 51.0430029886 0 15 73.1220610743 15 155 c 0
 15 227.469215418 53.4148595732 309 122 309 c 0
 158.479322601 309 195 276.889274837 195 241 c 0
 195 201.840176113 162.219047762 174 121 174 c 0
 89.808329658 174 64.2921246121 193.865383147 63 221 c 1
 54.3333333333 209 50 192 50 170 c 0
 50 115.875275554 77.928178067 74 130 74 c 0
 154.127933782 74 190 81.861170496 190 102 c 0
 190 115.290857713 195.518626198 124 205 124 c 256
 215.301306736 124 221 112.723219418 221 102 c 256
 221 79.0528812824 251.298618917 69 276 69 c 0
 340.635536065 69 370 101.658238891 370 167 c 0
 370 210.540596971 339.300917196 264 297 264 c 0
EndSplineSet
Substitution2: "Single Substitution lookup 23 subtable" U0C31_U0C4D_U0C30
Substitution2: "Single Substitution lookup 22 subtable" U0C31.haln
MultipleSubs2: "Multiple Substitution lookup 19 subtable" U0C31_U0C46 U0C56
EndChar

StartChar: U0C32
Encoding: 403 3122 54
Width: 424
GlyphClass: 2
Flags: HW
LayerCount: 2
Back
Fore
SplineSet
85 251 m 0
 85 230.80960923 105.004717361 215 125 215 c 0
 148.734883674 215 168 228.192921606 168 251 c 256
 168 273.802231096 148.730307083 287 125 287 c 0
 103.875085327 287 85 271.509785455 85 251 c 0
365 191 m 0
 365 237.805097757 327.543662621 273 281 273 c 0
 254.46987825 273 242 274.631299346 242 297 c 256
 242 316.291538811 256.957777422 321 277 321 c 0
 348.222588266 321 399 252.742647379 399 180 c 0
 399 63.2764888832 325.396495209 0 207 0 c 0
 94.1377267333 0 15 62.1039023424 15 173 c 0
 15 255.453932134 60.8045559443 322 139 322 c 0
 182.368883482 322 216 294.636987345 216 253 c 0
 216 206.022186136 177.794366025 176 130 176 c 0
 92.6569192006 176 67.5593761937 197.321871419 58 226 c 1
 58 221 l 1
 54 207 50 196 50 188 c 0
 50 104.353610135 118.31317082 80 210 80 c 0
 303.197741925 80 365 106.087882048 365 191 c 0
EndSplineSet
Substitution2: "Single Substitution lookup 23 subtable" U0C32_U0C4D_U0C30
Substitution2: "Single Substitution lookup 22 subtable" U0C32.haln
MultipleSubs2: "Multiple Substitution lookup 19 subtable" U0C32_U0C46 U0C56
EndChar

StartChar: U0C33
Encoding: 404 3123 55
Width: 366
GlyphClass: 2
Flags: HW
LayerCount: 2
Back
Fore
SplineSet
129 261 m 0
 129 279.005545774 114.107024948 289 96 289 c 256
 77.0857064185 289 64 278.829575345 64 260 c 0
 64 246.363590356 80.3011248624 236 96 236 c 0
 112.679705841 236 129 245.498744573 129 261 c 0
265 115 m 0
 265 151.592778405 214.11450385 163 172 163 c 0
 128.069281151 163 83 149.100734084 83 110 c 0
 83 74.5745024516 130.528318983 61 172 61 c 256
 214.090652484 61 265 77.139051115 265 115 c 0
351 472 m 0
 372.556696956 472 386 453.068072398 386 431 c 0
 386 391.072507238 302.270738488 326.725615407 275 304 c 1
 293.05074407 294.280368577 306 275.529381457 306 250 c 0
 306 210.744027861 281.84599355 189.729041235 251 179 c 1
 291.033071008 170.508136452 317 151.067687528 317 106 c 0
 317 41.2370576943 243.076432314 0 175 0 c 0
 102.06569812 0 29 28.8771270534 29 95 c 0
 29 130.323456125 48.255960863 155.976821506 73 169 c 1
 38.7371403032 176.448447759 15 200.791876355 15 240 c 0
 15 284.929544339 54.0545071307 310 99 310 c 0
 136.82655052 310 170 292.676872906 170 256 c 0
 170 225.882863498 139.167703566 206 108 206 c 0
 83.5352137532 206 58.6867927212 217.258961827 49 233 c 1
 49 191.36029275 106.473333072 190 161 190 c 0
 206.667006476 190 265 208.168483867 265 246 c 0
 265 263.78239777 245.527444635 273 220 273 c 0
 178.142612698 273 121 314.437937989 121 352 c 0
 121 373.983608387 131.953093058 391 154 391 c 0
 182.249323661 391 197.534552547 310 223 310 c 0
 245.900315778 310 283.320020305 373.0360467 312 439 c 0
 320.785602125 458.523560277 328.093773932 472 351 472 c 0
EndSplineSet
Substitution2: "Single Substitution lookup 23 subtable" U0C33_U0C4D_U0C30
Substitution2: "Single Substitution lookup 22 subtable" U0C33.haln
MultipleSubs2: "Multiple Substitution lookup 19 subtable" U0C33_U0C46 U0C56
EndChar

StartChar: U0C34
Encoding: 405 3124 56
Width: 418
GlyphClass: 2
Flags: HW
LayerCount: 2
Back
Fore
SplineSet
154 241 m 0
 154 255.713560396 137.543291462 273 122 273 c 0
 102.241388359 273 87 259.968729052 87 240 c 0
 87 225.830516421 104.786078909 212 119 212 c 0
 140.529019745 212 154 220.725155068 154 241 c 0
254 241 m 0
 254 220.726816704 267.484419085 212 289 212 c 0
 303.208248478 212 321 225.829473893 321 240 c 0
 321 259.966585579 305.755713699 273 286 273 c 0
 270.448717708 273 254 255.706432383 254 241 c 0
282 0 m 0
 242.303826142 0 216.73709114 21.3093327677 205 50 c 1
 205 51 l 1
 181.336442158 27.3364421577 174.65486278 0 126 0 c 0
 49.9871184852 0 15 73.2745629882 15 155 c 0
 15 228.741179002 53.0768135024 310 121 310 c 0
 155.556567489 310 191 278.08909689 191 244 c 0
 191 205.812403031 157.771133197 180 119 180 c 0
 86.9993120988 180 64.4092410906 201.089106912 62 230 c 1
 52 215.333333333 47 195.666666667 47 171 c 0
 47 112.546418347 73.7394034054 65 128 65 c 0
 157.155967183 65 190 74.5371358229 190 100 c 0
 190 110.751415195 193.91770906 118 203 118 c 1
 203 118 l 1
 213.208617725 118 218 111.893238513 218 100 c 0
 218 74.5595053807 250.885926907 65 280 65 c 0
 334.242917533 65 361 112.567415667 361 171 c 0
 361 195.666666667 356 215.333333333 346 230 c 1
 343.590343217 201.084118602 321.001673168 180 289 180 c 0
 250.226415167 180 217 205.810291698 217 244 c 0
 217 278.06618843 252.46291072 310 287 310 c 0
 354.891601907 310 393 228.676255546 393 155 c 0
 393 73.226307537 358.045304318 0 282 0 c 0
EndSplineSet
EndChar

StartChar: U0C35
Encoding: 406 3125 57
Width: 453
GlyphClass: 2
Flags: HW
LayerCount: 2
Back
Fore
SplineSet
200 146 m 0
 200 180.07623153 166.173652168 205 131 205 c 256
 95.5453466472 205 64 180.393876706 64 146 c 0
 64 106.090545212 93.3038185357 76 133 76 c 0
 176.768676912 76 200 103.06229303 200 146 c 0
305 472 m 0
 328.209822042 472 346 454.202630306 346 431 c 0
 346 393.860867504 250.287371798 327.656534693 223 310 c 1
 288 310 l 2
 367.377695797 310 428 241.441184875 428 161 c 0
 428 72.1307229095 388.273192966 0 304 0 c 0
 265.428700923 0 226.675251246 22.2925565836 220 54 c 1
 207.994687105 25.487381872 167.131228166 0 128 0 c 0
 66.2942621266 0 15 53.4178703221 15 116 c 0
 15 190.043055899 62.5548650577 239 138 239 c 0
 196.33441474 239 227.80982087 199.652042729 242 151 c 0
 257.333333333 105.666666667 281 83 313 83 c 0
 363.395277278 83 386 120.943868032 386 174 c 0
 386 232.523391455 342.838585684 273 284 273 c 2
 155 273 l 2
 111.571115399 273 38 311.516439002 38 352 c 0
 38 376.282180359 52.3475429148 391 78 391 c 0
 107.923000612 391 128.09552934 310 157 310 c 0
 183.965459792 310 225.207306081 374.767334303 260 439 c 0
 271.423309409 459.769653471 278.999941264 472 305 472 c 0
EndSplineSet
Substitution2: "Single Substitution lookup 23 subtable" U0C35_U0C4D_U0C30
Substitution2: "Single Substitution lookup 22 subtable" U0C35.haln
MultipleSubs2: "Multiple Substitution lookup 19 subtable" U0C35_U0C46 U0C56
EndChar

StartChar: U0C36
Encoding: 407 3126 58
Width: 437
GlyphClass: 2
Flags: HW
LayerCount: 2
Back
Fore
SplineSet
362 109 m 1024,0,-1
362 140 m 0,15,16
 362 181.801368023 317.302122938 206 272 206 c 0,3,4
 224.325179582 206 185 179.48360727 185 135 c 0,7,8
 185 92.3207817427 226.392109082 74 272 74 c 0,11,12
 317.322344617 74 362 98.5331336647 362 140 c 0,15,16
308 236 m 0,103,104
 322.912482085 236 340 241.415291452 340 255 c 0,107,108
 340 262.333333333 336.333333333 269.666666667 329 273 c 1,109,110
 181 273 l 1,17,18
 144.057828544 280.38843429 85 317.500115634 85 352 c 0,21,22
 85 375.481148825 100.286677085 391 124 391 c 0,25,26
 155.190341665 391 175.494553371 310 203 310 c 0,29,30
 228.875483022 310 273.709373075 371.483234611 306 439 c 0,32,33
 317.336408747 459.611652267 325.538066621 472 352 472 c 0,36,37
 374.484300339 472 393 454.202630306 393 431 c 0,40,41
 393 392.252362228 300.283475788 331.149176959 271 310 c 1,46,-1
 317 310 l 2,47,48
 352.248162489 310 380 294.020790409 380 259 c 0,51,52
 380 239.249166639 368.446994377 225.844080054 355 218 c 1,55,56
 385.340053996 200.496122694 412 164.704669517 412 121 c 0,59,60
 412 43.4359141967 348.155337639 0 272 0 c 0,65,66
 201.04643308 0 133 45.2093227019 133 114 c 0,69,70
 133 159.405414447 154.083408815 193.680036231 186 209 c 1,73,74
 183.333333333 209.666666667 178.666666667 210 172 210 c 0,75,76
 128.03083175 208.625963491 86 191.925895779 86 153 c 0,79,80
 86 142.875610876 103 121.744235927 103 111 c 0,83,84
 103 87.4235467347 88.3034245411 70 64 70 c 0,87,88
 34.6328431734 70 15 89.9456928146 15 120 c 0,91,92
 15 202.623811588 96.9411661179 241 186 241 c 0,95,96
 192.666666667 241 204 240.333333333 220 239 c 1,97,-1
 225 239 l 2,98,99
 238.333333333 238.333333333 248.333333333 238 255 238 c 2,100,-1
 276 238 l 2,101,102
 290 238 300.666666667 237.333333333 308 236 c 0,103,104
EndSplineSet
Substitution2: "Single Substitution lookup 23 subtable" U0C36_U0C4D_U0C30
Substitution2: "Single Substitution lookup 22 subtable" U0C36.haln
MultipleSubs2: "Multiple Substitution lookup 19 subtable" U0C36_U0C46 U0C56
EndChar

StartChar: U0C37
Encoding: 408 3127 59
Width: 445
GlyphClass: 2
Flags: HW
LayerCount: 2
Back
Fore
SplineSet
200 146 m 0
 200 180.07623153 166.173652168 205 131 205 c 256
 95.5453466472 205 64 180.393876706 64 146 c 0
 64 106.090545212 93.3038185357 76 133 76 c 0
 176.768676912 76 200 103.06229303 200 146 c 0
56 393 m 0
 87.3374910195 393 105.869531102 310 135 310 c 0
 162.773617714 310 202.635555734 376.849206667 238 440 c 0
 249.477483166 461.911558773 256.411858449 473 284 473 c 0
 305.947130155 473 325 456.079953769 325 433 c 0
 325 401.759600518 265.167531339 362.979050353 240 340 c 0
 189.333333333 295.333333333 154.333333333 273 135 273 c 0
 90.9372938216 273 17 311.885390342 17 353 c 0
 17 377.560475952 30.1727422266 393 56 393 c 0
300 0 m 0
 261.664177944 0 226.162893257 21.9529550582 220 54 c 1
 207.88683719 25.2312383233 167.886539401 -1 128 -1 c 0
 65.775978643 -1 15 53.3283947864 15 116 c 0
 15 190.043055899 62.5548650577 239 138 239 c 0
 197.447442117 239 227.983559002 199.058717849 242 149 c 0
 253.333333333 105 277 83 313 83 c 0
 359.307383523 83 377 115.515510388 377 165 c 0
 377 213.9814069 343.142123216 252 295 252 c 0
 276.643528595 252 261 262.256736123 261 280 c 0
 261 299.909616597 271.779831293 310 292 310 c 0
 369.04445552 310 411 227.132193672 411 145 c 0
 411 104.099945726 391 62.1522554069 391 26 c 0
 391 8.27504977367 402.293277779 -8 420 -8 c 0
 426.452520515 -8 430.411933382 -5.39204441183 434 -3 c 0
 442.513464558 -3 445 -19.8857654065 445 -30 c 0
 445 -56.5682443302 423.444961315 -80 397 -80 c 0
 362.492729121 -80 348 -53.955101466 348 -18 c 0
 348 -9.33333333333 351 2 357 16 c 1
 340.333333333 5.33333333333 321.333333333 0 300 0 c 0
EndSplineSet
Substitution2: "Single Substitution lookup 23 subtable" U0C37_U0C4D_U0C30
Substitution2: "Single Substitution lookup 22 subtable" U0C37.haln
MultipleSubs2: "Multiple Substitution lookup 19 subtable" U0C37_U0C46 U0C56
EndChar

StartChar: U0C38
Encoding: 409 3128 60
Width: 438
GlyphClass: 2
Flags: HW
LayerCount: 2
Back
Fore
SplineSet
54 393 m 0
 85.3374910195 393 103.869531102 310 133 310 c 0
 159.705245807 310 202.284866999 375.163205767 236 440 c 0
 247.232252605 461.443391337 254.423236803 473 281 473 c 0
 303.764692345 473 323 456.586494912 323 433 c 0
 323 402.732525933 262.962655165 362.791989498 238 340 c 0
 188 295.333333333 153 273 133 273 c 0
 88.9372938216 273 15 311.885390342 15 353 c 0
 15 377.560475952 28.1727422266 393 54 393 c 0
413 146 m 0
 413 62.1579703592 367.455662248 1 286 1 c 0
 231.747141928 1 185 34.7463535424 185 86 c 0
 185 103.730762857 193 131.163220938 193 152 c 256
 193 178.024022062 165.978889165 197 140 197 c 0
 100.950903059 197 80 171.992537804 80 132 c 0
 80 93.5454845918 127 67.8958980877 127 33 c 0
 127 18.9031704885 111.690595543 0 99 0 c 0
 37.6949949747 0 15 38.6449699086 15 104 c 0
 15 180.90078537 63.2551737783 231 140 231 c 0
 193.761607446 231 235.059743928 194.454481279 238 143 c 0
 240.885767842 99.7134823628 254.690892291 77 298 77 c 0
 353.611496468 77 378 114.098904713 378 174 c 0
 378 216.504334304 339.871794127 252 296 252 c 0
 278.427253184 252 263 262.738540079 263 280 c 0
 263 299.409845553 273.647006151 310 293 310 c 0
 370.538218816 310 413 228.750349799 413 146 c 0
EndSplineSet
Substitution2: "Single Substitution lookup 23 subtable" U0C38_U0C4D_U0C30
Substitution2: "Single Substitution lookup 22 subtable" U0C38.haln
MultipleSubs2: "Multiple Substitution lookup 19 subtable" U0C38_U0C46 U0C56
EndChar

StartChar: U0C39
Encoding: 410 3129 61
Width: 679
GlyphClass: 2
Flags: HW
LayerCount: 2
Back
Fore
SplineSet
56 393 m 0
 87.3374910195 393 105.869531102 310 135 310 c 0
 162.773617714 310 202.635555734 376.849206667 238 440 c 0
 249.477483166 461.911558773 256.411858449 473 284 473 c 0
 305.947130155 473 325 456.079953769 325 433 c 0
 325 401.759600518 265.167531339 362.979050353 240 340 c 0
 189.333333333 295.333333333 154.333333333 273 135 273 c 0
 90.9372938216 273 17 311.885390342 17 353 c 0
 17 377.560475952 30.1727422266 393 56 393 c 0
622 192 m 1
 622 224.442014156 578.928636592 254 545 254 c 2
 383 254 l 1
 401.666666667 223.333333333 411 187 411 145 c 0
 411 56.5692501938 375.753587666 0 292 0 c 0
 257.932648134 0 226.032819332 25.3441081783 220 54 c 1
 207.88683719 25.2312383233 167.886539401 -1 128 -1 c 0
 65.775978643 -1 15 53.3283947864 15 116 c 0
 15 190.043055899 62.5548650577 239 138 239 c 0
 196.33441474 239 227.80982087 199.652042729 242 151 c 0
 257.333333333 105.666666667 281 83 313 83 c 0
 357.253200376 83 376 124.260089153 376 174 c 0
 376 215.967191408 338.717862309 252 295 252 c 0
 276.643528595 252 261 262.256736123 261 280 c 0
 261 299.909616597 271.779831293 310 292 310 c 2
 533 310 l 2
 610.008408162 310 654 245.892652964 654 166 c 0
 654 90.4423857699 623.124426297 29 553 29 c 0
 494.738432275 29 450 66.7587695654 450 125 c 0
 450 185.058551214 487.481731949 226 547 226 c 0
 581.450692408 226 605.358068979 212.208059097 622 192 c 1
200 146 m 0
 200 180.07623153 166.173652168 205 131 205 c 256
 95.5453466472 205 64 180.393876706 64 146 c 0
 64 106.090545212 93.3038185357 76 133 76 c 0
 176.768676912 76 200 103.06229303 200 146 c 0
553 196 m 0
 524.451984081 196 497 176.486516457 497 148 c 0
 497 113.341880677 517.642166671 94 553 94 c 0
 585.701717586 94 608 115.906323652 608 149 c 0
 608 176.779193877 581.881309909 196 553 196 c 0
EndSplineSet
Substitution2: "Single Substitution lookup 23 subtable" U0C39_U0C4D_U0C30
Substitution2: "Single Substitution lookup 22 subtable" U0C39.haln
MultipleSubs2: "Multiple Substitution lookup 19 subtable" U0C39_U0C46 U0C56
EndChar

StartChar: U0C3d
Encoding: 411 3133 62
Width: 461
GlyphClass: 2
Flags: HW
LayerCount: 2
Back
Fore
SplineSet
15 80 m 0
 15 126.429950115 57.6564073981 160 103 160 c 0
 147.372121232 160 201 178.339597746 201 218 c 0
 201 246.483754421 181.853332475 267.431111683 163 280 c 1
 167 257 l 1
 167 217.312627991 134.790899071 185 93 185 c 0
 58.1472361648 185 22 210.026762503 22 244 c 0
 22 290.822454936 65.8502723899 325 114 325 c 0
 177.973066734 325 234 278.78246485 234 214 c 0
 234 154.531099529 164.141023232 125.250562218 100 123 c 0
 72.7431632984 123 54.3265420133 105.204298251 53 80 c 0
 53 56.5465040322 85.8701703827 45 112 45 c 2
 409 45 l 2
 424.261926706 45 436 32.535946558 436 18 c 0
 436 3.40628160349 424.303773246 -8 411 -8 c 2
 107 -8 l 2
 58.4599871752 -8 16.2972380988 32.0021903477 15 80 c 0
139 257 m 0
 139 278.124914673 120.843152951 297 99 297 c 256
 77.0974589595 297 61 278.12418116 61 257 c 256
 61 235.969989212 78.3482785628 218 99 218 c 256
 119.584104435 218 139 235.988395573 139 257 c 0
EndSplineSet
EndChar

StartChar: U0C3E
Encoding: 412 3134 63
Width: 463
GlyphClass: 2
Flags: HW
LayerCount: 2
Back
Fore
SplineSet
239 145 m 0
 239 204.004747548 276.531629326 245 335 245 c 0
 368.822417147 245 393.808736101 231.629516678 411 211 c 1
 411 243.910142291 367.694931957 273 333 273 c 2
 -56 273 l 2
 -73.3064079042 273 -89 284.616830058 -89 301 c 0
 -89 316.331523256 -72.1550072018 329 -56 329 c 2
 322 329 l 2
 399.2543705 329 442 265.499065228 442 185 c 0
 442 108.913228265 412.316909583 48 342 48 c 0
 283.522070723 48 239 86.2154485378 239 145 c 0
342 215 m 0
 312.654274523 215 286 196.124358168 286 167 c 0
 286 131.659916297 307.437909421 113 342 113 c 0
 374.957584279 113 396 135.628471329 396 169 c 0
 396 196.469535918 369.669790983 215 342 215 c 0
EndSplineSet
EndChar

StartChar: U0C3F
Encoding: 413 3135 64
Width: 0
GlyphClass: 2
Flags: HW
LayerCount: 2
Back
Fore
SplineSet
-91 393 m 0
 -91 445.238966057 -39.3333675332 461 19 461 c 0
 84.9192158879 461 130.230072075 426.938414373 133 366 c 0
 133 306.668445389 65.1625224907 273 1 273 c 0
 -31.3431047757 274.577712428 -96 284.558946368 -96 310 c 0
 -96 319.773559811 -88.0742461818 327 -78 327 c 0
 -51.8795932714 327 -37.4726966472 310 2 310 c 0
 42.578950544 310 98 336.196090819 98 373 c 0
 98 391.319838046 93.1934096513 404.164613244 82 412 c 1
 82.6666666667 409.333333333 83 405.666666667 83 401 c 0
 83 361.480100342 39.3340535148 340 -4 340 c 256
 -44.8296818718 340 -91 357.141478957 -91 393 c 0
-25 401 m 0
 -25 383.717751332 -3.7422791428 373 13 373 c 0
 30.5041212338 373 52 383.308185936 52 401 c 0
 52 421.463018739 33.7938456753 430 13 430 c 0
 -4.40039003451 430 -25 418.556908071 -25 401 c 0
EndSplineSet
EndChar

StartChar: U0C40
Encoding: 414 3136 65
Width: 0
GlyphClass: 2
Flags: HW
LayerCount: 2
Back
Fore
SplineSet
-91 389 m 0
 -91 439.488245051 -40.3913381688 455.800184294 16 457 c 1
 9.82718419456 466.259223708 2 480.517199349 2 494 c 0
 2 537.300599652 39.1362342968 562 84 562 c 0
 131.00963426 562 167 535.939054606 167 490 c 0
 167 466.632782776 158.581837115 457.72564049 146 444 c 1
 131 447 l 1
 133.666666667 452.333333333 135 458.666666667 135 466 c 0
 135 496.3093863 114.448060936 506 83 506 c 0
 60.7462333351 506 43 492.297096288 43 470 c 0
 43 449.109382204 96.7193078315 436.838905449 109 424 c 0
 125 408 133 387 133 361 c 0
 133 302.259189071 64.2374564233 273 1 273 c 0
 -31.3431047757 274.577712428 -96 284.558946368 -96 310 c 0
 -96 320.045354294 -89.3333504147 322 -78 322 c 0
 -51.2551058786 322 -37.2961383987 310 2 310 c 0
 44.6897245404 310 98 330.104627332 98 368 c 0
 98 386.531005855 93.5853333647 398.890266644 82 407 c 1
 82.6666666667 404.333333333 83 401 83 397 c 0
 83 357.755059577 38.6826851752 335 -4 335 c 256
 -45.4850291865 335 -91 352.180319197 -91 389 c 0
-25 397 m 0
 -25 379.446505724 -4.39029763075 368 13 368 c 0
 31.1568760437 368 52 379.012507155 52 397 c 0
 52 417.597131739 34.287182128 425 13 425 c 0
 -4.95708161137 425 -25 414.747633039 -25 397 c 0
EndSplineSet
EndChar

StartChar: U0C41
Encoding: 415 3137 66
Width: 186
GlyphClass: 2
Flags: HW
LayerCount: 2
Back
Fore
SplineSet
5 286 m 0
 5 303.26051925 21.2376265878 310 40 310 c 0
 107.289465596 310 162 229.944966939 162 160 c 0
 162 69.6438891441 121.364126829 -2 38 -2 c 0
 -19.5582603274 -2 -50 36.5207811337 -50 95 c 1
 -39 141 l 1
 -39 104.04592073 -1.35293203209 76 38 76 c 0
 86.3053169038 76 128 124.905104917 128 174 c 0
 128 222.674491133 92.7083781343 262 44 262 c 0
 18.5923192281 262 5 264.262128623 5 286 c 0
EndSplineSet
EndChar

StartChar: U0C42
Encoding: 416 3138 67
Width: 418
GlyphClass: 2
Flags: HW
LayerCount: 2
Back
Fore
SplineSet
394 166 m 0
 394 90.4423857699 363.124426297 29 293 29 c 0
 233.998928147 29 190 66.7587695654 190 125 c 0
 190 185.568864267 226.322360922 226 286 226 c 0
 321.613186238 226 344.221237038 212.14926469 362 192 c 1
 362 224.910142291 317.912699767 254 284 254 c 2
 134 254 l 1
 154 224 164 192.666666667 164 160 c 0
 164 69.6438891441 124.169006247 -2 40 -2 c 0
 -19.0164610307 -2 -57 32.5075568935 -57 91 c 1
 -37 123 l 1
 -37 92.8985334521 6.15827819436 76 40 76 c 0
 88.5990233374 76 130 123.725358889 130 174 c 0
 130 222.674491133 94.7083781343 262 46 262 c 0
 20.5923192281 262 7 264.262128623 7 286 c 0
 7 303.26051925 23.2376265878 310 42 310 c 2
 272 310 l 2
 349.510674335 310 394 245.291280408 394 166 c 0
293 196 m 0
 263.49129649 196 237 177.503167474 237 148 c 0
 237 113.341880677 257.642166671 94 293 94 c 0
 324.871757602 94 347 116.461104752 347 149 c 0
 347 177.295165626 321.293859854 196 293 196 c 0
EndSplineSet
EndChar

StartChar: U0C43
Encoding: 417 3139 68
Width: 143
GlyphClass: 2
Flags: HW
LayerCount: 2
Back
Fore
SplineSet
21 172 m 0
 103.820327505 172 143 55.8050921727 143 -17 c 0
 143 -122.582158501 99.9213441158 -209 5 -209 c 0
 -59.4302826717 -209 -97 -168.971868187 -97 -104 c 0
 -97 -51.7390362607 -63.9245570212 -8 -13 -8 c 0
 16.4273221022 -8 46 -29.8487931409 46 -59 c 0
 46 -120.295752714 -50.6081014967 -136.272672509 -73 -77 c 1
 -75 -83.6666666667 -74.7057439315 -96.5587019032 -65 -111 c 0
 -53.8675748856 -127.564074918 -29.4338967218 -136 -6 -136 c 0
 63.5110126598 -137.362961033 111 -63.7280488232 111 2 c 0
 111 77.5933665376 73.6268500897 115.898293129 13 133 c 0
 -6.79693241831 138.584346452 -4.69825274707 175.212281595 21 172 c 0
-25 -85 m 0
 -14.1841982975 -85 -1 -71.560001518 -1 -60 c 0
 -1 -45.3333333333 -9.66666666667 -38 -27 -38 c 0
 -38.0212924537 -38 -51 -49.6578523111 -51 -61 c 256
 -51 -70.4052473085 -34.4151512438 -85 -25 -85 c 0
EndSplineSet
EndChar

StartChar: U0C44
Encoding: 418 3140 69
Width: 348
GlyphClass: 2
Flags: HW
LayerCount: 2
Back
Fore
SplineSet
260 81 m 0
 239.891763175 81 221 66.3124899045 221 47 c 0
 221 21.6764115697 234.636801478 8 260 8 c 0
 283.329668658 8 299 23.8288440949 299 48 c 0
 299 67.8504247667 280.254443385 81 260 81 c 0
-2 -93 m 0
 34.4938594989 -120.370394624 54.9071297684 -39.0232175581 7 -51 c 0
 -14.0367548903 -53.1036754891 -16.1945232161 -80.8332658148 -2 -93 c 0
-22 -107 m 1
 -18.0857302003 -137.009401797 6.56126570826 -156.584371978 46 -149 c 0
 167.22848613 -129.858660085 152.631698471 107.616070945 49 132 c 1
 24 132 l 2
 -4.09382090643 132 -13.620565401 180 20 180 c 2
 237 180 l 2
 301.141866078 180 341 127.696719852 341 62 c 0
 341 0.799730578915 318.340651795 -47 262 -47 c 0
 215.19569473 -47 181 -16.9460354956 181 29 c 0
 181 76.6204338962 209.617186775 108 257 108 c 0
 285.856254208 108 298.385007434 98.8329086133 313 83 c 1
 313 110.293940669 274.9768846 132 247 132 c 2
 105 132 l 1
 163.29497351 52.2279309857 206.583366137 -178.951570813 64 -204 c 0
 -11.115159346 -216.785559037 -74.7094533956 -141.655391256 -41 -63 c 0
 -7.29446181342 21.2638454666 110.997142347 -44.4589618295 66 -114 c 256
 46.440057329 -144.229002309 -8.7613653821 -141.420450008 -22 -107 c 1
EndSplineSet
EndChar

StartChar: U0C46
Encoding: 419 3142 70
Width: 0
GlyphClass: 2
Flags: HW
LayerCount: 2
Back
Fore
SplineSet
163 366 m 0
 163 317.534928663 123.974017259 273 76 273 c 2
 -56 273 l 2
 -68.8262943361 273 -74 278.738938861 -74 292 c 0
 -74 303.624550527 -67.6945265232 310 -56 310 c 2
 89 310 l 2
 109.716094432 310 121 330.458237329 121 352 c 0
 121 367.681618417 106.643687351 380 90 380 c 2
 -120 380 l 2
 -145.723290279 380 -162 385.728381985 -162 410 c 256
 -162 434.469201614 -145.861933369 442 -120 442 c 2
 89 442 l 2
 134.450717264 442 163 410.965243393 163 366 c 0
EndSplineSet
EndChar

StartChar: U0C47
Encoding: 420 3143 71
Width: 0
GlyphClass: 2
Flags: HW
LayerCount: 2
Back
Fore
SplineSet
89 581 m 0
 122.114228647 581 158 548.37510933 158 517 c 0
 158 504.208117308 149.45325637 496 137 496 c 0
 127.666666667 496 118 499.714407815 118 509 c 0
 118 530.174842382 107.66075218 546 88 546 c 0
 61.7229266456 546 49 528.850898142 49 502 c 0
 49 477.861281934 71.6217022807 449.567446579 80 437 c 1
 116.663431762 432.111542431 150 397.963697155 150 358 c 0
 150 313.06800341 115.918580489 281 72 281 c 2
 -16 281 l 2
 -23.9218430023 281 -31 287.052288043 -31 295 c 0
 -31 305 -26.6666666667 310 -18 310 c 2
 73 310 l 2
 96.5453257434 310 116 325.717139776 116 350 c 0
 116 373.275312913 98.005360891 393 75 393 c 2
 -139 393 l 2
 -153.666666667 393 -161 399.333333333 -161 412 c 0
 -161 424.582739773 -155.430774789 437 -143 437 c 2
 51 437 l 1
 32.6837525224 454.17148201 18 476.571257188 18 509 c 0
 18 553.046176157 43.8893617788 581 89 581 c 0
EndSplineSet
EndChar

StartChar: U0C48
Encoding: 421 3144 72
Width: 478
GlyphClass: 2
Flags: HW
LayerCount: 2
Back
Fore
SplineSet
45 -111 m 0
 45 -72.2961794364 73.4260443687 -51 112 -51 c 0
 147.013689375 -51 172 -69.156416028 172 -103 c 0
 172 -114.676456867 165.524621505 -128.775162213 158 -132 c 1
 392 -132 l 2
 414.06536731 -132 425 -135.12335927 425 -155 c 0
 425 -173.035711599 414.702415389 -178 395 -178 c 2
 133 -178 l 2
 85.0612332513 -178 45 -156.627358093 45 -111 c 0
76 -102 m 0
 76 -116.640614334 85.6927936069 -125 101 -125 c 0
 113.94811445 -125 124 -114.864988607 124 -102 c 0
 124 -87.5134767952 113.672635529 -78 101 -78 c 0
 86.9809341136 -78 76 -87.4742680213 76 -102 c 0
403 347 m 0
 403 298.069266571 367.682722635 273 316 273 c 2
 184 273 l 2
 170.972757259 273 165 278.216837701 165 292 c 0
 165 304.161916159 172.195308203 310 184 310 c 2
 329 310 l 2
 345.733383626 310 361 317.037379996 361 333 c 0
 361 350.592573816 348.58244726 362 330 362 c 2
 142 362 l 2
 116.227678954 362 101 368.109044512 101 392 c 256
 101 416.220497087 115.628089843 423 142 423 c 2
 329 423 l 2
 375.042243864 423 403 393.078229526 403 347 c 0
EndSplineSet
Substitution2: "'abvs' Above Base Substitutions in Telugu lookup 17 subtable" U2109
EndChar

StartChar: U0C4A
Encoding: 422 3146 73
Width: 463
GlyphClass: 2
Flags: HW
LayerCount: 2
Back
Fore
SplineSet
239 203 m 0
 239 263.127579069 276.237771995 310 336 310 c 0
 370.924474915 310 393.827148857 293.607421371 411 273 c 1
 411 310.639648299 364.425700777 334 324 334 c 0
 284.914100251 334 242.509659821 323.586938396 239 292 c 0
 239 281.80376617 232.158805941 273 222 273 c 0
 212.50903084 273 208 282.234245534 208 292 c 0
 208 332.507980186 167.879623317 362 125 362 c 2
 -74 362 l 2
 -86.5557069656 362 -96 350.509785455 -96 338 c 0
 -96 319.447934002 -82.1344778386 310 -63 310 c 2
 22 310 l 1
 22 273 l 1
 -81 273 l 2
 -114.40494944 273 -148 312.761828362 -148 347 c 0
 -148 393.169738038 -114.639608689 423 -68 423 c 2
 125 423 l 2
 179.656413104 423 207.004298867 386.757656894 224 341 c 1
 237.983864402 368.967728804 276.728363504 397 316 397 c 0
 397.164679657 397 443 328.075312578 443 243 c 0
 443 168.244015634 412.124426297 106 342 106 c 0
 283.522070723 106 239 144.215448537 239 203 c 0
342 273 m 0
 312.14218911 273 286 254.637712381 286 226 c 0
 286 190.534300624 306.910936154 171 342 171 c 0
 374.957584279 171 396 193.628471329 396 227 c 0
 396 254.469535918 370.453578714 273 342 273 c 0
EndSplineSet
EndChar

StartChar: U0C4B
Encoding: 423 3147 74
Width: 465
GlyphClass: 2
Flags: HW
LayerCount: 2
Back
Fore
SplineSet
238 203 m 0
 238 262.030934409 276.275878128 310 335 310 c 0
 371.013428677 310 392.314791727 294.222249928 410 273 c 1
 410 311.15132469 364.559244399 334 324 334 c 0
 285.024124352 334 241.46464924 323.181843165 238 292 c 0
 238 281.130964651 231.639939778 273 222 273 c 256
 212.09404559 273 208 280.924095925 208 292 c 0
 208 332.507980186 167.089306357 362 125 362 c 2
 -79 362 l 2
 -91.5557069656 362 -101 350.509785455 -101 338 c 0
 -101 319.447934002 -87.1344778386 310 -68 310 c 2
 31 310 l 1
 31 273 l 1
 -86 273 l 2
 -119.898672221 273 -153 314.321923635 -153 350 c 0
 -153 393.697965499 -117.943725523 423 -73 423 c 2
 125 423 l 2
 179.567428265 423 205.748352844 386.629117891 224 341 c 1
 237.08162151 367.163243018 263.947776268 383.955226113 298 389 c 1
 284.721703376 404.491346061 278 421.272019126 278 449 c 0
 278 493.157493442 314.228582818 517 361 517 c 256
 407.204126745 517 443 490.477862917 443 445 c 0
 443 423.866056547 434.226988463 413.33853287 422 400 c 1
 407 403 l 1
 410.333333333 407.666666667 412 413.666666667 412 421 c 0
 412 450.868041928 390.331058668 461 359 461 c 0
 333.509951578 461 319 444.363512768 319 418 c 0
 319 406.73964743 323.796581391 396.203418609 329 391 c 1
 401.133178813 385.847630084 442 323.357093181 442 243 c 0
 442 167.088065549 412.245965144 106 341 106 c 0
 283.264335181 106 238 144.215448537 238 203 c 0
341 273 m 0
 311.781000826 273 286 255.176746846 286 226 c 0
 286 191.050595423 306.747104223 171 341 171 c 0
 374.182543238 171 396 193.068334775 396 227 c 0
 396 253.896016412 369.288675592 273 341 273 c 0
EndSplineSet
EndChar

StartChar: U0C4C
Encoding: 424 3148 75
Width: 463
GlyphClass: 2
Flags: HW
LayerCount: 2
Back
Fore
SplineSet
239 222 m 0
 239 282.005802572 275.496631984 322 335 322 c 0
 369.492883439 322 393.32904073 309.243307685 410 289 c 1
 410 330.391917474 363.665315693 354 320 354 c 2
 123 354 l 1
 130.395288483 349.774120867 135 332.481245117 135 321 c 0
 135 289.999139023 116.671300241 273 85 273 c 2
 -73 273 l 2
 -82.6610218856 273 -91 280.651836415 -91 291 c 0
 -91 302.732502536 -82.9945066457 310 -72 310 c 2
 65 310 l 2
 78.0372167714 310 86 315.934119794 86 329 c 0
 86 341.685103465 81.242817897 354 70 354 c 2
 -108 354 l 2
 -133.186908724 354 -141 359.843571265 -141 385 c 0
 -141 395.666666667 -137.666666667 406 -131 410 c 1
 322 410 l 2
 400.070046474 410 442 343.195106983 442 262 c 0
 442 186.088065549 412.245965144 125 341 125 c 0
 283.338661243 125 239 163.715953798 239 222 c 0
341 292 m 0
 311.936648802 292 286 273.167932292 286 245 c 0
 286 210.050595423 306.747104223 190 341 190 c 0
 374.182543238 190 396 212.894703678 396 246 c 0
 396 272.896016412 369.288675592 292 341 292 c 0
EndSplineSet
EndChar

StartChar: U0C4D
Encoding: 425 3149 76
Width: 0
GlyphClass: 2
Flags: HW
LayerCount: 2
Back
Fore
SplineSet
209 448 m 0
 209 428.71202096 199.666666667 416 181 416 c 2
 -25 416 l 2
 -36.287979039 416 -45 410.666666667 -45 400 c 0
 -45 388.25886534 -35.4086126698 382 -23 382 c 2
 80 382 l 2
 88.5296546331 382 97 372.202613225 97 363 c 0
 97 353.123511292 88.5359294766 342 80 342 c 2
 -36 342 l 1
 -41.3333333333 338.666666667 -44 331.666666667 -44 325 c 0
 -44 319 -41.6666666667 312.666666667 -37 310 c 1
 44 310 l 2
 53.0913164551 310 62 300.37804065 62 291 c 256
 62 280.894045055 53.4679429263 273 43 273 c 2
 -43 273 l 2
 -71.6181413993 273 -94 296.510574573 -94 325 c 0
 -94 341.282694261 -84.898988961 350.523008585 -74 359 c 1
 -89.5818353809 361.833060978 -99 392.761737593 -99 413 c 0
 -99 446.676653135 -65.0423278864 474 -31 474 c 2
 181 474 l 2
 199.666666666 474 209 465.999982919 209 448 c 0
EndSplineSet
EndChar

StartChar: U0C55
Encoding: 426 3157 77
Width: 159
GlyphClass: 2
Flags: HW
LayerCount: 2
Back
Fore
SplineSet
0 496 m 0
 0 536.038369528 37.3318750627 562 78 562 c 0
 122.631371089 562 159 528.981328595 159 484 c 0
 159 460.838670478 150.710726351 450.881798985 139 438 c 1
 124 438 l 1
 126 444 127 452.666666667 127 460 c 0
 127 488.854945534 104.736949138 509 76 509 c 0
 52.5287397987 509 38 490.791099706 38 468 c 0
 38 457.263895159 48.8100018891 436.594999055 56 433 c 1
 23 433 l 1
 12.3063975352 443.693602465 0 472.233459502 0 496 c 0
EndSplineSet
EndChar

StartChar: U0C56
Encoding: 427 3158 78
Width: 12
GlyphClass: 2
Flags: HW
LayerCount: 2
Back
Fore
SplineSet
464 -163 m 0
 464 -181.698581672 452.407341854 -188 432 -188 c 2
 202 -188 l 2
 142.09491719 -188 71.2233709732 -123.647190856 132 -73 c 0
 144 -60.3333333333 160.666666667 -54 182 -54 c 0
 218.794907742 -54 242 -72.2091872957 242 -109 c 0
 242 -113.83790057 237 -137 237 -137 c 1
 430 -137 l 2
 453.658089807 -137 464 -141.365368965 464 -163 c 0
149 -108 m 0
 149 -120.483546748 157.59451207 -130 171 -130 c 0
 185.162436662 -130 192 -120.175654942 192 -108 c 0
 192 -93.9354203795 185.483470696 -86 171 -86 c 0
 158.444293035 -86 149 -94.7189547097 149 -108 c 0
EndSplineSet
Substitution2: "Single Substitution lookup 20 subtable" U0C56.blws.001
EndChar

StartChar: U0C58
Encoding: 428 3160 79
Width: 462
GlyphClass: 2
Flags: HW
LayerCount: 2
Back
Fore
SplineSet
316 587 m 0
 354.678796251 587 387 567.313659194 387 533 c 0
 387 477.821218147 351.314253551 449 295 449 c 2
 60 449 l 2
 38.9855112054 449 27 455.603548925 27 475 c 0
 27 497.983750021 37.7184897297 502 62 502 c 2
 260 502 l 2
 260.008371954 502 254 526.022960171 254 530 c 0
 254 567.426081249 278.501161813 587 316 587 c 0
350 532 m 0
 350 545.079472614 340.380523092 554 327 554 c 256
 313.718771332 554 305 545.28104529 305 532 c 256
 305 519.508313671 312.487010386 509 327 509 c 256
 341.729029281 509 350 518.127508169 350 532 c 0
395 470 m 0
 418.453117124 470 436 454.569443417 436 431 c 0
 436 390.359838829 344.940789099 332.833591023 316 309 c 1
 393.504723414 302.201340052 437 224.471326848 437 137 c 0
 437 66.2044795777 396.245481971 0 329 0 c 0
 293.741922091 0 265.219920964 18.1701185546 250 41 c 1
 231.072165396 17.0247428346 208.318418477 0 169 0 c 0
 110.739846875 0 65 36.9370195573 65 95 c 0
 65 122.739059641 78.5697364584 148.459716187 93 164 c 1
 43 164 l 2
 24.3333333334 164 15 169.228757247 15 188 c 0
 15 207.607276256 24.4171420752 215 45 215 c 2
 166 215 l 2
 181.309464176 215 194 207.108082752 194 193 c 0
 194 177.053739935 180.676648467 169 163 169 c 0
 130.885326649 169 110 156.057987102 110 125 c 0
 110 93.9398788726 142.941004882 79 176 79 c 0
 207.449783838 79 242 96.8262268046 242 125 c 0
 242 134.547907894 244.30647476 143 253 143 c 256
 262.051721894 143 265 134.401957793 265 125 c 0
 265 97.9340740175 291.905494788 80 320 80 c 0
 369.297476173 80 400 120.75891631 400 171 c 256
 400 230.834085412 351.634533597 273 291 273 c 2
 243 273 l 1
 200.217610141 274.296436057 129 310.029548054 129 350 c 0
 129 375.016350053 143.568623629 391 168 391 c 0
 198.118444295 391 218.418892606 310 247 310 c 0
 273.043932818 310 315.907374785 372.65580167 350 438 c 0
 361.304540729 458.553710416 368.777225142 470 395 470 c 0
EndSplineSet
EndChar

StartChar: U0C59
Encoding: 429 3161 80
Width: 414
GlyphClass: 2
Flags: HW
LayerCount: 2
Back
Fore
SplineSet
316 527 m 0
 354.678796251 527 387 507.313659194 387 473 c 0
 387 417.821218147 351.314253551 389 295 389 c 2
 60 389 l 2
 38.9855112054 389 27 395.603548925 27 415 c 0
 27 437.983750021 37.7184897297 442 62 442 c 2
 260 442 l 2
 260.008371954 442 254 466.022960171 254 470 c 0
 254 507.426081249 278.501161813 527 316 527 c 0
350 472 m 0
 350 485.079472614 340.380523092 494 327 494 c 256
 313.718771332 494 305 485.28104529 305 472 c 256
 305 459.508313671 312.487010386 449 327 449 c 256
 341.729029281 449 350 458.127508169 350 472 c 0
295 3 m 0
 256.02483887 3 225.05583371 19.0596520566 211 46 c 1
 194.710749336 16.3831806088 159.441075091 0 115 0 c 256
 61.0204375634 0 15 37.5049788745 15 90 c 0
 15 150.479092245 51.9590189713 172.090564214 110 182 c 0
 136.949313328 185.515127826 174 206.971453835 174 234 c 0
 174 263.332084895 155.341388943 280 126 280 c 0
 104.30148071 280 84 271.676304388 84 253 c 0
 84 248.899733208 91 233.042554363 91 227 c 0
 91 209.478423036 77.2374623319 205 57 205 c 0
 37.3874423388 205 20 224.433550428 20 245 c 0
 20 290.470683734 65.4751275209 317 112 317 c 0
 161.859064179 317 193.836167644 293.262507547 205 252 c 0
 213.291611517 221.353473621 239.30941544 206 279 206 c 0
 300.850353556 206 320 219.502972776 320 241 c 0
 320 257.186264114 308.017812375 269 293 269 c 0
 282.660052015 269 268.812989223 266 260 266 c 0
 240.992438254 266 225 274.02840179 225 291 c 0
 225 312.63423617 251.271169286 319 277 319 c 0
 321.17332812 319 365 292.364686987 365 250 c 0
 365 208.685723016 327.075647219 178 284 178 c 0
 246.268039444 178 215.771250622 186.433540942 199 206 c 1
 189 184.666666667 163 167.666666667 121 155 c 0
 82.3333333333 143 63 128 63 110 c 0
 63 81.9092914112 88.5424513443 74 119 74 c 0
 157.373197904 74 198 96.5703459316 198 132 c 0
 198 142.379402501 200.887622206 148 211 148 c 0
 219.128777801 148 221 137.837286994 221 128 c 0
 221 96.8704939755 246.184775331 77 279 77 c 0
 314.181916439 77 346 91.6926680514 346 124 c 0
 346 137.810192472 332 142.640634552 332 153 c 0
 332 158.393772213 336.700605097 161 341 161 c 0
 374.842643695 161 389 129.105585223 389 93 c 0
 389 42.0730884033 345.890806764 3 295 3 c 0
EndSplineSet
EndChar

StartChar: U0C60
Encoding: 430 3168 81
Width: 1037
GlyphClass: 2
Flags: HW
LayerCount: 2
Back
Fore
SplineSet
911 196 m 0
 881.49129649 196 855 177.503167474 855 148 c 0
 855 113.341880677 875.642166671 94 911 94 c 0
 943.487427499 94 965 116.461104752 965 149 c 0
 965 177.295165626 939.293859854 196 911 196 c 0
286 76 m 0
 334.109275736 76 367 125.145342353 367 174 c 0
 367 220.494491033 328.963657686 262 283 262 c 0
 256.200218654 262 244 262.420138144 244 286 c 0
 244 303.589199818 260.558605356 310 279 310 c 0
 351.554739309 310 401 234.944037764 401 160 c 0
 401 150 400 136 398 118 c 1
 410.453898353 94.3375931292 441.571881477 76 476 76 c 0
 525.03075197 76 557 123.899477777 557 174 c 0
 557 221.035316088 520.127886472 262 474 262 c 0
 447.415771815 262 434 263.624542581 434 286 c 0
 434 303.118864586 451.697624441 310 470 310 c 0
 542.920286836 310 592 236.114222115 592 160 c 0
 592 144.666666667 591 130.666666667 589 118 c 1
 601.516771654 94.2181338574 631.81483137 76 667 76 c 0
 715.109275736 76 748 125.145342353 748 174 c 0
 748 222.674491133 712.708378135 262 664 262 c 0
 638.592319227 262 625 264.262128623 625 286 c 0
 625 303.655524294 641.489974869 310 661 310 c 2
 890 310 l 2
 967.889278262 310 1012 246.454951403 1012 166 c 0
 1012 89.2910658213 981.607431439 29 911 29 c 0
 851.998928147 29 808 66.7587695654 808 125 c 0
 808 185.568864267 845.732762099 226 904 226 c 0
 939.613186238 226 962.221237038 212.14926469 980 192 c 1
 980 224.910142291 936.694931957 254 902 254 c 2
 752 254 l 1
 772 224 782 192.666666667 782 160 c 0
 782 70.0007182811 744.783784853 -2 659 -2 c 0
 617.091301422 -2 583.047388837 22.5876852711 566 51 c 1
 548.799197339 20.2842809622 512.657428449 -2 468 -2 c 0
 427.822210193 -2 394.645094985 22.3678480241 378 49 c 1
 362.285664514 21.1977141417 329.171955562 0 288 0 c 0
 250.843537074 0 223.242326125 20.7191955775 210 46 c 1
 192.283122567 16.8937013586 162.242851167 0 117 0 c 0
 64.8146378676 0 15 40.0399218691 15 92 c 0
 15 153.142105086 53.9454760918 174.755084016 112 185 c 0
 144.074065123 190.011572675 174 199.233028212 174 230 c 0
 174 259.915092631 156.307206393 277 125 277 c 0
 106.481956553 277 82 266.456547533 82 250 c 0
 82 245.630914311 91 226.490032609 91 224 c 0
 91 205.506892411 75.3780501245 200 55 200 c 0
 34.0312204119 200 17 219.06983344 17 241 c 0
 17 285.702165334 63.7259185138 315 110 315 c 0
 158.856677967 315 206 283.042268707 206 236 c 0
 206 138.449280032 64 183.467854942 64 112 c 0
 64 80.8796925227 98.404941288 76 137 76 c 0
 169.549990086 76 202 102.223963826 202 135 c 0
 202 144.636089885 204.204955608 151 214 151 c 0
 221.912424053 151 225 138.116584251 225 131 c 0
 225 95.8086280262 249.587356036 76 286 76 c 0
EndSplineSet
EndChar

StartChar: U0C61
Encoding: 431 3169 82
Width: 817
GlyphClass: 2
Flags: HW
LayerCount: 2
Back
Fore
SplineSet
699 200 m 0
 669.14218911 200 643 181.637712381 643 153 c 0
 643 117.806757154 664.190545538 98 699 98 c 0
 731.946990273 98 754 121.86998835 754 154 c 0
 754 181.244788018 727.694537 200 699 200 c 0
380 -34 m 2
 460.808096021 -34 521 35.6042006121 521 134 c 0
 521 192 500.666666667 231.666666667 460 253 c 0
 443.333333333 263 435 274.333333333 435 287 c 0
 435 301.666666667 441.748294449 314 456 314 c 2
 679 314 l 2
 756.008408162 314 800 249.892652964 800 170 c 0
 800 93.1534574534 770.095622172 34 699 34 c 0
 640.235893565 34 596 72.7823394006 596 130 c 0
 596 190.748414821 632.496631984 230 692 230 c 0
 726.375761647 230 751.515904908 217.016401183 768 197 c 1
 768 229.41285182 723.860907502 259 691 259 c 2
 524 259 l 1
 539.342733633 228.314532734 554 171.679095137 554 122 c 0
 554 -6.04624130184 499.409254787 -100 375 -100 c 0
 316.594812693 -100 218 -49.2125100215 218 28 c 2
 218 35 l 2
 218 67 250.080187278 102.746517162 305 152 c 0
 334.080187278 178.079850495 344 205.333333333 344 224 c 0
 344 256.229229212 309.792556586 260 272 260 c 0
 240.463624828 260 207 232.579203403 207 202 c 0
 207 191.020668526 203.745985889 185 194 185 c 0
 186.277781325 185 184 195.400412103 184 206 c 0
 184 241.101094356 162.113798595 257 124 257 c 0
 90.8156810252 257 63 230.022507398 63 197 c 0
 63 175.961101238 79 159.034251509 79 145 c 0
 79 141.026052332 73.3072234744 138 68 138 c 2
 64 138 l 1
 31.1355523528 148.954815888 12 183.646168431 12 228 c 0
 12 286.004653181 56.177068666 333 114 333 c 0
 154.692901149 333 184.829782318 316.765966732 199 290 c 1
 217.145966535 320.243277557 245.264282966 337 292 337 c 0
 346.640707483 337 394 298.161645819 394 245 c 0
 394 202.14292804 383.538719071 171.026245012 353 145 c 0
 295.949745917 96.3796277017 263 62.6666666667 263 34 c 0
 263 6.61394445814 303.486832548 -34 364 -34 c 2
 380 -34 l 2
EndSplineSet
EndChar

StartChar: U0C62
Encoding: 432 3170 83
Width: 9
GlyphClass: 2
Flags: HW
LayerCount: 2
Back
Fore
SplineSet
-107 -114 m 0
 -107 -169.684371177 -186 -209.076542284 -186 -241 c 0
 -186 -256.152860904 -161.709356336 -281 -125 -281 c 2
 -116 -281 l 2
 -68.6570198526 -281 -31 -238.497418729 -31 -181 c 0
 -31 -145.666666667 -43.3333333333 -121.666666667 -68 -109 c 0
 -78 -103 -83 -96.3333333333 -83 -89 c 0
 -83 -80.3333333333 -78.6666666667 -75 -70 -73 c 1
 -70 -73 l 1
 -38.6289582665 -73 -11 -127.273265305 -11 -188 c 0
 -11 -263.79289359 -44.2897479792 -320 -119 -320 c 0
 -153.974747441 -320 -212 -289.820340115 -212 -244 c 2
 -212 -239 l 2
 -212 -220.333333333 -193.56136094 -198.522300586 -161 -169 c 0
 -143.56136094 -153.188967253 -137 -137.333333333 -137 -126 c 0
 -137 -107.243355387 -157.753855692 -104 -181 -104 c 0
 -198.837898373 -104 -219 -121.808929225 -219 -140 c 0
 -219 -146.32398261 -220.980244421 -149 -227 -149 c 0
 -232.381130758 -149 -233 -143.660578058 -233 -137 c 0
 -233 -115.587416992 -246.645685371 -106 -269 -106 c 0
 -288.928725415 -106 -305 -122.68166886 -305 -142 c 0
 -305 -154 -302 -164 -296 -172 c 1
 -296 -174 l 2
 -296 -176.666666666 -298.666649586 -178 -302 -178 c 2
 -305 -178 l 2
 -306.333333333 -177.333333333 -307.333333333 -177 -308 -177 c 0
 -325.058322477 -167.523154181 -336 -150.547077277 -336 -124 c 0
 -336 -89.3057145503 -309.810219934 -61 -275 -61 c 0
 -252.041721072 -61 -232.913079155 -71.1448680756 -224 -86 c 1
 -213.842136253 -68.5865192925 -195.324817943 -59 -169 -59 c 0
 -135.829177393 -59 -107 -81.9233215307 -107 -114 c 0
EndSplineSet
EndChar

StartChar: U0C63
Encoding: 433 3171 84
Width: 151
GlyphClass: 2
Flags: HW
LayerCount: 2
Back
Fore
SplineSet
74 -141 m 256
 56.5161791272 -141 41 -152.329062014 41 -169 c 0
 41 -189.647364705 54.0784320652 -202 74 -202 c 0
 92.8999114069 -202 106 -188.150455973 106 -169 c 0
 106 -152.114757633 91.4386424557 -141 74 -141 c 256
-116 -280 m 2
 -67.9750472029 -280 -32 -239.210501208 -32 -181 c 0
 -32 -146.333333333 -44 -122.666666667 -68 -110 c 0
 -78 -104 -83 -97 -83 -89 c 0
 -83 -80.3333333333 -78.7686309587 -74 -70 -74 c 2
 63 -74 l 2
 108.354754227 -74 134 -111.726489271 134 -159 c 0
 134 -204.501946977 116.202715902 -240 74 -240 c 0
 39.2653844828 -240 13 -217.172288076 13 -183 c 0
 13 -147.363318738 34.5971719115 -123 70 -123 c 0
 90.9811971652 -123 104.313389353 -131.125988169 115 -143 c 1
 115 -123.781924322 88.5863692405 -106 69 -106 c 2
 -30 -106 l 1
 -20.8062215112 -124.387556978 -12 -158.360283706 -12 -188 c 0
 -12 -264.364837379 -43.8843530867 -319 -119 -319 c 0
 -153.285764713 -319 -212 -289.315141359 -212 -244 c 2
 -212 -239 l 2
 -212 -220.333333333 -192.560171616 -199.521222265 -160 -170 c 0
 -142.560171616 -154.187888932 -137 -137.666666667 -137 -127 c 0
 -137 -106.864762182 -156.802610135 -106 -180 -106 c 0
 -197.934977489 -106 -218 -122.420467869 -218 -140 c 0
 -218 -146.589431101 -219.399731879 -150 -225 -150 c 0
 -230.744934253 -150 -232 -144.580547133 -232 -138 c 0
 -232 -118.026052332 -245.692776526 -107 -267 -107 c 256
 -286.976886627 -107 -304 -123.169162316 -304 -143 c 0
 -304 -155 -301 -165 -295 -173 c 0
 -294.333333333 -173 -294 -173.333333333 -294 -174 c 0
 -294 -175.884291633 -297.414320969 -178 -300 -178 c 2
 -303 -178 l 2
 -322.161545903 -178 -334 -146.695469609 -334 -125 c 0
 -334 -90.3057145503 -307.810219934 -62 -273 -62 c 0
 -251.031751906 -62 -230.351773342 -71.8260986457 -223 -88 c 1
 -212.564582543 -70.110712933 -194.876174077 -60 -168 -60 c 0
 -134.875236376 -60 -107 -82.7038302569 -107 -115 c 0
 -107 -168.962527299 -185 -209.541903478 -185 -240 c 256
 -185 -256.368432665 -161.13421001 -280 -125 -280 c 2
 -116 -280 l 2
EndSplineSet
EndChar

StartChar: U0C66
Encoding: 434 3174 85
Width: 376
GlyphClass: 2
Flags: HW
LayerCount: 2
Back
Fore
SplineSet
180 316 m 0
 271.152198807 316 343 243.180642603 343 153 c 0
 343 59.3558476343 276.052960481 -14 180 -14 c 0
 85.0982345135 -14 14 58.4539029006 14 153 c 0
 14 244.125213433 85.6981570579 316 180 316 c 0
180 52 m 0
 247.53069425 52 294 102.542195302 294 169 c 0
 294 240.761797599 250.495152002 288 180 288 c 0
 110.765761999 288 64 236.496431469 64 169 c 256
 64 101.492327105 110.799435374 52 180 52 c 0
EndSplineSet
EndChar

StartChar: U0C67
Encoding: 435 3175 86
Width: 435
GlyphClass: 2
Flags: HW
LayerCount: 2
Back
Fore
SplineSet
208 316 m 0
 326.759821066 316 402 249.421654804 402 134 c 0
 402 65.2285194791 356.608477098 -16 294 -16 c 0
 278 -16 270 -9 270 5 c 0
 270 12.3333333333 273.250630982 24.723114144 287 31 c 2
 333 52 l 1
 354.333333333 68 365 92 365 124 c 256
 365 196.969443174 292.988144079 255 210 255 c 0
 130.275877049 255 51 210.446415646 51 134 c 0
 51 81.3035825163 90.7838782499 49.6080608754 132 29 c 0
 140.666666667 25 145.666666667 18.6666666667 147 10 c 0
 147 -7.33333333333 137.333333333 -16 118 -16 c 0
 55.9081619883 -16 14 65.4604391601 14 134 c 0
 14 249.902700047 90.0373504237 316 208 316 c 0
EndSplineSet
EndChar

StartChar: U0C68
Encoding: 436 3176 87
Width: 490
GlyphClass: 2
Flags: HW
LayerCount: 2
Back
Fore
SplineSet
270 306 m 0
 374.203435466 306 457 255.480922273 457 157 c 0
 457 56.2131546626 398.760119369 -14 296 -14 c 2
 14 -14 l 1
 14 46 l 1
 307 46 l 2
 369.067463019 46 424 94.7777817031 424 157 c 0
 424 198.196034376 385.925423277 259 345 259 c 1
 354.333333333 247 359 232.666666667 359 216 c 0
 359 171.083503989 314.784308877 132 270 132 c 0
 219.541751993 132 186 167.594773551 186 218 c 0
 186 258.806924055 225.193822954 306 270 306 c 0
274 161 m 0
 302.455810742 161 330 186.271098579 330 216 c 0
 330 246.134081618 304.702604116 269 274 269 c 0
 240.264699788 269 219 250.135239277 219 216 c 0
 219 183.127711759 240.449146971 161 274 161 c 0
EndSplineSet
EndChar

StartChar: U0C69
Encoding: 437 3177 88
Width: 330
GlyphClass: 2
Flags: HW
LayerCount: 2
Back
Fore
SplineSet
288 231 m 0
 288 185.667590959 258.942431235 166.464331602 220 152 c 1
 271.333333333 135.333333333 297 109.666666667 297 75 c 0
 297 7.78158114965 230.755098648 -14 157 -14 c 0
 89.0686892176 -14 33.1264254828 1.92186393787 14 44 c 1
 14 107.320466104 96.7129244734 29.4554116987 110 21 c 0
 126.666666667 13.6666666667 142.333333333 10 157 10 c 0
 201.072515167 10 248 25.75856004 248 66 c 0
 248 98.5170610067 215.345639912 120 181 120 c 2
 109 120 l 1
 109 172 l 1
 169 172 l 2
 221.666666667 172 248 191 248 229 c 0
 248 267.286299671 211.442608282 288 169 288 c 0
 139.154887405 288 103 271.260075527 103 243 c 0
 103 229.666666667 94.6666666667 223 78 223 c 2
 59 223 l 1
 55.6666666667 226.333333333 53 234.333333333 51 243 c 0
 51 293.80609576 109.572095862 316 166 316 c 0
 227.247345205 316 288 287.6161965 288 231 c 0
EndSplineSet
EndChar

StartChar: U0C6A
Encoding: 438 3178 89
Width: 352
GlyphClass: 2
Flags: HW
LayerCount: 2
Back
Fore
SplineSet
279 346 m 0
 309.730926216 346 320 307.266445251 320 269 c 0
 320 198.333333333 280.666666667 147.333333333 202 116 c 1
 221.333333333 105.333333333 231 87 231 61 c 0
 231 15.181322996 199.071258457 -14 152 -14 c 0
 113.654013431 -14 83 16.7108477751 83 57 c 0
 83 78.3333333333 90.6666666667 96 106 110 c 1
 44.6666666667 136 14 175 14 227 c 0
 14 265.669797297 32.0009465078 312 67 312 c 0
 83.6666666667 312 92 301.666666667 92 281 c 0
 92 267.629267751 66.9919933256 226.959966628 64 212 c 0
 64 161.378297861 102.536853964 132 155 132 c 0
 214.260526973 132 275 182.201995636 275 239 c 0
 275 267.971458703 259.271058116 291.979859921 247 311 c 1
 247 334.333333333 257.666666667 346 279 346 c 0
157 106 m 0
 137.126024244 106 126.598663618 89.4899771423 124 70 c 0
 124 48.6666666667 134.748907642 33 157 33 c 0
 179 33 190 45.6666666667 190 71 c 0
 190 91.7649574306 179.169128012 106 157 106 c 0
EndSplineSet
EndChar

StartChar: U0C6B
Encoding: 439 3179 90
Width: 417
GlyphClass: 2
Flags: HW
LayerCount: 2
Back
Fore
SplineSet
328 10 m 0
 343.395530881 10 352 23.7863772945 352 44 c 2
 352 61 l 1
 348 79 l 1
 385 79 l 1
 385 27.3330765653 360.145792892 -14 312 -14 c 0
 269.350296363 -14 244 24.01123899 244 70 c 2
 244 108 l 2
 244 125.243696714 238.324785819 146 222 146 c 0
 184.22405783 146 141.013176011 111.215102123 121.923076923 89.3846153846 c 0
 103.083451359 67.8405576962 82.3404574149 4 45 4 c 0
 28.3333333333 4 20 13.3333333333 20 32 c 0
 20 81.9323429825 83.5339209566 125.200287815 126 146 c 1
 117.370066567 192.026311644 94.3096414476 228.070542649 60 247 c 0
 30 267 14.6666666667 281 14 289 c 0
 14 307 23.3333333333 316 42 316 c 0
 98.4220467413 316 142.296772259 217.632268836 153 158 c 1
 185 167 l 1
 172.333333333 184.333333333 166 205.333333333 166 230 c 0
 166 274.512206922 194.099891049 316 238 316 c 0
 278.456073074 316 304 265.378902619 304 223 c 0
 304 196.333333333 295.666666667 175 279 159 c 1
 295.114610985 149.33123341 297 138.076170673 297 109 c 0
 297 91 298 79.6666666667 300 75 c 0
 300 31.6666666667 309.333333333 10 328 10 c 0
199 237 m 0
 199 208.556524758 208.883193027 175 235 175 c 0
 257.666666667 175 269 195.666666667 269 237 c 0
 269 267.666666667 257.333333333 284 234 286 c 0
 211.053627935 286 199 263.277706312 199 237 c 0
EndSplineSet
EndChar

StartChar: U0C6C
Encoding: 440 3180 91
Width: 475
GlyphClass: 2
Flags: HW
LayerCount: 2
Back
Fore
SplineSet
67 88 m 0
 67 63.6164027958 91.5516137312 47 118 47 c 2
 443 47 l 1
 443 -14 l 1
 106 -14 l 2
 53.998302189 -14 16 20.5631225423 16 72 c 0
 16 111.98617003 37.8799269482 140.551269411 66 154 c 1
 39.254398401 161.429333777 14 196.973002697 14 233 c 0
 14 294.799513103 61.3005131208 316 132 316 c 1
 132 286 l 1
 89.5335613902 286 59 270.666475093 59 232 c 0
 59 205.700403695 82.3266799659 190 110 190 c 2
 255 190 l 1
 255 127 l 1
 118 127 l 2
 91.2284032528 127 67 113.741729155 67 88 c 0
EndSplineSet
EndChar

StartChar: U0C6D
Encoding: 441 3181 92
Width: 370
GlyphClass: 2
Flags: HW
LayerCount: 2
Back
Fore
SplineSet
283 81 m 0
 283 99.4453643885 298.975145071 106 313 106 c 0
 329.666666667 106 338 99 338 85 c 0
 338 15.4955239014 256.272764732 -14 179 -14 c 0
 103.065451436 -14 14 13.6011190383 14 85 c 0
 14 153.212384123 99.1909735323 177 181 177 c 0
 261 177 301 195 301 231 c 0
 301 271.076901923 252.180488791 293 208 293 c 0
 167.310561956 293 112 268.669713394 112 229 c 0
 112 213 103.666666667 204 87 202 c 0
 71.6666666667 202 58 210.560911085 58 229 c 0
 58 290.079867561 132.068828263 321 199 321 c 0
 268.73246986 321 338 291.183463006 338 229 c 0
 338 161.336978414 260.679428217 128 183 128 c 0
 130.599547109 128 69 116.973366666 69 75 c 0
 69 40.0651050593 135.983571086 10 167 10 c 0
 225.769341801 10 283 26.685450359 283 81 c 0
EndSplineSet
EndChar

StartChar: U0C6E
Encoding: 442 3182 93
Width: 471
GlyphClass: 2
Flags: HW
LayerCount: 2
Back
Fore
SplineSet
254 169 m 0
 254 251.883729451 233.065232852 260.934767148 178 316 c 1
 438 316 l 1
 438 257 l 1
 269 257 l 1
 281.992511255 224.518721863 294 185.919960214 294 143 c 0
 294 53.9073472108 241.513021349 -13 156 -13 c 0
 70.5969410487 -13 14 58.8963603643 14 145 c 0
 14 192.669947818 52.3244133111 266 96 266 c 0
 109.333333333 266 113.737704918 259.551912569 113.737704918 242.885245902 c 1
 95.7074165135 221.248899816 59 190.068686523 59 155 c 0
 59 82.3333333333 91 46 155 46 c 0
 221 46 254 87 254 169 c 0
EndSplineSet
EndChar

StartChar: U0C6F
Encoding: 443 3183 94
AltUni2: 002122.ffffffff.0
Width: 475
GlyphClass: 2
Flags: HW
LayerCount: 2
Back
Fore
SplineSet
16 231 m 0
 16 279.12353858 54.569345513 316 106 316 c 2
 443 316 l 1
 443 255 l 1
 118 255 l 2
 84 255 67 242 67 216 c 0
 67 191.299181797 88.3360025093 177 118 177 c 2
 255 177 l 1
 255 115 l 1
 111 115 l 2
 77 115 60 100.333333333 60 71 c 0
 60 35.5441916717 90.9034741854 17 132 17 c 1
 132 -14 l 1
 63.5487113257 -14 14 8.91316360848 14 71 c 0
 14 106.600758498 38.4044731513 141.115563758 66 149 c 1
 32.6666666667 166.333333333 16 193.666666667 16 231 c 0
EndSplineSet
Ligature2: "'blws' Below Base Substitutions in Telugu lookup 7 subtable" copyright U0C30_U0C4D
EndChar

StartChar: U0C78
Encoding: 444 3192 95
Width: 297
GlyphClass: 2
Flags: HW
LayerCount: 2
Back
Fore
SplineSet
228 163 m 1
 250.260681642 156.639805247 280 132.642116653 280 104 c 0
 280 37.4821905755 171.363935769 8.9455743075 124 -10 c 1
 94 28 l 1
 123.371126681 35.3427816701 223 71.5307900477 223 104 c 256
 223 126.252754969 179.287237062 129.54909914 160 134 c 0
 158 133.333333333 155.833333333 133 153.5 133 c 130
 146 133 l 2
 72.514589908 133 21 187.595106413 21 261 c 0
 21 331.880723833 74.8828848412 383 146 383 c 0
 217.960616145 383 272 332.446162369 272 261 c 0
 272 218.560296412 252.05447956 181.990378599 228 163 c 1
146 195 m 0
 186.570740699 195 216 220.661539342 216 261 c 256
 216 301.784471063 186.564350669 333 146 333 c 0
 105.339685891 333 78 302.046931757 78 261 c 0
 78 221.372637727 106.593584618 195 146 195 c 0
EndSplineSet
EndChar

StartChar: U0C79
Encoding: 445 3193 96
Width: 201
GlyphClass: 2
Flags: HW
LayerCount: 2
Back
Fore
SplineSet
80 378 m 1
 137 378 l 1
 137 10 l 1
 80 10 l 1
 80 378 l 1
EndSplineSet
EndChar

StartChar: U0C7A
Encoding: 446 3194 97
Width: 280
GlyphClass: 2
Flags: HW
LayerCount: 2
Back
Fore
SplineSet
135 200 m 0
 150.92952956 200 170.274255609 205.442431776 180 211 c 1
 180 378 l 1
 237 378 l 1
 237 10 l 1
 180 10 l 1
 180 156 l 1
 171.321372376 151.660686185 144.117775247 149 129 149 c 256
 75.2846614887 149 36 187.372677212 36 242 c 2
 36 378 l 1
 93 378 l 1
 93 247 l 2
 93 217.98791056 107.27038196 200 135 200 c 0
EndSplineSet
EndChar

StartChar: U0C7B
Encoding: 447 3195 98
Width: 425
GlyphClass: 2
Flags: HW
LayerCount: 2
Back
Fore
SplineSet
279 200 m 0
 296.426406425 200 314.814260826 205.407130412 326 211 c 1
 326 378 l 1
 382 378 l 1
 382 10 l 1
 326 10 l 1
 326 156 l 1
 316.470869818 152.823623271 289.032062702 149 274 149 c 0
 249.492544169 149 221.601256841 158.398743159 209 171 c 1
 190.196717317 160.031418434 161.109833584 149 129 149 c 0
 75.2846614887 149 36 187.372677212 36 242 c 2
 36 378 l 1
 93 378 l 1
 93 247 l 2
 93 217.98791056 107.27038196 200 135 200 c 0
 159.544804753 200 180 211.552348829 180 237 c 2
 180 378 l 1
 237 378 l 1
 237 238 l 2
 237 213.590970498 255.274387309 200 279 200 c 0
EndSplineSet
EndChar

StartChar: U0C7C
Encoding: 448 3196 99
Width: 398
GlyphClass: 2
Flags: HW
LayerCount: 2
Back
Fore
SplineSet
29 166 m 1
 29 217 l 1
 385 217 l 1
 385 166 l 1
 29 166 l 1
EndSplineSet
EndChar

StartChar: U0C7D
Encoding: 449 3197 100
Width: 463
GlyphClass: 2
Flags: HW
LayerCount: 2
Back
Fore
SplineSet
122 88 m 0
 122 79.484934686 141.021186371 72 149.5 72 c 130
 456 72 l 1
 456 10 l 1
 173 10 l 129
 118.897948421 11.6906891116 65 27.8471275662 65 84 c 0
 65 165.616925922 189.937932483 162.571035162 245.5 188.5 c 128
 254.028071122 192.479766523 259 197.836703407 259 209 c 0
 259 226.651951365 240.74564262 228 220 228 c 2
 72 228 l 1
 72 278 l 1
 220 278 l 2
 272.371849338 278 316 256.892332857 316 209 c 0
 316 117.727126056 190.383844713 131.203211905 130.5 99.5 c 128
 124.833333333 96.5 122 92.6666666667 122 88 c 0
EndSplineSet
EndChar

StartChar: U0C7E
Encoding: 450 3198 101
Width: 502
GlyphClass: 2
Flags: HW
LayerCount: 2
Back
Fore
SplineSet
136 82 m 256
 136 78.3895775561 155.096489736 72.9194081745 160 72 c 130
 495 72 l 1
 495 10 l 1
 151 10 l 129
 115.3456826 14.7539089865 79 33.3263592689 79 74 c 0
 79 136.495286363 143.847248858 139.213736051 203 142.5 c 128
 211.510251188 142.972791732 220 143.94417606 220 151 c 0
 220 161.576269262 186.15703501 161 174 161 c 0
 128.052532079 161 65 167.741130015 65 213 c 0
 65 294.968909145 140.600248118 258.840099251 201 283 c 128
 204.333333333 284.333333333 206 286.666666667 206 290 c 0
 206 295.016962566 199.488127777 301 194.5 301 c 130
 68 301 l 1
 68 351 l 1
 202.5 351 l 129
 233.130289242 346.860771723 263 330.425758512 263 296 c 0
 263 216.910129186 185.248920171 245.0829734 125 225 c 128
 123 224.333333333 122 223 122 221 c 0
 122 211.950758068 161.241874084 212 175 212 c 0
 223.985181037 212 277 205.831494918 277 158 c 0
 277 97.8337582941 213.341734883 88 154.5 88 c 128
 150.166666667 88 146.66227766 86.5 143.5 86.5 c 130
 137.5 86.5 l 130
 136.5 86.1666666667 136 83.3333333333 136 82 c 256
EndSplineSet
EndChar

StartChar: U0C7F
Encoding: 451 3199 102
Width: 521
GlyphClass: 2
Flags: HW
LayerCount: 2
Back
Fore
SplineSet
126 237 m 0
 143.820010673 237 152 250.974177578 152 270 c 0
 152 286.217944625 141.092742636 304 125 304 c 256
 109.787414237 304 97 286.671760963 97 272 c 0
 97 251.038413256 105.945187887 237 126 237 c 0
126 191 m 0
 86.7768238797 191 58.9589143193 215.287599764 54 250 c 1
 52.6666666667 246.666666667 52 243.333333333 52 240 c 0
 51.3333333333 234 51 226.666666667 51 218 c 0
 51 112.403457104 132.433556688 72 239 72 c 0
 341.982921657 72 408.017154265 134.530019965 446 201 c 1
 496 177 l 1
 464.080439124 81.2413173722 356.896937062 11 239 11 c 0
 103.852431751 11 0 79.2530363878 0 218 c 0
 0 293.581320282 41.9287793268 348 119 348 c 0
 173.233407625 348 202 318.308571207 202 263 c 0
 202 221.773040715 166.261619745 191 126 191 c 0
EndSplineSet
EndChar

StartChar: U200C
Encoding: 474 8204 103
Width: 0
GlyphClass: 2
Flags: HW
LayerCount: 2
Back
Fore
SplineSet
0 -342 m 1
 0 752 l 1
 61 752 l 1
 61 -342 l 1
 0 -342 l 1
EndSplineSet
EndChar

StartChar: U200D
Encoding: 475 8205 104
Width: 0
GlyphClass: 2
Flags: HW
LayerCount: 2
Back
Fore
SplineSet
0 -342 m 1
 0 752 l 1
 215 752 l 1
 215 697 l 1
 61 697 l 1
 61 -342 l 1
 0 -342 l 1
EndSplineSet
EndChar

StartChar: U2013
Encoding: 476 8211 105
Width: 531
GlyphClass: 2
Flags: HW
LayerCount: 2
Back
Fore
SplineSet
17 221 m 1
 496 221 l 1
 496 155 l 1
 17 155 l 1
 17 221 l 1
EndSplineSet
EndChar

StartChar: U2014
Encoding: 477 8212 106
Width: 1157
GlyphClass: 2
Flags: HW
LayerCount: 2
Back
Fore
SplineSet
3 221 m 1
 1095 221 l 1
 1095 155 l 1
 3 155 l 1
 3 221 l 1
EndSplineSet
EndChar

StartChar: U2022
Encoding: 486 8226 107
Width: 464
GlyphClass: 2
Flags: HW
LayerCount: 2
Back
Fore
SplineSet
195 402 m 1
 215.353105239 395.215631587 241 376.408761111 241 352 c 0
 241 303.198530906 204 263.960277213 204 217 c 1
 206.666666667 217.666666667 210 219.666666667 214 223 c 2
 287.194620844 306.958535674 l 1
 296.527954177 314.958535674 306 320 318 320 c 0
 343.8358607 320 368 307.163366741 368 277 c 0
 368 209.552772151 250.041762899 221.825057739 212 199 c 1
 258.384652974 175.807673512 367 189.460541864 367 119 c 0
 367 89.1519686631 347.311929552 77 321 77 c 0
 265.596260415 77 236.096959946 158.723382891 203 180 c 1
 203 178 l 2
 203 138.312626039 237 107.679288365 237 74 c 0
 240.333333333 68 242 60.3333333333 242 51 c 0
 242 19.914655774 220.933474951 1.17463689312 195 -5 c 1
 170.334995695 0.872620072706 148 21.17131913 148 50 c 0
 148 94.6883234685 182.601593729 134.063791911 183 180 c 1
 151.542198417 160.641352874 122.471087748 77 70 77 c 0
 40.8005676566 77 20 88.7667938498 20 122 c 0
 20 191.404350839 130.067636937 171.542273086 174 199 c 1
 126.31746442 225.008655772 21 208.844142587 21 278 c 2
 21 301 l 1
 36.3545518306 312.515913873 48.2006644147 321 69 321 c 0
 123.865405218 321 142.332687927 233.944713362 183 217 c 1
 183 223 l 2
 183 266.752449234 146 307.749808404 146 347 c 0
 146 377.93011219 169.223366517 394.97000905 195 402 c 1
EndSplineSet
Substitution2: "Single Substitution lookup 23 subtable" U2022
Ligature2: "'abvs' Above Base Substitutions in Telugu lookup 4 subtable" U0C15_U0C4D_U0C37 U0C41
EndChar

StartChar: U2026
Encoding: 487 8230 108
Width: 834
GlyphClass: 2
Flags: HW
LayerCount: 2
Back
Fore
SplineSet
17 24 m 1
 174 24 l 1
 174 -33 l 1
 17 -33 l 1
 17 24 l 1
336 24 m 1
 494 24 l 1
 494 -33 l 1
 336 -33 l 1
 336 24 l 1
643 24 m 1
 800 24 l 1
 800 -33 l 1
 643 -33 l 1
 643 24 l 1
EndSplineSet
EndChar

StartChar: U20B9
Encoding: 493 8377 109
Width: 570
GlyphClass: 2
Flags: HW
LayerCount: 2
Back
Fore
SplineSet
400 318 m 1
 400 238.311187929 321.429048216 165 240 165 c 1
 402 59 l 2
 414.040674258 51.2595665481 431 40.1305448794 431 25 c 0
 431 4.83816081129 410.948171873 -12.4924528201 391 1 c 2
 72.3344519337 216.537538983 l 2
 66.3344519337 221.20420565 65 227 65 229 c 0
 65 245.381450604 80.7038317113 257 98 257 c 0
 107.420726988 257 124.700081751 243.499954582 131 240 c 0
 163.666666667 224 193 216 219 216 c 0
 280.182181357 216 341 258.462373774 341 318 c 1
 76 318 l 2
 60.8148237596 318 40 325.065394019 40 338 c 0
 40 342.666666667 43.6666666667 349.666666667 51 353 c 1
 340 353 l 1
 328.321851366 394.707673689 291.106976217 428.13581427 253 451 c 1
 69 451 l 2
 55.783427588 451 42 458.745115814 42 470 c 0
 42 482.314748292 54.5928666854 491 69 491 c 2
 520 491 l 2
 532.647364705 491 541 481.921567935 541 470 c 0
 541 459.062930745 531.560071329 451 520 451 c 2
 336 451 l 1
 361.918928717 429.400892736 388.918295152 392.401617238 400 353 c 1
 533 353 l 1
 538.333333333 349.666666667 541 342.666666667 541 338 c 0
 541 325.598397267 527.243809303 318 513 318 c 2
 400 318 l 1
EndSplineSet
EndChar

StartChar: arrowleft
Encoding: 496 8592 110
Width: 653
GlyphClass: 2
Flags: HW
LayerCount: 2
Back
Fore
SplineSet
239 434 m 1
 239 382.588808517 220.043833897 323.047486723 196 297 c 1
 636 297 l 1
 636 247 l 1
 194 247 l 1
 220.236312072 210.925070901 239 169.660323784 239 108 c 1
 179.610323954 189.338034584 123.408862772 235.076708114 24 272 c 1
 123.304691617 307.465961292 179.733441878 354.11898688 239 434 c 1
EndSplineSet
EndChar

StartChar: arrowup
Encoding: 497 8593 111
Width: 362
GlyphClass: 2
Flags: HW
LayerCount: 2
Back
Fore
SplineSet
352 367 m 1
 297.329277467 367 240.45018383 385.379828426 213 411 c 1
 213 -31 l 1
 164 -31 l 1
 164 412 l 1
 128.027777703 385.838383784 87.7699785481 367 26 367 c 1
 106.134100597 425.161847208 152.664036487 482.059302165 188 581 c 1
 224.760254248 482.030084715 270.453875132 425.247232049 352 367 c 1
EndSplineSet
EndChar

StartChar: arrowright
Encoding: 498 8594 112
Width: 654
GlyphClass: 2
Flags: HW
LayerCount: 2
Back
Fore
SplineSet
423 108 m 1
 423 163.203223804 442.40491217 217.506140213 466 247 c 1
 26 247 l 1
 26 297 l 1
 468 297 l 1
 441.808072047 331.376905437 423 374.941225521 423 434 c 1
 481.13949016 353.896702446 539.087202458 307.325999123 638 272 c 1
 539.058203275 235.250189789 481.224915053 189.514881075 423 108 c 1
EndSplineSet
EndChar

StartChar: arrowdown
Encoding: 499 8595 113
Width: 363
GlyphClass: 2
Flags: HW
LayerCount: 2
Back
Fore
SplineSet
29 177 m 1
 89.1334120635 177 131.30700233 156.95854376 167 131 c 1
 167 573 l 1
 216 573 l 1
 216 133 l 1
 244.063425347 157.321635301 301.271280177 177 355 177 c 1
 273.692735157 117.632790749 227.913354763 60.3821089783 191 -39 c 1
 155.543724365 60.2775717747 108.849697534 117.756676023 29 177 c 1
EndSplineSet
EndChar

StartChar: U2212
Encoding: 504 8722 114
Width: 531
GlyphClass: 2
Flags: HW
LayerCount: 2
Back
Fore
SplineSet
17 221 m 1
 496 221 l 1
 496 155 l 1
 17 155 l 1
 17 221 l 1
EndSplineSet
EndChar

StartChar: U25CC
Encoding: 513 9676 115
Width: 704
GlyphClass: 2
Flags: HW
LayerCount: 2
Back
Fore
SplineSet
352 426 m 0
 330.875085327 426 312 443.849674818 312 465 c 0
 312 486.982184116 330.337829095 505 352 505 c 0
 374.510352671 505 392 487.509802536 392 465 c 0
 392 443.322729604 373.972384868 426 352 426 c 0
352 -89 m 0
 330.875085327 -89 312 -71.1503251814 312 -50 c 0
 312 -28.0178158836 330.337829095 -10 352 -10 c 0
 374.510352671 -10 392 -27.4901974637 392 -50 c 0
 392 -71.677270397 373.972384868 -89 352 -89 c 0
95 168 m 0
 72.4896473287 168 55 185.490197464 55 208 c 0
 55 229.677270396 73.0276151318 247 95 247 c 0
 116.150967004 247 134 229.150325182 134 208 c 0
 134 186.024492461 116.6790676 168 95 168 c 0
609 168 m 0
 587.322729604 168 570 186.027615132 570 208 c 0
 570 229.150967004 587.849674818 247 609 247 c 0
 630.975507539 247 649 229.6790676 649 208 c 0
 649 185.489647329 631.509802536 168 609 168 c 0
130 40 m 0
 108.024492461 40 90 57.3209324008 90 79 c 0
 90 101.510352671 107.490197464 119 130 119 c 0
 151.677270396 119 169 100.972384869 169 79 c 0
 169 57.8490329947 151.150325182 40 130 40 c 0
575 297 m 0
 553.322729604 297 536 315.027615132 536 337 c 0
 536 358.150967004 553.849674818 376 575 376 c 0
 596.975507539 376 615 358.6790676 615 337 c 0
 615 314.489647329 597.509802536 297 575 297 c 0
481 392 m 0
 459.024492461 392 441 409.3209324 441 431 c 0
 441 453.510352671 458.490197464 471 481 471 c 0
 502.677270396 471 520 452.972384868 520 431 c 0
 520 409.849032996 502.150325182 392 481 392 c 0
223 -55 m 0
 201.329317224 -55 184 -35.9370775996 184 -14 c 0
 184 7.15096700541 201.849674818 25 223 25 c 0
 244.975507539 25 263 7.67906759917 263 -14 c 0
 263 -36.4843003388 245.509802536 -55 223 -55 c 0
130 297 m 0
 107.489647329 297 90 314.490197464 90 337 c 0
 90 358.677270396 108.027615132 376 130 376 c 0
 151.150967004 376 169 358.150325182 169 337 c 0
 169 315.024492461 151.6790676 297 130 297 c 0
575 40 m 0
 553.849032996 40 536 57.8496748186 536 79 c 0
 536 100.97550754 553.3209324 119 575 119 c 0
 597.510352671 119 615 101.509802537 615 79 c 0
 615 57.322729603 596.972384868 40 575 40 c 0
223 392 m 0
 201.849032996 392 184 409.849674818 184 431 c 0
 184 452.975507539 201.3209324 471 223 471 c 0
 245.510352671 471 263 453.509802536 263 431 c 0
 263 409.322729604 244.972384868 392 223 392 c 0
481 -55 m 0
 458.489647329 -55 441 -36.4836585146 441 -14 c 0
 441 7.67727039708 459.027615132 25 481 25 c 0
 502.150967004 25 520 7.15032518131 520 -14 c 0
 520 -35.9404243045 502.672450748 -55 481 -55 c 0
EndSplineSet
EndChar

StartChar: glyph225
Encoding: 522 -1 116
Width: 396
GlyphClass: 2
Flags: HW
LayerCount: 2
Back
Fore
SplineSet
339 303 m 1
 339 28 l 1
 64 28 l 1
 64 303 l 1
 339 303 l 1
EndSplineSet
EndChar

StartChar: glyph226
Encoding: 523 -1 117
Width: 396
GlyphClass: 2
Flags: HW
LayerCount: 2
Back
Fore
SplineSet
339 303 m 1
 339 28 l 1
 64 28 l 1
 64 303 l 1
 339 303 l 1
EndSplineSet
EndChar

StartChar: glyph227
Encoding: 524 -1 118
Width: 396
GlyphClass: 2
Flags: HW
LayerCount: 2
Back
Fore
SplineSet
339 303 m 1
 339 28 l 1
 64 28 l 1
 64 303 l 1
 339 303 l 1
EndSplineSet
EndChar

StartChar: U0C15_0C3E
Encoding: 525 -1 119
Width: 610
GlyphClass: 2
Flags: HW
LayerCount: 2
Back
Fore
SplineSet
484 215 m 0
 454.654274523 215 428 196.124358168 428 167 c 0
 428 132.660129402 449.708931047 113 484 113 c 0
 516.957584279 113 538 135.628471329 538 169 c 0
 538 196.469535918 512.453578714 215 484 215 c 0
277 213 m 0
 228.487092886 213 206.538718314 273 152 273 c 1
 152 273 l 1
 120.02253844 273 83 263.408669617 83 236 c 0
 83 196.926718844 133.586149997 193 182 193 c 0
 193.333333333 193 204.666666667 193 216 193 c 0
 276.872287084 193 335 169.652835118 335 114 c 0
 335 46.04450073 249.196509294 0 176 0 c 0
 100.122773438 0 15 16.5031026282 15 81 c 0
 15 101.526585017 34.3242867899 115 55 115 c 0
 68.3333333333 115 81.3333333333 105 94 85 c 0
 116 50.3333333333 146.666666667 33 186 33 c 0
 216.030029854 33 256 54.0109355766 256 82 c 0
 256 116.763623608 208.863156208 133 170 133 c 2
 130 133 l 2
 66.0352514453 133 20 151.764388473 20 212 c 0
 20 236 29.6666666667 256.333333333 49 273 c 1
 49 273 l 1
 24.6294515612 273 15 277.228599718 15 301 c 0
 15 323.487971127 24.1703495566 329 48 329 c 2
 464 329 l 2
 541.008408162 329 585 264.892652964 585 185 c 0
 585 109.442385769 554.124426297 48 484 48 c 0
 425.522070723 48 381 86.2154485378 381 145 c 0
 381 205.275849228 418.684651646 245 478 245 c 0
 510.912102721 245 536.102561866 231.276925761 553 211 c 1
 553 243.442014156 509.928636592 273 476 273 c 2
 291 273 l 1
 303.666666667 263 310 252.666666667 310 242 c 0
 310 224.761888553 294.29728603 213 277 213 c 0
EndSplineSet
Substitution2: "Single Substitution lookup 23 subtable" U0C15_U0C4D_U0C30_U0C3E
Ligature2: "'abvs' Above Base Substitutions in Telugu lookup 4 subtable" U0C15 U0C3E
EndChar

StartChar: U0C16_U0C3E
Encoding: 526 -1 120
Width: 734
GlyphClass: 2
Flags: HW
LayerCount: 2
Back
Fore
SplineSet
240 95 m 1
 228.052805585 121.549320922 189.631820531 137 152 137 c 0
 120.441537115 137 84 125.085693303 84 97 c 0
 84 68.2177366008 122.637422024 60 157 60 c 0
 197.586915629 60 218.150457767 73.1504577678 240 95 c 1
608 210 m 0
 577.990379652 210 552 192.638059824 552 163 c 0
 552 128.341880677 572.642166671 109 608 109 c 0
 641.072676174 109 662 131.194633353 662 164 c 0
 662 191.753185982 636.835417437 210 608 210 c 0
175 255 m 0
 175 275.05587466 157.997886485 287 138 287 c 0
 112.222811423 287 95 273.841737421 95 250 c 0
 95 230.991633172 116.903614131 220 137 220 c 0
 156.893153701 220 175 234.621394592 175 255 c 0
298 -56 m 256
 298 -79.3089687432 281.809655146 -94 258 -94 c 0
 233.388561766 -94 217 -80.3254516404 217 -56 c 0
 217 -27.5587516293 240.098150611 -3.00794931821 258 17 c 1
 275.762870789 2.78970336907 298 -29.0302518201 298 -56 c 256
677 206 m 1
 677 247.635322207 630.108743491 272 586 272 c 2
 417 272 l 1
 445.313837059 243.686162941 463 202.044283177 463 160 c 0
 463 72.0821383574 427.032431061 0 346 0 c 0
 302.833178664 0 277.664389227 18.9799319835 260 48 c 1
 234.766275739 18.9812170992 192.653439316 0 139 0 c 0
 75.5019381553 0 15 31.2193638112 15 92 c 0
 15 149.858495396 76.771511944 178 140 178 c 0
 191.576444338 178 234.733606428 159.74083912 258 131 c 1
 262.666666667 140.333333333 265 152.333333333 265 167 c 0
 265 207.004359559 241.422866594 266.085712139 211 273 c 1
 211.666666667 270.333333333 212 265 212 257 c 0
 210.65278023 209.847308065 165.8089328 188 115 188 c 0
 72.3098294481 188 29 206.489053636 29 245 c 0
 29 294.311357262 89.4559944268 319 144 319 c 0
 242.97784367 319 301 260.806906215 301 162 c 0
 301 153.333333333 298.333333333 139 293 119 c 1
 293 112 l 1
 300.783025997 89.9480930105 324.978912047 78 353 78 c 0
 401.149784348 78 427 111.024513546 427 161 c 0
 427 213.758625436 393.674457749 265.700074792 348 272 c 1
 326 272 l 2
 316.199558387 272 312 288.748941194 312 299 c 0
 312 310.720871342 316.279717955 328 326 328 c 2
 589 328 l 2
 665.181367083 328 709 260.006288103 709 180 c 0
 709 105.103063838 678.617077766 44 608 44 c 0
 548.998928147 44 505 81.053432858 505 140 c 0
 505 200.748414821 540.794212772 240 601 240 c 0
 636.428583463 240 659.466218011 227.040538387 677 206 c 1
EndSplineSet
Substitution2: "Single Substitution lookup 23 subtable" U0C16_U0C4D_U0C30_U0C3E
Ligature2: "'abvs' Above Base Substitutions in Telugu lookup 4 subtable" U0C16 U0C3E
EndChar

StartChar: U0C17_U0C3E
Encoding: 527 -1 121
Width: 633
GlyphClass: 2
Flags: HW
LayerCount: 2
Back
Fore
SplineSet
508 215 m 0
 478.49129649 215 452 197.130867579 452 167 c 0
 452 131.659916297 473.437909421 113 508 113 c 0
 540.957584279 113 562 135.628471329 562 169 c 0
 562 196.469535918 535.669790983 215 508 215 c 0
577 211 m 1
 577 243.910142291 533.694931957 273 499 273 c 2
 306 273 l 1
 345.480152274 242.293214896 372 192.910820078 372 139 c 0
 372 76.061636142 361.716584622 8.16367582522 316 0 c 1
 288 0 l 2
 271.407881267 0 258 26.158443801 258 43 c 0
 258 87.9387631458 307 128.046038174 307 176 c 0
 307 237.447933811 256.055625894 273 193 273 c 0
 130.725535756 273 80 237.00188167 80 176 c 0
 80 128.312160424 130 88.3600278633 130 43 c 0
 130 27.4920875624 115.401942873 0 100 0 c 2
 86 0 l 1
 22.8868893614 -3.9445694149 15 71.2574812138 15 139 c 0
 15 196.027209562 40.6011446426 240.27600156 78 273 c 1
 71 273 l 2
 48.0058612089 273 38 278.519416871 38 301 c 0
 38 322.639295503 48.0246712883 329 71 329 c 2
 487 329 l 2
 565.137008066 329 608 266.061655209 608 185 c 0
 608 108.913228265 578.316909583 48 508 48 c 0
 449.687262837 48 404 86.741610038 404 145 c 0
 404 204.229329071 441.984574569 245 501 245 c 0
 534.822417147 245 559.808736101 231.629516678 577 211 c 1
EndSplineSet
Substitution2: "Single Substitution lookup 23 subtable" U0C17_U0C4D_U0C30_U0C3E
Ligature2: "'abvs' Above Base Substitutions in Telugu lookup 4 subtable" U0C17 U0C3E
EndChar

StartChar: U0C18_U0C3E
Encoding: 528 -1 122
Width: 857
GlyphClass: 2
Flags: HW
LayerCount: 2
Back
Fore
SplineSet
200 146 m 0
 200 180.07623153 166.173652168 205 131 205 c 256
 95.5453466472 205 64 180.393876706 64 146 c 0
 64 106.090545212 93.3038185357 76 133 76 c 0
 176.768676912 76 200 103.06229303 200 146 c 0
730 196 m 256
 701.285989438 196 675 177.038881178 675 148 c 0
 675 113.862343604 695.478416359 94 730 94 c 0
 762.701717586 94 785 115.906323652 785 149 c 0
 785 177.809346503 759.054016728 196 730 196 c 256
56 393 m 0
 87.3374910195 393 105.869531102 310 135 310 c 0
 162.773617714 310 202.635555734 376.849206667 238 440 c 0
 249.477483166 461.911558773 256.411858449 473 284 473 c 0
 305.947130155 473 325 456.079953769 325 433 c 0
 325 401.759600518 265.167531339 362.979050353 240 340 c 0
 189.333333333 295.333333333 154.333333333 273 135 273 c 0
 90.9372938216 273 17 311.885390342 17 353 c 0
 17 377.560475952 30.1727422266 393 56 393 c 0
478 -2 m 0
 435.396807349 -2 402.668800687 16.1061317303 389 48 c 1
 369 16 336.666666667 0 292 0 c 0
 257.932648134 0 226.032819332 25.3441081783 220 54 c 1
 207.88683719 25.2312383233 167.886539401 -1 128 -1 c 0
 65.775978643 -1 15 53.3283947864 15 116 c 0
 15 190.043055899 62.5548650577 239 138 239 c 0
 196.33441474 239 227.80982087 199.652042729 242 151 c 0
 257.333333333 105.666666667 281 83 313 83 c 0
 357.253200376 83 376 124.260089153 376 174 c 0
 376 215.967191408 338.717862309 252 295 252 c 0
 276.643528595 252 261 262.256736123 261 280 c 0
 261 299.909616597 271.779831293 310 292 310 c 0
 369.04445552 310 411 227.132193672 411 145 c 0
 411 129.666666667 410 115.666666667 408 103 c 1
 420.210438615 85.9053859375 449.968403245 76 478 76 c 0
 526.305316903 76 568 124.905104917 568 174 c 0
 568 222.674491133 532.708378135 262 484 262 c 0
 458.592319227 262 445 264.262128623 445 286 c 0
 445 303.26051925 461.237626587 310 480 310 c 2
 710 310 l 2
 787.510674335 310 832 245.291280408 832 166 c 0
 832 89.8213146003 801.05066038 29 730 29 c 0
 671.813492891 29 628 67.2604872975 628 125 c 0
 628 185.568864267 664.322360922 226 724 226 c 0
 759.613186238 226 782.221237038 212.14926469 800 192 c 1
 800 224.910142291 755.912699767 254 722 254 c 2
 572 254 l 1
 592 224 602 192.666666667 602 160 c 0
 602 69.6438891441 561.364126829 -2 478 -2 c 0
259 -64 m 256
 259 -87.3089687432 242.809655146 -102 219 -102 c 256
 193.972087802 -102 178 -89.3951841827 178 -65 c 256
 178 -35.9131963253 200.515538752 -11.6591037487 219 9 c 1
 236.003623158 -8.00362315843 259 -35.1652334689 259 -64 c 256
EndSplineSet
Substitution2: "Single Substitution lookup 23 subtable" U0C18_U0C4D_U0C30_U0C3E
Ligature2: "'abvs' Above Base Substitutions in Telugu lookup 4 subtable" U0C18 U0C3E
EndChar

StartChar: U0C19_U0C3E
Encoding: 529 -1 123
Width: 665
GlyphClass: 2
Flags: HW
LayerCount: 2
Back
Fore
SplineSet
538 210 m 256
 508.781000826 210 483 192.176746846 483 163 c 0
 483 128.862343604 503.478416359 109 538 109 c 0
 571.814983332 109 593 130.621795539 593 164 c 0
 593 192.223588295 567.615207577 210 538 210 c 256
608 206 m 1
 608 247.635322207 561.108743491 272 517 272 c 2
 290 272 l 1
 285.436145131 267.436145131 279.005730508 257.007640678 276 253 c 1
 359 253 l 1
 359 217 l 1
 205 217 l 1
 197 191.666666667 169.333333333 172 122 158 c 0
 83.3333333333 146 64 130.666666667 64 112 c 0
 64 80.8158497291 98.4895529096 76 137 76 c 0
 167.06845244 76 202 104.841904623 202 135 c 0
 202 146.063645844 203.533846216 151 214 151 c 0
 223.151018266 151 225 141.580944399 225 131 c 0
 225 96.5742715058 247.238648848 79 284 79 c 0
 318.007443111 79 346 106.160114239 346 139 c 0
 346 159 341 176 331 190 c 0
 330.333333333 190 330 190.333333333 330 191 c 2
 330 192 l 2
 330 195.540870441 335.44994353 199 340 199 c 2
 344 199 l 1
 346 197.666666667 347.666666667 197 349 197 c 0
 378.291821297 184.184828182 397 150.246831531 397 109 c 0
 397 51.1406495584 352.081840294 0 295 0 c 0
 254.102444954 0 225.215935998 18.6113152046 210 46 c 1
 192.144629185 16.2410486425 161.961228295 0 117 0 c 0
 61.1110304715 0 15 38.587213108 15 92 c 0
 15 185.700572908 95.7239290652 164.47055389 155 203 c 0
 169.666666667 214.333333333 177 226 177 238 c 0
 177 267.846558519 158.597026773 285 128 285 c 0
 105.638841247 285 85 277.039104681 85 257 c 0
 85 252.300344548 93 237.747972659 93 232 c 0
 93 213.801041897 77.2161097824 208 58 208 c 0
 36.5255790686 208 20 228.001221437 20 250 c 0
 20 294.632315784 64.7558835265 323 113 323 c 0
 167.039558494 323 203.733155338 301.357572835 208 253 c 1
 267 253 l 1
 263.120340869 260.759318264 252.191950269 272.212074597 247 280 c 1
 247 284 l 2
 244.333333333 290 241 295 241 299 c 0
 241 311.327194895 246.888324714 328 257 328 c 2
 519 328 l 2
 596.07090589 328 640 260.580587473 640 180 c 0
 640 104.480030864 609.542322936 44 538 44 c 0
 479.813492891 44 436 81.5525141001 436 140 c 0
 436 200.748414821 471.794212772 240 532 240 c 0
 567.428583463 240 590.466218011 227.040538387 608 206 c 1
EndSplineSet
Substitution2: "Single Substitution lookup 23 subtable" U0C19_U0C4D_U0C30_U0C3E
Ligature2: "'abvs' Above Base Substitutions in Telugu lookup 4 subtable" U0C19 U0C3E
EndChar

StartChar: U0C1A_U0C3E
Encoding: 530 -1 124
Width: 717
GlyphClass: 2
Flags: HW
LayerCount: 2
Back
Fore
SplineSet
591 216 m 0
 562.076726809 216 536 197.800606353 536 169 c 0
 536 133.010837346 555.692565155 114 591 114 c 0
 624.592988906 114 646 136.600794617 646 169 c 0
 646 196.074648701 619.881309909 216 591 216 c 0
661 212 m 1
 661 244.910142291 616.912699767 274 583 274 c 2
 390 274 l 1
 419.162314933 241.192395698 437 193.493063 437 137 c 0
 437 66.2044795777 396.245481971 0 329 0 c 0
 293.741922091 0 265.219920964 18.1701185546 250 41 c 1
 231.072165396 17.0247428346 208.318418477 0 169 0 c 0
 110.739846875 0 65 36.9370195573 65 95 c 0
 65 122.739059641 78.5697364584 148.459716187 93 164 c 1
 43 164 l 2
 24.3333333334 164 15 169.228757247 15 188 c 0
 15 207.607276256 24.4171420752 215 45 215 c 2
 166 215 l 2
 181.309464176 215 194 207.108082752 194 193 c 0
 194 177.053739935 180.676648467 169 163 169 c 0
 130.885326649 169 110 156.057987102 110 125 c 0
 110 93.9398788726 142.941004882 79 176 79 c 0
 207.449783838 79 242 96.8262268046 242 125 c 0
 242 134.547907894 244.30647476 143 253 143 c 256
 262.051721894 143 265 134.401957793 265 125 c 0
 265 97.9340740175 291.905494788 80 320 80 c 0
 369.297476173 80 400 120.75891631 400 171 c 256
 400 230.985128569 351.861447664 272.576027134 290.996608217 272.576027134 c 2
 113 274 l 2
 97.1688655868 274 80 286.464053443 80 301 c 0
 80 316.411891196 96.6012095226 329 113 329 c 2
 571 329 l 2
 648.943169669 329 692 265.766775174 692 185 c 0
 692 109.063497222 661.188250325 49 591 49 c 0
 531.690199399 49 488 87.9310945547 488 146 c 0
 488 205.80534146 525.35323424 246 585 246 c 0
 620.315560644 246 643.580113796 231.742537697 661 212 c 1
EndSplineSet
Substitution2: "Single Substitution lookup 23 subtable" U0C1A_U0C4D_U0C30_U0C3E
Ligature2: "'abvs' Above Base Substitutions in Telugu lookup 4 subtable" U0C1A U0C3E
EndChar

StartChar: U0C1B_U0C3E
Encoding: 531 -1 125
Width: 718
GlyphClass: 2
Flags: HW
LayerCount: 2
Back
Fore
SplineSet
592 216 m 256
 564.053615963 216 536 197.250608406 536 169 c 0
 536 133.492777381 556.13112653 114 592 114 c 0
 625.814983332 114 647 135.621795539 647 169 c 0
 647 196.074648701 620.881309909 216 592 216 c 256
290 -64 m 0
 290 -87.3089687432 273.809655146 -102 250 -102 c 0
 225.683775264 -102 209 -89.3951841827 209 -65 c 256
 209 -34.5117504705 231.28549457 -11.9162119515 250 9 c 1
 261.410655075 -16.6739739186 290 -31.6557213692 290 -64 c 0
661 212 m 1
 661 245.435495954 618.032985921 274 584 274 c 2
 392 274 l 1
 423.755956187 248.595235045 437 197.467786525 437 137 c 0
 437 66.2044795777 396.245481971 0 329 0 c 0
 293.741922091 0 265.219920964 18.1701185546 250 41 c 1
 231.072165396 17.0247428346 208.318418477 0 169 0 c 0
 110.739846875 0 65 36.9370195573 65 95 c 0
 65 122.739059641 78.5697364584 148.459716187 93 164 c 1
 43 164 l 2
 24.3333333334 164 15 169.228757247 15 188 c 0
 15 207.607276256 24.4171420752 215 45 215 c 2
 166 215 l 2
 181.309464176 215 194 207.108082752 194 193 c 0
 194 177.053739935 180.676648467 169 163 169 c 0
 130.885326649 169 110 156.057987102 110 125 c 0
 110 93.9398788726 142.941004882 79 176 79 c 0
 207.449783838 79 242 96.8262268046 242 125 c 0
 242 134.547907894 244.30647476 143 253 143 c 256
 262.051721894 143 265 134.401957793 265 125 c 0
 265 97.9340740175 291.905494788 80 320 80 c 0
 369.297476173 80 400 120.75891631 400 171 c 256
 400 230.98636422 351.863267164 272.572608441 290.996553294 272.572608441 c 2
 114 274 l 2
 97.9285818186 274 82 284.939267337 82 301 c 0
 82 317.885242367 97.2991028059 329 114 329 c 2
 572 329 l 2
 649.943169669 329 693 265.766775174 693 185 c 0
 693 109.063497222 662.828879507 49 592 49 c 0
 533.184834459 49 489 86.9058164802 489 146 c 0
 489 204.75382088 526.646646388 246 586 246 c 0
 620.450692408 246 644.358068979 232.208059097 661 212 c 1
EndSplineSet
Substitution2: "Single Substitution lookup 23 subtable" U0C1B_U0C4D_U0C30_U0C3E
Ligature2: "'abvs' Above Base Substitutions in Telugu lookup 4 subtable" U0C1B U0C3E
EndChar

StartChar: U0C1C_U0C3E
Encoding: 532 -1 126
Width: 656
GlyphClass: 2
Flags: HW
LayerCount: 2
Back
Fore
SplineSet
530 211 m 256
 500.781000826 211 475 193.176746846 475 164 c 0
 475 129.050595423 495.747104223 109 530 109 c 0
 563.182543238 109 585 131.894703678 585 165 c 0
 585 191.896016412 558.288675592 211 530 211 c 256
599 208 m 1
 599 249.786141611 552.428094262 273 508 273 c 2
 359 273 l 1
 364.333333333 264.333333333 367 253.666666667 367 241 c 0
 367 194.265932842 320.636051619 169 270 169 c 0
 236.200800401 169 209.01726933 179.37582294 195 199 c 1
 185 181.666666667 160.333333333 167 121 155 c 0
 82.3333333333 143 63 128 63 110 c 0
 63 81.9092914112 88.5424513443 74 119 74 c 0
 157.373197904 74 198 96.5703459316 198 132 c 0
 198 142.379402501 200.887622206 148 211 148 c 0
 219.128777801 148 221 137.837286994 221 128 c 0
 221 96.8704939755 246.184775331 77 279 77 c 0
 314.181916439 77 346 91.6926680514 346 124 c 0
 346 137.810192472 332 142.640634552 332 153 c 0
 332 158.393772213 336.700605097 161 341 161 c 0
 374.842643695 161 389 129.105585223 389 93 c 0
 389 42.0730884033 345.11009148 3 295 3 c 0
 255.335844219 3 225.118526558 18.9394907642 211 46 c 1
 194.710749336 16.3831806088 159.441075091 0 115 0 c 256
 61.0204375634 0 15 37.5049788745 15 90 c 0
 15 150.479092245 51.9590189713 172.090564214 110 182 c 0
 136.949313328 185.515127826 174 206.971453835 174 234 c 0
 174 263.332084895 155.341388943 280 126 280 c 0
 104.30148071 280 84 271.676304388 84 253 c 0
 84 248.899733208 91 233.042554363 91 227 c 0
 91 209.478423036 77.2374623319 205 57 205 c 0
 37.3874423388 205 20 224.433550428 20 245 c 0
 20 290.470683734 65.4751275209 317 112 317 c 0
 166.482222781 317 195.701912003 295.162141696 205 250 c 0
 210.848152157 219.297201179 230.856012155 206 267 206 c 0
 294.556960968 206 320 216.62854247 320 241 c 0
 320 268.044763562 295.454497269 273 263 273 c 2
 249 273 l 2
 239.41825522 273 235 281.129203478 235 291 c 2
 235 301 l 2
 235 312.052980172 238.972514758 329 249 329 c 2
 511 329 l 2
 588.323611905 329 631 262.195106983 631 181 c 0
 631 105.088065549 601.245965144 44 530 44 c 0
 472.264335181 44 427 82.2154485378 427 141 c 0
 427 200.499237109 463.946825369 241 524 241 c 0
 558.492883439 241 582.32904073 228.243307685 599 208 c 1
EndSplineSet
Substitution2: "Single Substitution lookup 23 subtable" U0C1C_U0C4D_U0C30_U0C3E
Ligature2: "'abvs' Above Base Substitutions in Telugu lookup 4 subtable" U0C1C U0C3E
EndChar

StartChar: U0C1D_U0C3E
Encoding: 533 -1 127
Width: 984
GlyphClass: 2
Flags: HW
LayerCount: 2
Back
Fore
SplineSet
305 183 m 0
 305 239.981762755 249.307523704 273 189 273 c 0
 119.819117256 273 71 238.053883433 71 171 c 0
 71 106.213958925 122.030903842 74 189 74 c 0
 252.269744744 74 305 119.230525367 305 183 c 0
858 196 m 0
 828.654274523 196 802 176.486516457 802 148 c 0
 802 113.341880677 822.642166671 94 858 94 c 0
 890.436523717 94 913 116.880636708 913 149 c 0
 913 176.779193877 886.140172429 196 858 196 c 0
557 -56 m 256
 557 -79.3089687432 540.809655146 -94 517 -94 c 0
 492.388561766 -94 476 -80.3254516404 476 -56 c 0
 476 -27.5587516293 499.098150611 -3.00794931821 517 17 c 1
 535.092001233 2.52639901342 557 -27.5301237889 557 -56 c 256
15 151 m 0
 15 217.57394013 52.6561713615 269.467411875 104 293 c 1
 78.2755926016 318.724407398 56 320.933648424 56 350 c 0
 56 374.060130805 71.4550001728 391 95 391 c 0
 126.314817765 391 144.843757549 310 174 310 c 0
 201.162259934 310 242.926588035 372.692627067 277 438 c 0
 288.55744326 459.013533201 295.769359375 470 323 470 c 0
 345.484300339 470 364 453.535946557 364 431 c 0
 364 390.315351342 265.821197768 325.300855548 236 304 c 1
 303.423592098 286.752104348 353 230.023203127 353 151 c 0
 353 137 351.666666667 123.666666667 349 111 c 1
 362.872897181 87.8785047001 389.460291595 76 423 76 c 0
 471.981321912 76 504 121.277281284 504 174 c 0
 504 223.11797969 468.286837731 273 420 273 c 0
 395.197604696 273 381 270.607201662 381 290 c 256
 381 307.782894816 394.617350172 310 416 310 c 0
 482.571932753 310 538 229.944966939 538 160 c 0
 538 140.666666667 536.333333333 123 533 107 c 1
 545.853417197 87.7198742038 573.659384704 76 605 76 c 0
 653.599023338 76 695 123.725358889 695 174 c 0
 695 222.674491133 660.43381118 262 611 262 c 0
 585.664855222 262 572 265.063894622 572 286 c 0
 572 303.655524294 588.489974869 310 608 310 c 2
 838 310 l 2
 915.008408162 310 959 245.892652964 959 166 c 0
 959 89.2910658213 928.607431439 29 858 29 c 0
 798.998928147 29 755 66.7587695654 755 125 c 0
 755 185.568864267 792.02756151 226 851 226 c 0
 886.076676994 226 910.413369723 212.140908193 927 192 c 1
 927 225.435495954 884.032985921 254 850 254 c 2
 700 254 l 1
 720 224 730 192.666666667 730 160 c 0
 730 70.8892671705 688.945162415 -2 606 -2 c 0
 552.620347491 -2 534.74872119 21.7646100363 514 56 c 1
 492.666666667 18.6666666667 459.666666667 0 415 0 c 0
 373.35322711 0 337.42644879 24.6365951072 320 57 c 1
 294.779553039 19.1693295625 240.376413964 0 189 0 c 0
 94.1152546742 0 15 58.6906619111 15 151 c 0
EndSplineSet
Substitution2: "Single Substitution lookup 23 subtable" U0C1D_U0C4D_U0C30_U0C3E
Ligature2: "'abvs' Above Base Substitutions in Telugu lookup 4 subtable" U0C1D U0C3E
EndChar

StartChar: U0C1E_U0C3E
Encoding: 534 -1 128
Width: 776
GlyphClass: 2
Flags: HW
LayerCount: 2
Back
Fore
SplineSet
295 95 m 1
 280.123817378 126.104745484 229.685058557 144 182 144 c 0
 147.842854013 144 117 129.286568618 117 98 c 0
 117 69.6807584948 154.712255206 59 187 59 c 0
 232.369000811 59 270.726162943 72.8369313827 295 95 c 1
650 211 m 256
 620.936648802 211 595 192.167932292 595 164 c 0
 595 129.050595423 615.747104223 109 650 109 c 0
 683.182543238 109 705 131.894703678 705 165 c 0
 705 191.896016412 678.288675592 211 650 211 c 256
719 208 m 1
 719 249.786141611 672.428094262 273 628 273 c 2
 461 273 l 1
 458.774934791 263.358050761 446.830066819 244.12810691 438 230 c 1
 508 230 l 1
 508 194 l 1
 383 194 l 1
 384.333333333 191.333333333 385 187.333333333 385 182 c 0
 385 149.333333333 374 118.333333333 352 89 c 1
 374 57.6666666667 385 26.3333333333 385 -5 c 0
 385 -42.0412886423 375.281805343 -70 342 -70 c 0
 315.3736796 -70 304 -54.5204789387 304 -28 c 0
 304 -12.9991946306 317 18.0758038236 317 32 c 0
 317 37.3333333333 316 44.3333333333 314 53 c 1
 279.867198104 21.1427182304 225.938459377 -5 163 -5 c 0
 91.9247644733 -5 27 24.6097853532 27 90 c 0
 27 149.195038065 102.757712334 180 168 180 c 0
 231.642345498 180 293.056938432 154.428760712 327 123 c 1
 337.666666667 144.333333333 343 167 343 191 c 0
 343 237.243413565 311.934956821 280 268 280 c 0
 243.382710857 280 221 267.113509596 221 245 c 0
 221 226.862987967 216.130737189 222 198 222 c 0
 185.06975004 222 181 228.629863344 181 243 c 0
 181 262.09211197 156.326811466 280 136 280 c 0
 106.515949763 280 84 267.489074 84 239 c 0
 84 207.516924948 76.5567687068 193 46 193 c 0
 26.2541342143 193 15 213.164166897 15 234 c 0
 15 286.170837436 64.4420805195 319 118 319 c 0
 155.951016219 319 187.819437138 294.300938103 203 269 c 1
 209.049114991 296.221017455 241.023619093 317 274 317 c 0
 328.454049719 317 365.408791961 277.523952956 377 230 c 1
 427 230 l 1
 416.922758914 245.11586163 405.255294102 261.723529488 403 273 c 1
 387 273 l 2
 376.879122604 273 373 289.255552139 373 301 c 0
 373 312.052980172 377.600691366 329 387 329 c 2
 631 329 l 2
 709.070046474 329 751 262.195106983 751 181 c 0
 751 105.088065549 721.245965144 44 650 44 c 0
 592.264335181 44 547 82.2154485378 547 141 c 0
 547 200.499237109 583.946825369 241 644 241 c 0
 678.492883439 241 702.32904073 228.243307685 719 208 c 1
EndSplineSet
Substitution2: "Single Substitution lookup 23 subtable" U0C1E_U0C4D_U0C30_U0C3E
Ligature2: "'abvs' Above Base Substitutions in Telugu lookup 4 subtable" U0C1E U0C3E
EndChar

StartChar: U0C1F_U0C3E
Encoding: 535 -1 129
Width: 672
GlyphClass: 2
Flags: HW
LayerCount: 2
Back
Fore
SplineSet
88 257 m 0
 88 239.536617716 106.346882686 226 125 226 c 0
 146.216572412 226 164 237.026144022 164 257 c 0
 164 278.024232193 147.347765388 290 125 290 c 0
 106.306997532 290 88 275.872521916 88 257 c 0
545 211 m 256
 515.936648802 211 490 192.167932292 490 164 c 0
 490 130.070510084 511.030491227 109 545 109 c 0
 578.182543238 109 600 131.894703678 600 165 c 0
 600 192.933863356 573.458863905 211 545 211 c 256
130 435 m 0
 153.811695466 435 170 420.319236334 170 397 c 0
 170 367.361507269 145.037130827 342.796413534 130 324 c 1
 110.775944184 344.292058917 89 368.055060856 89 398 c 256
 89 422.398466332 105.686150598 435 130 435 c 0
615 208 m 1
 615 248.846629227 567.499231603 273 524 273 c 2
 364 273 l 1
 393.103304361 243.896695639 415 202.281582353 415 162 c 0
 415 71.5061024679 377.980853833 0 295 0 c 0
 261.097401123 0 226.714254538 18.1143418325 214 41 c 1
 194.365683639 16.457104549 173.640942496 -1 134 -1 c 0
 45.0544537874 -1 15 77.3172617879 15 174 c 0
 15 250.371808851 62.88418159 321 136 321 c 0
 175.423234079 321 211 289.062147645 211 250 c 256
 211 208.207296761 174.179736421 178 131 178 c 0
 94.1661881453 178 69.1033504599 202.338557057 64 235 c 1
 56.6666666667 214.333333333 53 197.666666667 53 185 c 0
 53 117.680211842 79.3039596617 81 145 81 c 0
 173.046293034 81 206 100.04318004 206 125 c 0
 206 134.547907894 208.30647476 143 217 143 c 0
 225.133793075 143 228 133.671622599 228 125 c 0
 228 95.6173449631 261.784369304 81 293 81 c 0
 347.614666496 81 379 115.395074036 379 171 c 0
 379 226.531058014 334.581695652 273 279 273 c 2
 265 273 l 2
 258.678186596 273 251 281.47945275 251 289 c 2
 251 291 l 2
 250.333333333 293.666666667 250 297 250 301 c 0
 250 312.790707503 254.580873736 329 265 329 c 2
 527 329 l 2
 604.323611905 329 647 262.195106983 647 181 c 0
 647 105.6204406 616.05066038 44 545 44 c 0
 487.338661243 44 443 82.7159537986 443 141 c 0
 443 201.005802572 479.496631984 241 539 241 c 0
 573.917891261 241 597.325462439 228.031142569 615 208 c 1
EndSplineSet
Substitution2: "Single Substitution lookup 23 subtable" U0C1F_U0C4D_U0C30_U0C3E
Ligature2: "'abvs' Above Base Substitutions in Telugu lookup 4 subtable" U0C1F U0C3E
EndChar

StartChar: U0C20_U0C3E
Encoding: 536 -1 130
Width: 628
GlyphClass: 2
Flags: HW
LayerCount: 2
Back
Fore
SplineSet
221 190 m 0
 221 173.037497613 204.240711421 157 187 157 c 256
 169.958199699 157 155 174.123693845 155 190 c 0
 155 206.771198063 169.417345379 222 187 222 c 256
 204.784830969 222 221 207.843118789 221 190 c 0
302 183 m 0
 302 239.495574334 245.179964406 273 185 273 c 0
 121.007764532 273 69 240.424218761 69 179 c 0
 69 105.949245098 110.397275637 74 185 74 c 0
 249.089571611 74 302 118.742186418 302 183 c 0
502 216 m 256
 474.053615963 216 446 197.250608406 446 169 c 0
 446 133.492777381 466.13112653 114 502 114 c 0
 535.814983332 114 557 135.621795539 557 169 c 0
 557 196.074648701 530.881309909 216 502 216 c 256
571 212 m 1
 571 244.442014156 527.928636592 274 494 274 c 2
 298 274 l 1
 332.429775827 245.308520147 353 201.865901775 353 151 c 0
 353 61.0782636614 279.498029794 0 189 0 c 0
 94.1152546742 0 15 58.6906619111 15 151 c 0
 15 204.423565043 37.5722703371 244.476891951 73 274 c 1
 48 274 l 2
 31.2805450083 274 15 285.497013457 15 301 c 0
 15 317.381450604 30.7038317113 329 48 329 c 2
 482 329 l 2
 559.943169669 329 603 265.766775174 603 185 c 0
 603 110.214424983 571.708528681 49 502 49 c 0
 443.184834459 49 399 86.9058164802 399 146 c 0
 399 204.75382088 436.646646388 246 496 246 c 0
 530.450692408 246 554.358068979 232.208059097 571 212 c 1
EndSplineSet
Substitution2: "Single Substitution lookup 23 subtable" U0C20_U0C4D_U0C30_U0C3E
Ligature2: "'abvs' Above Base Substitutions in Telugu lookup 4 subtable" U0C20 U0C3E
EndChar

StartChar: U0C21_U0C3E
Encoding: 537 -1 131
Width: 661
GlyphClass: 2
Flags: HW
LayerCount: 2
Back
Fore
SplineSet
346 162 m 0
 346 173.618804464 331.016676589 184 318 184 c 256
 304.978028787 184 292 174.324104104 292 162 c 256
 292 149.917178273 303.561483428 139 316 139 c 0
 331.599834991 139 346 148.022329984 346 162 c 0
535 215 m 0
 505.654274523 215 479 196.124358168 479 167 c 0
 479 131.659916297 500.437909421 113 535 113 c 0
 567.957584279 113 589 135.628471329 589 169 c 0
 589 196.469535918 563.453578714 215 535 215 c 0
193 273 m 0
 122.935622332 273 56 230.195680074 56 164 c 0
 56 111.191751797 84.8945255915 81 138 81 c 0
 166.103533483 81 200 100.533502877 200 125 c 0
 200 134.547907894 201.765079254 143 211 143 c 0
 219.2353405 143 221 134.226832775 221 125 c 0
 221 96.2726995808 255.622302128 76 286 76 c 0
 329.674261845 76 365 93.0458434461 365 134 c 0
 365 137.333333333 364.666666667 143 364 151 c 1
 360.480109909 126.360769363 336.739034525 109 308 109 c 0
 276.997727195 109 248 127.944549661 248 159 c 0
 248 193.146934519 278.753884867 209 316 209 c 0
 363.60205273 209 394 166.312165897 394 118 c 0
 394 48.4491132882 352.550237138 0 284 0 c 0
 244.554809431 0 222.747457928 19.7340389723 208 48 c 1
 191.226625127 16.8494466625 166.41933111 0 121 0 c 0
 54.6442383825 0 15 63.0508908968 15 131 c 0
 15 190.269767777 38.3917151958 243.279796572 80 273 c 1
 57 273 l 2
 39.6935920958 273 24 284.616830058 24 301 c 0
 24 316.331523256 40.8449927982 329 57 329 c 2
 515 329 l 2
 592.008408162 329 636 264.892652964 636 185 c 0
 636 109.442385769 605.124426297 48 535 48 c 0
 476.522070723 48 432 86.2154485378 432 145 c 0
 432 204.541902446 469.684651646 245 529 245 c 0
 561.912102721 245 587.102561866 231.276925761 604 211 c 1
 604 243.442014156 560.928636592 273 527 273 c 2
 323 273 l 1
 331.666666667 265 336 256.333333333 336 247 c 0
 336 231.41672176 325.890423004 226 309 226 c 1
 314.333333333 226 303.666666667 231.333333333 277 242 c 1
 257.666666667 262.666666667 229.666666667 273 193 273 c 0
EndSplineSet
Substitution2: "Single Substitution lookup 23 subtable" U0C21_U0C4D_U0C30_U0C3E
Ligature2: "'abvs' Above Base Substitutions in Telugu lookup 4 subtable" U0C21 U0C3E
EndChar

StartChar: U0C22_U0C3E
Encoding: 538 -1 132
Width: 661
GlyphClass: 2
Flags: HW
LayerCount: 2
Back
Fore
SplineSet
346 162 m 0
 346 173.618804464 331.016676589 184 318 184 c 256
 304.978028787 184 292 174.324104104 292 162 c 256
 292 149.917178273 303.561483428 139 316 139 c 0
 331.599834991 139 346 148.022329984 346 162 c 0
535 215 m 0
 505.654274523 215 479 196.124358168 479 167 c 0
 479 131.659916297 500.437909421 113 535 113 c 0
 567.957584279 113 589 135.628471329 589 169 c 0
 589 196.469535918 563.453578714 215 535 215 c 0
248 -64 m 0
 248 -87.3089687432 231.809655146 -102 208 -102 c 0
 183.914333012 -102 167 -88.4540279718 167 -65 c 256
 167 -35.9131963253 189.515538752 -11.6591037487 208 9 c 1
 219.410655075 -16.6739739186 248 -31.6557213692 248 -64 c 0
193 273 m 0
 122.935622332 273 56 230.195680074 56 164 c 0
 56 111.191751797 84.8945255915 81 138 81 c 0
 166.103533483 81 200 100.533502877 200 125 c 0
 200 134.547907894 201.765079254 143 211 143 c 0
 219.2353405 143 221 134.226832775 221 125 c 0
 221 96.2726995808 255.622302128 76 286 76 c 0
 329.674261845 76 365 93.0458434461 365 134 c 0
 365 137.333333333 364.666666667 143 364 151 c 1
 360.480109909 126.360769363 336.739034525 109 308 109 c 0
 276.997727195 109 248 127.944549661 248 159 c 0
 248 193.146934519 278.753884867 209 316 209 c 0
 363.60205273 209 394 166.312165897 394 118 c 0
 394 48.4491132882 352.550237138 0 284 0 c 0
 244.554809431 0 222.747457928 19.7340389723 208 48 c 1
 191.226625127 16.8494466625 166.41933111 0 121 0 c 0
 54.6442383825 0 15 63.0508908968 15 131 c 0
 15 190.269767777 38.3917151958 243.279796572 80 273 c 1
 57 273 l 2
 39.6935920958 273 24 284.616830058 24 301 c 0
 24 316.331523256 40.8449927982 329 57 329 c 2
 515 329 l 2
 592.008408162 329 636 264.892652964 636 185 c 0
 636 109.442385769 605.124426297 48 535 48 c 0
 476.522070723 48 432 86.2154485378 432 145 c 0
 432 204.541902446 469.684651646 245 529 245 c 0
 561.912102721 245 587.102561866 231.276925761 604 211 c 1
 604 243.442014156 560.928636592 273 527 273 c 2
 323 273 l 1
 331.666666667 265 336 256.333333333 336 247 c 0
 336 231.41672176 325.890423004 226 309 226 c 1
 314.333333333 226 303.666666667 231.333333333 277 242 c 1
 257.666666667 262.666666667 229.666666667 273 193 273 c 0
EndSplineSet
Substitution2: "Single Substitution lookup 23 subtable" U0C22_U0C4D_U0C30_U0C3E
Ligature2: "'abvs' Above Base Substitutions in Telugu lookup 4 subtable" U0C22 U0C3E
EndChar

StartChar: U0C23_U0C3E
Encoding: 539 -1 133
Width: 692
GlyphClass: 2
Flags: HW
LayerCount: 2
Back
Fore
SplineSet
359 119 m 0
 359 142.36832809 338.217670643 160 316 160 c 0
 288.794954392 160 271 146.436244918 271 120 c 0
 271 93.4375426632 289.771225672 76 317 76 c 0
 342.577944986 76 359 93.3478026209 359 119 c 0
566 211 m 0
 536.14218911 211 510 192.637712381 510 164 c 0
 510 129.547336211 531.190545538 109 566 109 c 0
 598.957584279 109 620 132.460918963 620 165 c 0
 620 192.469535918 593.669790983 211 566 211 c 0
635 208 m 1
 635 248.846629227 588.359040135 273 544 273 c 2
 375 273 l 1
 403.792570223 244.207429777 421 201.229424242 421 153 c 0
 421 71.697228009 390.405373318 0 316 0 c 0
 260.709036172 0 226 37.5422988122 226 94 c 0
 226 148.76511676 259.350476049 190 312 190 c 0
 341.34733279 190 365.386520981 175.15130536 379 157 c 1
 379 220.0873043 339.19833029 273 277 273 c 0
 246.07136064 273 203 246.937901036 203 216 c 2
 203 208 l 2
 203 201.996792853 197.285330934 199 191 199 c 0
 185.278637785 199 182 202.928608752 182 208 c 2
 182 214 l 2
 182 245.379616015 158.273591688 273 128 273 c 0
 99.3844275851 273 77 252.498068828 77 224 c 0
 77 206.455687278 95.9297534541 185 112 185 c 2
 122 185 l 2
 129.511633637 185 134 178.455468402 134 172 c 0
 134 165.053269935 128.555179114 159 122 159 c 2
 112 159 l 2
 81.6344741501 159 59 146.680689138 59 118 c 0
 59 82.9785210257 76.8247369215 67 115 67 c 0
 140.734913082 67 158 83.6232296329 158 109 c 0
 158 117 162.718971792 121 170 121 c 0
 187.476981646 121 191 102.086180836 191 82 c 0
 191 36.094589142 154.714070044 0 109 0 c 0
 55.4486722259 0 15 32.4189985689 15 86 c 0
 15 129.44336745 30.3006742896 159.208614287 61 172 c 1
 40.1305038183 180.115915182 26 200.467195262 26 229 c 0
 26 282.084318803 69.0287632323 310 124 310 c 0
 159.097183559 310 184.762708993 288.457636689 193 261 c 1
 201.054864056 286.50706951 238.814779256 305.137773511 271 309 c 1
 272.42334105 317.540046298 276.528012721 329 284 329 c 2
 547 329 l 2
 623.923546794 329 667 261.006288103 667 181 c 0
 667 105.088065549 636.607431439 44 566 44 c 0
 507.522070723 44 463 82.2154485378 463 141 c 0
 463 201.005802572 498.794212772 241 559 241 c 0
 593.917891261 241 617.325462439 228.031142569 635 208 c 1
EndSplineSet
Substitution2: "Single Substitution lookup 23 subtable" U0C23_U0C4D_U0C30_U0C3E
Ligature2: "'abvs' Above Base Substitutions in Telugu lookup 4 subtable" U0C23 U0C3E
EndChar

StartChar: U0C24_U0C3E
Encoding: 540 -1 134
Width: 675
GlyphClass: 2
Flags: HW
LayerCount: 2
Back
Fore
SplineSet
341 205 m 256
 341 221 328.281079452 229 311 229 c 0
 291.776677218 229 274 219.307189312 274 202 c 0
 274 186.928265087 288.431865524 175 304 175 c 0
 324.438352296 175 341 186.08549613 341 205 c 256
549 216 m 256
 520.886156994 216 494 197.800606353 494 169 c 0
 494 133.010837346 513.692565155 114 549 114 c 0
 582.814983332 114 604 135.621795539 604 169 c 0
 604 197.152760384 578.054016728 216 549 216 c 256
147 197 m 0
 147 216.996853906 130.810468686 225 110 225 c 0
 91.6536653459 225 74 214.03547049 74 197 c 0
 74 179.157155918 93.1261539569 166 112 166 c 0
 130.753303421 166 147 178.793665536 147 197 c 0
619 212 m 1
 619 244.910142291 574.912699767 274 541 274 c 2
 350 274 l 1
 358.666666667 264 365 252.333333333 369 239 c 1
 393.076872465 225.623959741 409 186.378419511 409 148 c 0
 409 38.5007413718 318.260757042 0 200 0 c 0
 100.991599914 0 15 43.8906681662 15 136 c 0
 15 207.150689348 54.5499470841 253 124 253 c 0
 159.627242875 253 193 229.36275485 193 195 c 0
 193 156.350823266 160.339787045 133 119 133 c 0
 86.5357686126 133 61.1202454047 147.759509191 50 170 c 1
 50 157 l 2
 50 88.3243152693 125.04559526 74 206 74 c 0
 291.519938664 74 376 91.9153612875 376 165 c 0
 376 172.333333333 375 180 373 188 c 1
 362.351161335 162.709008168 330.070839386 145 295 145 c 0
 259.395845926 145 227 161.869017794 227 195 c 0
 227 235.522911944 259.487106062 255 302 255 c 0
 311.333333333 255 318 254.333333333 322 253 c 1
 311.308341872 266.364572661 287.873517277 272.595610099 261.997026545 272.595610099 c 2
 71 274 l 2
 55.1688655865 274 38 286.464053443 38 301 c 0
 38 316.411891196 54.601209523 329 71 329 c 2
 529 329 l 2
 607.683402525 329 650 265.766775174 650 185 c 0
 650 109.063497222 619.188250325 49 549 49 c 0
 490.421236263 49 446 87.9310945547 446 146 c 0
 446 204.75382088 483.646646388 246 543 246 c 0
 578.613186238 246 601.221237038 232.14926469 619 212 c 1
EndSplineSet
Substitution2: "Single Substitution lookup 23 subtable" U0C24_U0C4D_U0C30_U0C3E
Ligature2: "'abvs' Above Base Substitutions in Telugu lookup 4 subtable" U0C24 U0C3E
EndChar

StartChar: U0C25_U0C3E
Encoding: 541 -1 135
Width: 661
GlyphClass: 2
Flags: HW
LayerCount: 2
Back
Fore
SplineSet
233 199 m 0
 233 182.055440376 216.117463743 165 198 165 c 256
 179.633470829 165 163 181.01632119 163 199 c 0
 163 217.816905466 179.107274406 234 198 234 c 256
 217.144216636 234 233 218.869279892 233 199 c 0
203 137 m 0
 213.459698817 137 217 129.999250636 217 120 c 0
 217 92.586766599 246.920364338 77 276 77 c 0
 323.14935159 77 346 108.767698972 346 157 c 0
 346 223.369113392 273.40073455 273 203 273 c 0
 133.339626912 273 61 222.905168788 61 157 c 0
 61 108.758212481 83.1923043154 77 131 77 c 0
 160.087634833 77 190 92.5707667055 190 120 c 0
 190 130.111848071 193.408796224 137 203 137 c 0
535 216 m 0
 506.250132473 216 479 197.250608406 479 169 c 0
 479 132.491374996 498.853796667 114 535 114 c 0
 568.634133189 114 589 136.194633353 589 169 c 0
 589 196.59594929 564.040986866 216 535 216 c 0
244 -64 m 0
 244 -86.7126238494 227.376246344 -102 203 -102 c 0
 178.559956895 -102 163 -89.8703361593 163 -65 c 256
 163 -35.1812467707 184.376111077 -11.8149346793 203 9 c 1
 215.974620498 -14.3543168964 244 -32.6748211371 244 -64 c 0
604 212 m 1
 604 244.442014156 560.928636592 274 527 274 c 2
 320 274 l 1
 362.58605715 243.028322074 392 195.251125251 392 137 c 0
 392 61.954166676 348.023728962 0 276 0 c 0
 243.109294519 0 216.510257935 18.1205104639 203 39 c 1
 190.515960184 17.7771323148 163.467646135 0 131 0 c 0
 58.9832459909 0 15 61.9657226624 15 137 c 0
 15 194.163542572 45.0541932926 242.766686033 88 274 c 1
 57 274 l 2
 40.2805450083 274 24 285.497013457 24 301 c 0
 24 317.381450604 39.7038317113 329 57 329 c 2
 515 329 l 2
 592.943169669 329 636 265.766775174 636 185 c 0
 636 110.214424983 604.708528681 49 535 49 c 0
 475.448216373 49 432 86.9058164802 432 146 c 0
 432 205.80534146 468.648033652 246 529 246 c 0
 563.686671937 246 586.534208484 231.794563718 604 212 c 1
EndSplineSet
Substitution2: "Single Substitution lookup 23 subtable" U0C25_U0C4D_U0C30_U0C3E
Ligature2: "'abvs' Above Base Substitutions in Telugu lookup 4 subtable" U0C25 U0C3E
EndChar

StartChar: U0C26_U0C3E
Encoding: 542 -1 136
Width: 661
GlyphClass: 2
Flags: HW
LayerCount: 2
Back
Fore
SplineSet
203 137 m 0
 213.459698817 137 217 129.999250636 217 120 c 0
 217 92.586766599 246.920364338 77 276 77 c 0
 323.14935159 77 346 108.767698972 346 157 c 0
 346 223.369113392 273.40073455 273 203 273 c 0
 133.339626912 273 61 222.905168788 61 157 c 0
 61 108.758212481 83.1923043154 77 131 77 c 0
 160.087634833 77 190 92.5707667055 190 120 c 0
 190 130.111848071 193.408796224 137 203 137 c 0
535 216 m 0
 506.250132473 216 479 197.250608406 479 169 c 0
 479 132.491374996 498.853796667 114 535 114 c 0
 568.634133189 114 589 136.194633353 589 169 c 0
 589 196.59594929 564.040986866 216 535 216 c 0
604 212 m 1
 604 244.442014156 560.928636592 274 527 274 c 2
 320 274 l 1
 362.58605715 243.028322074 392 195.251125251 392 137 c 0
 392 61.954166676 348.023728962 0 276 0 c 0
 243.109294519 0 216.510257935 18.1205104639 203 39 c 1
 190.515960184 17.7771323148 163.467646135 0 131 0 c 0
 58.9832459909 0 15 61.9657226624 15 137 c 0
 15 194.163542572 45.0541932926 242.766686033 88 274 c 1
 57 274 l 2
 40.2805450083 274 24 285.497013457 24 301 c 0
 24 317.381450604 39.7038317113 329 57 329 c 2
 515 329 l 2
 592.943169669 329 636 265.766775174 636 185 c 0
 636 110.214424983 604.708528681 49 535 49 c 0
 475.448216373 49 432 86.9058164802 432 146 c 0
 432 205.80534146 468.648033652 246 529 246 c 0
 563.686671937 246 586.534208484 231.794563718 604 212 c 1
EndSplineSet
Substitution2: "Single Substitution lookup 23 subtable" U0C26_U0C4D_U0C30_U0C3E
Ligature2: "'abvs' Above Base Substitutions in Telugu lookup 4 subtable" U0C26 U0C3E
EndChar

StartChar: U0C27_U0C3E
Encoding: 543 -1 137
Width: 661
GlyphClass: 2
Flags: HW
LayerCount: 2
Back
Fore
SplineSet
203 137 m 0
 213.459698817 137 217 129.999250636 217 120 c 0
 217 92.586766599 246.920364338 77 276 77 c 0
 323.14935159 77 346 108.767698972 346 157 c 0
 346 223.369113392 273.40073455 273 203 273 c 0
 133.339626912 273 61 222.905168788 61 157 c 0
 61 108.758212481 83.1923043154 77 131 77 c 0
 160.087634833 77 190 92.5707667055 190 120 c 0
 190 130.111848071 193.408796224 137 203 137 c 0
535 216 m 0
 506.250132473 216 479 197.250608406 479 169 c 0
 479 132.491374996 498.853796667 114 535 114 c 0
 568.634133189 114 589 136.194633353 589 169 c 0
 589 196.59594929 564.040986866 216 535 216 c 0
244 -64 m 0
 244 -86.7126238494 227.376246344 -102 203 -102 c 0
 178.559956895 -102 163 -89.8703361593 163 -65 c 256
 163 -35.1812467707 184.376111077 -11.8149346793 203 9 c 1
 215.974620498 -14.3543168964 244 -32.6748211371 244 -64 c 0
604 212 m 1
 604 244.442014156 560.928636592 274 527 274 c 2
 320 274 l 1
 362.58605715 243.028322074 392 195.251125251 392 137 c 0
 392 61.954166676 348.023728962 0 276 0 c 0
 243.109294519 0 216.510257935 18.1205104639 203 39 c 1
 190.515960184 17.7771323148 163.467646135 0 131 0 c 0
 58.9832459909 0 15 61.9657226624 15 137 c 0
 15 194.163542572 45.0541932926 242.766686033 88 274 c 1
 57 274 l 2
 40.2805450083 274 24 285.497013457 24 301 c 0
 24 317.381450604 39.7038317113 329 57 329 c 2
 515 329 l 2
 592.943169669 329 636 265.766775174 636 185 c 0
 636 110.214424983 604.708528681 49 535 49 c 0
 475.448216373 49 432 86.9058164802 432 146 c 0
 432 205.80534146 468.648033652 246 529 246 c 0
 563.686671937 246 586.534208484 231.794563718 604 212 c 1
EndSplineSet
Substitution2: "Single Substitution lookup 23 subtable" U0C27_U0C4D_U0C30_U0C3E
Ligature2: "'abvs' Above Base Substitutions in Telugu lookup 4 subtable" U0C27 U0C3E
EndChar

StartChar: U0C28_U0C3E
Encoding: 544 -1 138
Width: 684
GlyphClass: 2
Flags: HW
LayerCount: 2
Back
Fore
SplineSet
557 216 m 256
 529.042882665 216 502 196.789738425 502 169 c 0
 502 133.010837346 521.692565155 114 557 114 c 0
 590.814983332 114 612 135.621795539 612 169 c 0
 612 196.074648701 585.881309909 216 557 216 c 256
626 212 m 1
 626 245.435495954 583.032985921 274 549 274 c 2
 364 274 l 1
 395.499304041 242.500695959 413 201.057015041 413 146 c 0
 413 62.0889921635 367.936922805 0 286 0 c 0
 232.292802958 0 185 34.9227053875 185 86 c 0
 185 103.730762857 193 131.163220938 193 152 c 256
 193 178.024022062 165.978889165 197 140 197 c 0
 100.950903059 197 80 171.992537804 80 132 c 0
 80 93.5454845918 127 67.8958980877 127 33 c 0
 127 18.9031704885 111.690595543 0 99 0 c 0
 37.6949949747 0 15 38.6449699086 15 104 c 0
 15 180.90078537 63.2551737783 231 140 231 c 0
 193.761607446 231 235.059743928 194.454481279 238 143 c 0
 240.885767842 99.7134823628 254.690892291 77 298 77 c 0
 353.470912246 77 374 117.634545801 374 176 c 0
 374 230.958823085 332.059976573 272.54817294 275.996653133 272.54817294 c 2
 80 274 l 2
 63.2805450083 274 47 285.497013457 47 301 c 0
 47 317.381450604 62.7038317113 329 80 329 c 2
 538 329 l 2
 614.826861143 329 659 264.604408412 659 185 c 0
 659 109.595790878 627.631785055 49 557 49 c 0
 498.266069013 49 455 87.4109979688 455 146 c 0
 455 205.263190322 491.496631984 246 551 246 c 0
 586.196553644 246 609.223256643 232.37175979 626 212 c 1
EndSplineSet
Substitution2: "Single Substitution lookup 23 subtable" U0C28_U0C4D_U0C30_U0C3E
Ligature2: "'abvs' Above Base Substitutions in Telugu lookup 4 subtable" U0C28 U0C3E
EndChar

StartChar: U0C2A_U0C3E
Encoding: 545 -1 139
Width: 699
GlyphClass: 2
Flags: HW
LayerCount: 2
Back
Fore
SplineSet
200 146 m 0
 200 180.07623153 166.173652168 205 131 205 c 256
 95.5453466472 205 64 180.393876706 64 146 c 0
 64 106.090545212 93.3038185357 76 133 76 c 0
 176.768676912 76 200 103.06229303 200 146 c 0
573 208 m 0
 543.14218911 208 517 189.637712381 517 161 c 0
 517 126.547336211 538.190545538 106 573 106 c 0
 605.946990273 106 628 129.86998835 628 162 c 0
 628 189.244788018 601.694537 208 573 208 c 0
642 205 m 1
 642 245.731545552 594.879237235 271 551 271 c 2
 417 271 l 1
 424.333333333 245 428 218.333333333 428 191 c 0
 428 82.5428236399 392.142088755 0 292 0 c 0
 257.932648134 0 226.032819332 25.3441081783 220 54 c 1
 207.88683719 25.2312383233 167.886539401 -1 128 -1 c 0
 65.775978643 -1 15 53.3283947864 15 116 c 0
 15 190.043055899 62.5548650577 239 138 239 c 0
 196.33441474 239 227.80982087 199.652042729 242 151 c 0
 257.333333333 105.666666667 281 83 313 83 c 0
 362.927342636 83 388 142.130519167 388 197 c 0
 388 223 384 247.666666667 376 271 c 1
 61 271 l 1
 53.6666666667 275 50 287 50 301 c 0
 50 311.666666667 53.6666666667 322 61 326 c 1
 343 326 l 1
 313.666666667 362 282 383 248 383 c 0
 238.81302818 383 208.707419515 376 200 376 c 0
 180.95781008 376 167 384.554495757 167 403 c 0
 167 430.878399592 194.504467667 443 224 443 c 0
 295.287914421 443 358.660804358 392.751813988 394 326 c 1
 554 326 l 2
 632.238448824 326 674 259.343393318 674 178 c 0
 674 101.952953096 644.095622172 42 573 42 c 0
 513.690199399 42 470 80.2176032911 470 139 c 0
 470 198.178811684 507.00115794 238 566 238 c 0
 600.375761647 238 625.515904908 225.016401183 642 205 c 1
EndSplineSet
Substitution2: "Single Substitution lookup 23 subtable" U0C2A_U0C4D_U0C30_U0C3E
Ligature2: "'abvs' Above Base Substitutions in Telugu lookup 4 subtable" U0C2A U0C3E
EndChar

StartChar: U0C2B_U0C3E
Encoding: 546 -1 140
Width: 699
GlyphClass: 2
Flags: HW
LayerCount: 2
Back
Fore
SplineSet
200 146 m 0
 200 180.07623153 166.173652168 205 131 205 c 256
 95.5453466472 205 64 180.393876706 64 146 c 0
 64 106.090545212 93.3038185357 76 133 76 c 0
 176.768676912 76 200 103.06229303 200 146 c 0
573 208 m 0
 543.14218911 208 517 189.637712381 517 161 c 0
 517 126.547336211 538.190545538 106 573 106 c 0
 605.946990273 106 628 129.86998835 628 162 c 0
 628 189.244788018 601.694537 208 573 208 c 0
258 -64 m 256
 258 -87.3089687432 241.809655146 -102 218 -102 c 0
 193.914333012 -102 177 -88.4540279718 177 -65 c 256
 177 -34.7058763646 198.433643977 -11.6533758025 218 9 c 1
 235.762870789 -5.21029663094 258 -37.0302518201 258 -64 c 256
642 205 m 1
 642 245.731545552 594.879237235 271 551 271 c 2
 417 271 l 1
 424.333333333 245 428 218.333333333 428 191 c 0
 428 82.5428236399 392.142088755 0 292 0 c 0
 257.932648134 0 226.032819332 25.3441081783 220 54 c 1
 207.88683719 25.2312383233 167.886539401 -1 128 -1 c 0
 65.775978643 -1 15 53.3283947864 15 116 c 0
 15 190.043055899 62.5548650577 239 138 239 c 0
 196.33441474 239 227.80982087 199.652042729 242 151 c 0
 257.333333333 105.666666667 281 83 313 83 c 0
 362.927342636 83 388 142.130519167 388 197 c 0
 388 223 384 247.666666667 376 271 c 1
 61 271 l 1
 53.6666666667 275 50 287 50 301 c 0
 50 311.666666667 53.6666666667 322 61 326 c 1
 343 326 l 1
 313.666666667 362 282 383 248 383 c 0
 238.81302818 383 208.707419515 376 200 376 c 0
 180.95781008 376 167 384.554495757 167 403 c 0
 167 430.878399592 194.504467667 443 224 443 c 0
 295.287914421 443 358.660804358 392.751813988 394 326 c 1
 554 326 l 2
 632.238448824 326 674 259.343393318 674 178 c 0
 674 101.952953096 644.095622172 42 573 42 c 0
 513.690199399 42 470 80.2176032911 470 139 c 0
 470 198.178811684 507.00115794 238 566 238 c 0
 600.375761647 238 625.515904908 225.016401183 642 205 c 1
EndSplineSet
Substitution2: "Single Substitution lookup 23 subtable" U0C2B_U0C4D_U0C30_U0C3E
Ligature2: "'abvs' Above Base Substitutions in Telugu lookup 4 subtable" U0C2B U0C3E
EndChar

StartChar: U0C2C_U0C3E
Encoding: 547 -1 141
Width: 675
GlyphClass: 2
Flags: HW
LayerCount: 2
Back
Fore
SplineSet
549 210 m 256
 519.781000826 210 494 192.176746846 494 163 c 0
 494 127.85687071 514.205876189 109 549 109 c 0
 582.814983332 109 604 130.621795539 604 164 c 0
 604 192.223588295 578.615207577 210 549 210 c 256
619 206 m 1
 619 248.165426049 571.922859622 272 527 272 c 2
 367 272 l 1
 388.971274451 240.612465071 406 196.448624546 406 152 c 0
 406 73.5960403005 362.55896468 0 288 0 c 0
 248.163097444 0 224.058663696 17.8826726094 210 46 c 1
 192.144629185 16.2410486425 161.961228295 0 117 0 c 0
 61.1110304715 0 15 38.587213108 15 92 c 0
 15 143.333333333 47.3333333333 175 112 187 c 0
 153.333333333 193.666666667 174 208 174 230 c 0
 174 261.298162642 156.946791869 273 125 273 c 0
 100.924853363 273 82 269.438467355 82 250 c 0
 82 244.505250235 91 228.932569179 91 224 c 0
 91 206.336672131 74.0124917771 200 55 200 c 0
 34.3183610681 200 17 220.913618788 17 241 c 0
 17 285.949083576 60.9567510306 310 110 310 c 0
 163.182962998 310 206 286.182822563 206 236 c 0
 206 196 177.666666667 169 121 155 c 0
 83 145 64 130.666666667 64 112 c 0
 64 80.8158497291 98.4895529096 76 137 76 c 0
 167.06845244 76 202 104.841904623 202 135 c 0
 202 146.063645844 203.533846216 151 214 151 c 0
 223.151018266 151 225 141.580944399 225 131 c 0
 225 94.3945860553 249.587356036 76 286 76 c 0
 334.62248894 76 367 122.506653061 367 174 c 0
 367 226.717271386 350.231868013 266.235750931 307 272 c 1
 268 272 l 2
 258.403393473 272 253 289.340573687 253 299 c 0
 253 310.131089858 258.508914188 328 268 328 c 2
 530 328 l 2
 607.323611905 328 650 261.195106983 650 180 c 0
 650 103.952953096 620.095622172 44 549 44 c 0
 490.969754907 44 446 82.0716025761 446 140 c 0
 446 200.244653337 482.946825369 240 543 240 c 0
 578.428583463 240 601.466218011 227.040538387 619 206 c 1
EndSplineSet
Substitution2: "Single Substitution lookup 23 subtable" U0C2C_U0C4D_U0C30_U0C3E
Ligature2: "'abvs' Above Base Substitutions in Telugu lookup 4 subtable" U0C2C U0C3E
EndChar

StartChar: U0C2D_U0C3E
Encoding: 548 -1 142
Width: 675
GlyphClass: 2
Flags: HW
LayerCount: 2
Back
Fore
SplineSet
251 -64 m 0
 251 -87.3089687432 234.809655146 -102 211 -102 c 0
 186.683775264 -102 170 -89.3951841827 170 -65 c 256
 170 -34.7058763646 191.433643977 -11.6533758025 211 9 c 1
 222.410655075 -16.6739739186 251 -31.6557213692 251 -64 c 0
549 210 m 256
 519.781000826 210 494 192.176746846 494 163 c 0
 494 127.85687071 514.205876189 109 549 109 c 0
 582.814983332 109 604 130.621795539 604 164 c 0
 604 192.223588295 578.615207577 210 549 210 c 256
619 206 m 1
 619 248.165426049 571.922859622 272 527 272 c 2
 367 272 l 1
 388.971274451 240.612465071 406 196.448624546 406 152 c 0
 406 73.5960403005 362.55896468 0 288 0 c 0
 248.163097444 0 224.058663696 17.8826726094 210 46 c 1
 192.144629185 16.2410486425 161.961228295 0 117 0 c 0
 61.1110304715 0 15 38.587213108 15 92 c 0
 15 143.333333333 47.3333333333 175 112 187 c 0
 153.333333333 193.666666667 174 208 174 230 c 0
 174 261.298162642 156.946791869 273 125 273 c 0
 100.924853363 273 82 269.438467355 82 250 c 0
 82 244.505250235 91 228.932569179 91 224 c 0
 91 206.336672131 74.0124917771 200 55 200 c 0
 34.3183610681 200 17 220.913618788 17 241 c 0
 17 285.949083576 60.9567510306 310 110 310 c 0
 163.182962998 310 206 286.182822563 206 236 c 0
 206 196 177.666666667 169 121 155 c 0
 83 145 64 130.666666667 64 112 c 0
 64 80.8158497291 98.4895529096 76 137 76 c 0
 167.06845244 76 202 104.841904623 202 135 c 0
 202 146.063645844 203.533846216 151 214 151 c 0
 223.151018266 151 225 141.580944399 225 131 c 0
 225 94.3945860553 249.587356036 76 286 76 c 0
 334.62248894 76 367 122.506653061 367 174 c 0
 367 226.717271386 350.231868013 266.235750931 307 272 c 1
 268 272 l 2
 258.403393473 272 253 289.340573687 253 299 c 0
 253 310.131089858 258.508914188 328 268 328 c 2
 530 328 l 2
 607.323611905 328 650 261.195106983 650 180 c 0
 650 103.952953096 620.095622172 44 549 44 c 0
 490.969754907 44 446 82.0716025761 446 140 c 0
 446 200.244653337 482.946825369 240 543 240 c 0
 578.428583463 240 601.466218011 227.040538387 619 206 c 1
EndSplineSet
Substitution2: "Single Substitution lookup 23 subtable" U0C2D_U0C4D_U0C30_U0C3E
Ligature2: "'abvs' Above Base Substitutions in Telugu lookup 4 subtable" U0C2D U0C3E
EndChar

